<mxfile host="Electron" agent="Mozilla/5.0 (Macintosh; Intel Mac OS X 10_15_7) AppleWebKit/537.36 (KHTML, like Gecko) draw.io/27.0.9 Chrome/134.0.6998.205 Electron/35.4.0 Safari/537.36" version="27.0.9">
  <diagram id="6a731a19-8d31-9384-78a2-239565b7b9f0" name="Page-1">
    <mxGraphModel dx="3226" dy="1383" grid="1" gridSize="10" guides="1" tooltips="1" connect="1" arrows="1" fold="1" page="1" pageScale="1" pageWidth="1169" pageHeight="827" background="none" math="0" shadow="0">
      <root>
        <mxCell id="0" />
        <mxCell id="1" parent="0" />
        <mxCell id="xHfEUBMQbysEYosXAuTJ-150" style="edgeStyle=orthogonalEdgeStyle;rounded=0;orthogonalLoop=1;jettySize=auto;html=1;entryX=0.5;entryY=1;entryDx=0;entryDy=0;" parent="1" source="xHfEUBMQbysEYosXAuTJ-135" target="xHfEUBMQbysEYosXAuTJ-146" edge="1">
          <mxGeometry relative="1" as="geometry" />
        </mxCell>
        <mxCell id="xHfEUBMQbysEYosXAuTJ-175" value="YES" style="edgeLabel;html=1;align=center;verticalAlign=middle;resizable=0;points=[];fontStyle=1" parent="xHfEUBMQbysEYosXAuTJ-150" vertex="1" connectable="0">
          <mxGeometry x="-0.0656" y="-4" relative="1" as="geometry">
            <mxPoint x="-4" as="offset" />
          </mxGeometry>
        </mxCell>
        <mxCell id="xHfEUBMQbysEYosXAuTJ-151" style="edgeStyle=orthogonalEdgeStyle;rounded=0;orthogonalLoop=1;jettySize=auto;html=1;entryX=0.5;entryY=0;entryDx=0;entryDy=0;" parent="1" source="xHfEUBMQbysEYosXAuTJ-135" target="xHfEUBMQbysEYosXAuTJ-149" edge="1">
          <mxGeometry relative="1" as="geometry" />
        </mxCell>
        <mxCell id="xHfEUBMQbysEYosXAuTJ-177" value="NO" style="edgeLabel;html=1;align=center;verticalAlign=middle;resizable=0;points=[];fontStyle=1" parent="xHfEUBMQbysEYosXAuTJ-151" vertex="1" connectable="0">
          <mxGeometry x="-0.2344" y="4" relative="1" as="geometry">
            <mxPoint x="-4" y="3" as="offset" />
          </mxGeometry>
        </mxCell>
        <mxCell id="xHfEUBMQbysEYosXAuTJ-160" style="edgeStyle=orthogonalEdgeStyle;rounded=0;orthogonalLoop=1;jettySize=auto;html=1;entryX=0;entryY=0.5;entryDx=0;entryDy=0;" parent="1" source="xHfEUBMQbysEYosXAuTJ-135" target="xHfEUBMQbysEYosXAuTJ-137" edge="1">
          <mxGeometry relative="1" as="geometry" />
        </mxCell>
        <mxCell id="xHfEUBMQbysEYosXAuTJ-164" value="Continue" style="edgeLabel;html=1;align=center;verticalAlign=middle;resizable=0;points=[];" parent="xHfEUBMQbysEYosXAuTJ-160" vertex="1" connectable="0">
          <mxGeometry x="0.0263" y="-1" relative="1" as="geometry">
            <mxPoint x="-6" y="-2" as="offset" />
          </mxGeometry>
        </mxCell>
        <mxCell id="xHfEUBMQbysEYosXAuTJ-135" value="Does the use case involve life-critical situations or significant monetary losses?" style="rounded=0;whiteSpace=wrap;html=1;fillColor=#dae8fc;strokeColor=#6c8ebf;" parent="1" vertex="1">
          <mxGeometry x="-751.11" y="880" width="135" height="80" as="geometry" />
        </mxCell>
        <mxCell id="xHfEUBMQbysEYosXAuTJ-145" style="edgeStyle=orthogonalEdgeStyle;rounded=0;orthogonalLoop=1;jettySize=auto;html=1;entryX=0.5;entryY=1;entryDx=0;entryDy=0;" parent="1" source="xHfEUBMQbysEYosXAuTJ-136" target="xHfEUBMQbysEYosXAuTJ-138" edge="1">
          <mxGeometry relative="1" as="geometry" />
        </mxCell>
        <mxCell id="xHfEUBMQbysEYosXAuTJ-174" value="YES" style="edgeLabel;html=1;align=center;verticalAlign=middle;resizable=0;points=[];fontStyle=1" parent="xHfEUBMQbysEYosXAuTJ-145" vertex="1" connectable="0">
          <mxGeometry x="0.0656" y="-3" relative="1" as="geometry">
            <mxPoint x="-2" y="3" as="offset" />
          </mxGeometry>
        </mxCell>
        <mxCell id="xHfEUBMQbysEYosXAuTJ-158" style="edgeStyle=orthogonalEdgeStyle;rounded=0;orthogonalLoop=1;jettySize=auto;html=1;entryX=0;entryY=0.5;entryDx=0;entryDy=0;" parent="1" source="xHfEUBMQbysEYosXAuTJ-136" target="xHfEUBMQbysEYosXAuTJ-135" edge="1">
          <mxGeometry relative="1" as="geometry" />
        </mxCell>
        <mxCell id="xHfEUBMQbysEYosXAuTJ-159" value="Continue" style="edgeLabel;html=1;align=center;verticalAlign=middle;resizable=0;points=[];" parent="xHfEUBMQbysEYosXAuTJ-158" vertex="1" connectable="0">
          <mxGeometry x="-0.119" y="1" relative="1" as="geometry">
            <mxPoint x="4" as="offset" />
          </mxGeometry>
        </mxCell>
        <mxCell id="xHfEUBMQbysEYosXAuTJ-136" value="Can the AI be replaced with more robust and predictable traditional software?" style="rounded=0;whiteSpace=wrap;html=1;fillColor=#dae8fc;strokeColor=#6c8ebf;" parent="1" vertex="1">
          <mxGeometry x="-991.11" y="880" width="135" height="80" as="geometry" />
        </mxCell>
        <mxCell id="xHfEUBMQbysEYosXAuTJ-166" style="edgeStyle=orthogonalEdgeStyle;rounded=0;orthogonalLoop=1;jettySize=auto;html=1;entryX=0;entryY=0.5;entryDx=0;entryDy=0;" parent="1" source="xHfEUBMQbysEYosXAuTJ-137" target="xHfEUBMQbysEYosXAuTJ-139" edge="1">
          <mxGeometry relative="1" as="geometry" />
        </mxCell>
        <mxCell id="xHfEUBMQbysEYosXAuTJ-167" value="Continue" style="edgeLabel;html=1;align=center;verticalAlign=middle;resizable=0;points=[];" parent="xHfEUBMQbysEYosXAuTJ-166" vertex="1" connectable="0">
          <mxGeometry x="0.0031" y="-1" relative="1" as="geometry">
            <mxPoint x="-4" y="-2" as="offset" />
          </mxGeometry>
        </mxCell>
        <mxCell id="xHfEUBMQbysEYosXAuTJ-176" value="YES" style="edgeStyle=orthogonalEdgeStyle;rounded=0;orthogonalLoop=1;jettySize=auto;html=1;entryX=0.5;entryY=1;entryDx=0;entryDy=0;fontStyle=1" parent="1" source="xHfEUBMQbysEYosXAuTJ-137" target="xHfEUBMQbysEYosXAuTJ-152" edge="1">
          <mxGeometry x="-0.0164" relative="1" as="geometry">
            <mxPoint as="offset" />
          </mxGeometry>
        </mxCell>
        <mxCell id="xHfEUBMQbysEYosXAuTJ-137" value="Will the end user be blocked if the AI fails?" style="rounded=0;whiteSpace=wrap;html=1;fillColor=#dae8fc;strokeColor=#6c8ebf;" parent="1" vertex="1">
          <mxGeometry x="-521.11" y="880" width="135" height="80" as="geometry" />
        </mxCell>
        <mxCell id="xHfEUBMQbysEYosXAuTJ-138" value="Drop the use case and consider different approaches" style="rounded=0;whiteSpace=wrap;html=1;fillColor=#f8cecc;strokeColor=#b85450;" parent="1" vertex="1">
          <mxGeometry x="-991.11" y="739" width="135" height="80" as="geometry" />
        </mxCell>
        <mxCell id="xHfEUBMQbysEYosXAuTJ-168" style="edgeStyle=orthogonalEdgeStyle;rounded=0;orthogonalLoop=1;jettySize=auto;html=1;entryX=0;entryY=0.5;entryDx=0;entryDy=0;" parent="1" source="xHfEUBMQbysEYosXAuTJ-139" target="xHfEUBMQbysEYosXAuTJ-140" edge="1">
          <mxGeometry relative="1" as="geometry" />
        </mxCell>
        <mxCell id="xHfEUBMQbysEYosXAuTJ-169" value="Continue" style="edgeLabel;html=1;align=center;verticalAlign=middle;resizable=0;points=[];" parent="xHfEUBMQbysEYosXAuTJ-168" vertex="1" connectable="0">
          <mxGeometry x="0.0402" relative="1" as="geometry">
            <mxPoint x="-3" y="-1" as="offset" />
          </mxGeometry>
        </mxCell>
        <mxCell id="xHfEUBMQbysEYosXAuTJ-183" style="edgeStyle=orthogonalEdgeStyle;rounded=0;orthogonalLoop=1;jettySize=auto;html=1;entryX=1;entryY=0.5;entryDx=0;entryDy=0;exitX=0.5;exitY=0;exitDx=0;exitDy=0;" parent="1" source="xHfEUBMQbysEYosXAuTJ-139" target="xHfEUBMQbysEYosXAuTJ-152" edge="1">
          <mxGeometry relative="1" as="geometry">
            <mxPoint x="-255.11" y="840" as="sourcePoint" />
            <mxPoint x="-269.86" y="700" as="targetPoint" />
            <Array as="points">
              <mxPoint x="-223.11" y="840" />
              <mxPoint x="-223.11" y="840" />
              <mxPoint x="-223.11" y="779" />
            </Array>
          </mxGeometry>
        </mxCell>
        <mxCell id="xHfEUBMQbysEYosXAuTJ-185" value="YES" style="edgeLabel;html=1;align=center;verticalAlign=middle;resizable=0;points=[];fontStyle=1" parent="xHfEUBMQbysEYosXAuTJ-183" vertex="1" connectable="0">
          <mxGeometry x="-0.6842" y="-1" relative="1" as="geometry">
            <mxPoint x="-2" y="6" as="offset" />
          </mxGeometry>
        </mxCell>
        <mxCell id="xHfEUBMQbysEYosXAuTJ-139" value="Can bias influence the AI&#39;s decision?" style="rounded=0;whiteSpace=wrap;html=1;fillColor=#dae8fc;strokeColor=#6c8ebf;" parent="1" vertex="1">
          <mxGeometry x="-291.11" y="880" width="135" height="80" as="geometry" />
        </mxCell>
        <mxCell id="xHfEUBMQbysEYosXAuTJ-170" style="edgeStyle=orthogonalEdgeStyle;rounded=0;orthogonalLoop=1;jettySize=auto;html=1;entryX=0;entryY=0.5;entryDx=0;entryDy=0;" parent="1" source="xHfEUBMQbysEYosXAuTJ-140" target="xHfEUBMQbysEYosXAuTJ-141" edge="1">
          <mxGeometry relative="1" as="geometry" />
        </mxCell>
        <mxCell id="xHfEUBMQbysEYosXAuTJ-171" value="Continue" style="edgeLabel;html=1;align=center;verticalAlign=middle;resizable=0;points=[];" parent="xHfEUBMQbysEYosXAuTJ-170" vertex="1" connectable="0">
          <mxGeometry x="-0.0217" y="1" relative="1" as="geometry">
            <mxPoint x="-3" as="offset" />
          </mxGeometry>
        </mxCell>
        <mxCell id="xHfEUBMQbysEYosXAuTJ-178" style="edgeStyle=orthogonalEdgeStyle;rounded=0;orthogonalLoop=1;jettySize=auto;html=1;entryX=0.5;entryY=1;entryDx=0;entryDy=0;" parent="1" source="xHfEUBMQbysEYosXAuTJ-140" target="xHfEUBMQbysEYosXAuTJ-155" edge="1">
          <mxGeometry relative="1" as="geometry" />
        </mxCell>
        <mxCell id="xHfEUBMQbysEYosXAuTJ-179" value="YES" style="edgeLabel;html=1;align=center;verticalAlign=middle;resizable=0;points=[];fontStyle=1" parent="xHfEUBMQbysEYosXAuTJ-178" vertex="1" connectable="0">
          <mxGeometry x="0.1223" y="1" relative="1" as="geometry">
            <mxPoint x="1" y="4" as="offset" />
          </mxGeometry>
        </mxCell>
        <mxCell id="xHfEUBMQbysEYosXAuTJ-196" style="edgeStyle=orthogonalEdgeStyle;rounded=0;orthogonalLoop=1;jettySize=auto;html=1;exitX=0.5;exitY=1;exitDx=0;exitDy=0;" parent="1" source="xHfEUBMQbysEYosXAuTJ-140" target="xHfEUBMQbysEYosXAuTJ-193" edge="1">
          <mxGeometry relative="1" as="geometry" />
        </mxCell>
        <mxCell id="xHfEUBMQbysEYosXAuTJ-199" value="&lt;span style=&quot;font-weight: 700;&quot;&gt;NO&lt;/span&gt;" style="edgeLabel;html=1;align=center;verticalAlign=middle;resizable=0;points=[];" parent="xHfEUBMQbysEYosXAuTJ-196" vertex="1" connectable="0">
          <mxGeometry x="-0.1635" y="-2" relative="1" as="geometry">
            <mxPoint as="offset" />
          </mxGeometry>
        </mxCell>
        <mxCell id="xHfEUBMQbysEYosXAuTJ-140" value="Is your use case highly specific?" style="rounded=0;whiteSpace=wrap;html=1;fillColor=#dae8fc;strokeColor=#6c8ebf;" parent="1" vertex="1">
          <mxGeometry x="-61.110000000000014" y="880" width="135" height="80" as="geometry" />
        </mxCell>
        <mxCell id="xHfEUBMQbysEYosXAuTJ-180" style="edgeStyle=orthogonalEdgeStyle;rounded=0;orthogonalLoop=1;jettySize=auto;html=1;entryX=0.5;entryY=1;entryDx=0;entryDy=0;" parent="1" source="xHfEUBMQbysEYosXAuTJ-141" target="xHfEUBMQbysEYosXAuTJ-157" edge="1">
          <mxGeometry relative="1" as="geometry" />
        </mxCell>
        <mxCell id="xHfEUBMQbysEYosXAuTJ-182" value="YES" style="edgeLabel;html=1;align=center;verticalAlign=middle;resizable=0;points=[];fontStyle=1" parent="xHfEUBMQbysEYosXAuTJ-180" vertex="1" connectable="0">
          <mxGeometry x="0.0539" y="-1" relative="1" as="geometry">
            <mxPoint as="offset" />
          </mxGeometry>
        </mxCell>
        <mxCell id="xHfEUBMQbysEYosXAuTJ-197" style="edgeStyle=orthogonalEdgeStyle;rounded=0;orthogonalLoop=1;jettySize=auto;html=1;" parent="1" source="xHfEUBMQbysEYosXAuTJ-141" target="xHfEUBMQbysEYosXAuTJ-194" edge="1">
          <mxGeometry relative="1" as="geometry" />
        </mxCell>
        <mxCell id="xHfEUBMQbysEYosXAuTJ-201" value="&lt;span style=&quot;font-weight: 700;&quot;&gt;NO&lt;/span&gt;" style="edgeLabel;html=1;align=center;verticalAlign=middle;resizable=0;points=[];" parent="xHfEUBMQbysEYosXAuTJ-197" vertex="1" connectable="0">
          <mxGeometry x="-0.2201" y="1" relative="1" as="geometry">
            <mxPoint x="-1" y="1" as="offset" />
          </mxGeometry>
        </mxCell>
        <mxCell id="xHfEUBMQbysEYosXAuTJ-212" style="edgeStyle=orthogonalEdgeStyle;rounded=0;orthogonalLoop=1;jettySize=auto;html=1;entryX=0;entryY=0.5;entryDx=0;entryDy=0;" parent="1" source="xHfEUBMQbysEYosXAuTJ-141" target="xHfEUBMQbysEYosXAuTJ-203" edge="1">
          <mxGeometry relative="1" as="geometry" />
        </mxCell>
        <mxCell id="xHfEUBMQbysEYosXAuTJ-213" value="Continue" style="edgeLabel;html=1;align=center;verticalAlign=middle;resizable=0;points=[];" parent="xHfEUBMQbysEYosXAuTJ-212" vertex="1" connectable="0">
          <mxGeometry x="-0.1726" y="-1" relative="1" as="geometry">
            <mxPoint x="6" y="-1" as="offset" />
          </mxGeometry>
        </mxCell>
        <mxCell id="xHfEUBMQbysEYosXAuTJ-141" value="Will the AI require regular updates or monitoring?" style="rounded=0;whiteSpace=wrap;html=1;fillColor=#dae8fc;strokeColor=#6c8ebf;" parent="1" vertex="1">
          <mxGeometry x="168.89" y="880" width="135" height="80" as="geometry" />
        </mxCell>
        <mxCell id="xHfEUBMQbysEYosXAuTJ-146" value="The AI should be in the loop" style="rounded=0;whiteSpace=wrap;html=1;fillColor=#fff2cc;strokeColor=#d6b656;" parent="1" vertex="1">
          <mxGeometry x="-753.61" y="739" width="140" height="80" as="geometry" />
        </mxCell>
        <mxCell id="xHfEUBMQbysEYosXAuTJ-149" value="The human should be in the loop" style="rounded=0;whiteSpace=wrap;html=1;fillColor=#fff2cc;strokeColor=#d6b656;" parent="1" vertex="1">
          <mxGeometry x="-753.61" y="1021" width="140" height="80" as="geometry" />
        </mxCell>
        <mxCell id="xHfEUBMQbysEYosXAuTJ-152" value="Allow users to request human intervention" style="rounded=0;whiteSpace=wrap;html=1;fillColor=#fff2cc;strokeColor=#d6b656;" parent="1" vertex="1">
          <mxGeometry x="-523.61" y="739" width="140" height="80" as="geometry" />
        </mxCell>
        <mxCell id="xHfEUBMQbysEYosXAuTJ-155" value="You may need to fine-tune or customise the model" style="rounded=0;whiteSpace=wrap;html=1;fillColor=#fff2cc;strokeColor=#d6b656;" parent="1" vertex="1">
          <mxGeometry x="-64.11000000000001" y="739" width="140" height="80" as="geometry" />
        </mxCell>
        <mxCell id="xHfEUBMQbysEYosXAuTJ-157" value="Be prepared to update or retrain models regularly" style="rounded=0;whiteSpace=wrap;html=1;fillColor=#fff2cc;strokeColor=#d6b656;" parent="1" vertex="1">
          <mxGeometry x="165.89" y="739" width="140" height="80" as="geometry" />
        </mxCell>
        <mxCell id="xHfEUBMQbysEYosXAuTJ-189" style="edgeStyle=orthogonalEdgeStyle;rounded=0;orthogonalLoop=1;jettySize=auto;html=1;" parent="1" source="xHfEUBMQbysEYosXAuTJ-186" target="xHfEUBMQbysEYosXAuTJ-138" edge="1">
          <mxGeometry relative="1" as="geometry" />
        </mxCell>
        <mxCell id="xHfEUBMQbysEYosXAuTJ-190" value="YES" style="edgeLabel;html=1;align=center;verticalAlign=middle;resizable=0;points=[];fontStyle=1" parent="xHfEUBMQbysEYosXAuTJ-189" vertex="1" connectable="0">
          <mxGeometry x="-0.2008" relative="1" as="geometry">
            <mxPoint x="353" as="offset" />
          </mxGeometry>
        </mxCell>
        <mxCell id="xHfEUBMQbysEYosXAuTJ-186" value="Will your AI use case save more time and money than it costs to develop/maintain?" style="rounded=0;whiteSpace=wrap;html=1;fillColor=#e1d5e7;strokeColor=#9673a6;" parent="1" vertex="1">
          <mxGeometry x="-64.11000000000001" y="590" width="610" height="80" as="geometry" />
        </mxCell>
        <mxCell id="xHfEUBMQbysEYosXAuTJ-187" value="YES" style="edgeStyle=orthogonalEdgeStyle;rounded=0;orthogonalLoop=1;jettySize=auto;html=1;entryX=0.116;entryY=1;entryDx=0;entryDy=0;entryPerimeter=0;fontStyle=1" parent="1" source="xHfEUBMQbysEYosXAuTJ-155" target="xHfEUBMQbysEYosXAuTJ-186" edge="1">
          <mxGeometry relative="1" as="geometry" />
        </mxCell>
        <mxCell id="xHfEUBMQbysEYosXAuTJ-188" style="edgeStyle=orthogonalEdgeStyle;rounded=0;orthogonalLoop=1;jettySize=auto;html=1;entryX=0.493;entryY=1;entryDx=0;entryDy=0;entryPerimeter=0;" parent="1" source="xHfEUBMQbysEYosXAuTJ-157" target="xHfEUBMQbysEYosXAuTJ-186" edge="1">
          <mxGeometry relative="1" as="geometry" />
        </mxCell>
        <mxCell id="xHfEUBMQbysEYosXAuTJ-191" value="YES" style="edgeLabel;html=1;align=center;verticalAlign=middle;resizable=0;points=[];fontStyle=1" parent="xHfEUBMQbysEYosXAuTJ-188" vertex="1" connectable="0">
          <mxGeometry x="0.0065" relative="1" as="geometry">
            <mxPoint as="offset" />
          </mxGeometry>
        </mxCell>
        <mxCell id="xHfEUBMQbysEYosXAuTJ-193" value="Pre-trained models may be sufficient" style="rounded=0;whiteSpace=wrap;html=1;fillColor=#fff2cc;strokeColor=#d6b656;" parent="1" vertex="1">
          <mxGeometry x="-64.11000000000001" y="1021" width="140" height="80" as="geometry" />
        </mxCell>
        <mxCell id="xHfEUBMQbysEYosXAuTJ-194" value="Model may remain effective without frequent updates" style="rounded=0;whiteSpace=wrap;html=1;fillColor=#fff2cc;strokeColor=#d6b656;" parent="1" vertex="1">
          <mxGeometry x="167.39" y="1021" width="140" height="80" as="geometry" />
        </mxCell>
        <mxCell id="xHfEUBMQbysEYosXAuTJ-202" value="Framework for evaluating Gen AI use-cases" style="text;html=1;align=center;verticalAlign=middle;whiteSpace=wrap;rounded=0;fillColor=#d5e8d4;strokeColor=#82b366;fontSize=36;fontStyle=1" parent="1" vertex="1">
          <mxGeometry x="-1050" y="380" width="2290" height="70" as="geometry" />
        </mxCell>
        <mxCell id="xHfEUBMQbysEYosXAuTJ-207" style="edgeStyle=orthogonalEdgeStyle;rounded=0;orthogonalLoop=1;jettySize=auto;html=1;" parent="1" source="xHfEUBMQbysEYosXAuTJ-203" edge="1">
          <mxGeometry relative="1" as="geometry">
            <mxPoint x="471.39" y="820" as="targetPoint" />
          </mxGeometry>
        </mxCell>
        <mxCell id="xHfEUBMQbysEYosXAuTJ-209" value="YES" style="edgeLabel;html=1;align=center;verticalAlign=middle;resizable=0;points=[];fontStyle=1" parent="xHfEUBMQbysEYosXAuTJ-207" vertex="1" connectable="0">
          <mxGeometry x="-0.0857" relative="1" as="geometry">
            <mxPoint as="offset" />
          </mxGeometry>
        </mxCell>
        <mxCell id="xHfEUBMQbysEYosXAuTJ-208" style="edgeStyle=orthogonalEdgeStyle;rounded=0;orthogonalLoop=1;jettySize=auto;html=1;" parent="1" source="xHfEUBMQbysEYosXAuTJ-203" target="xHfEUBMQbysEYosXAuTJ-206" edge="1">
          <mxGeometry relative="1" as="geometry" />
        </mxCell>
        <mxCell id="xHfEUBMQbysEYosXAuTJ-210" value="NO" style="edgeLabel;html=1;align=center;verticalAlign=middle;resizable=0;points=[];fontStyle=1" parent="xHfEUBMQbysEYosXAuTJ-208" vertex="1" connectable="0">
          <mxGeometry x="-0.2285" y="-2" relative="1" as="geometry">
            <mxPoint x="1" y="1" as="offset" />
          </mxGeometry>
        </mxCell>
        <mxCell id="xHfEUBMQbysEYosXAuTJ-225" style="edgeStyle=orthogonalEdgeStyle;rounded=0;orthogonalLoop=1;jettySize=auto;html=1;" parent="1" source="xHfEUBMQbysEYosXAuTJ-203" target="xHfEUBMQbysEYosXAuTJ-214" edge="1">
          <mxGeometry relative="1" as="geometry" />
        </mxCell>
        <mxCell id="xHfEUBMQbysEYosXAuTJ-226" value="Continue" style="edgeLabel;html=1;align=center;verticalAlign=middle;resizable=0;points=[];" parent="xHfEUBMQbysEYosXAuTJ-225" vertex="1" connectable="0">
          <mxGeometry x="-0.0206" relative="1" as="geometry">
            <mxPoint as="offset" />
          </mxGeometry>
        </mxCell>
        <mxCell id="xHfEUBMQbysEYosXAuTJ-203" value="Are you planning to process PII (Personally Identifiable Information)?" style="rounded=0;whiteSpace=wrap;html=1;fillColor=#dae8fc;strokeColor=#6c8ebf;" parent="1" vertex="1">
          <mxGeometry x="403.89" y="880" width="135" height="80" as="geometry" />
        </mxCell>
        <mxCell id="xHfEUBMQbysEYosXAuTJ-204" value="Be prepared to consider self hosting" style="rounded=0;whiteSpace=wrap;html=1;fillColor=#fff2cc;strokeColor=#d6b656;" parent="1" vertex="1">
          <mxGeometry x="403.89" y="739" width="140" height="80" as="geometry" />
        </mxCell>
        <mxCell id="xHfEUBMQbysEYosXAuTJ-206" value="Cloud serverless models may be sufficient" style="rounded=0;whiteSpace=wrap;html=1;fillColor=#fff2cc;strokeColor=#d6b656;" parent="1" vertex="1">
          <mxGeometry x="401.39" y="1021" width="140" height="80" as="geometry" />
        </mxCell>
        <mxCell id="xHfEUBMQbysEYosXAuTJ-211" value="YES" style="edgeStyle=orthogonalEdgeStyle;rounded=0;orthogonalLoop=1;jettySize=auto;html=1;entryX=0.882;entryY=1;entryDx=0;entryDy=0;entryPerimeter=0;fontStyle=1" parent="1" source="xHfEUBMQbysEYosXAuTJ-204" target="xHfEUBMQbysEYosXAuTJ-186" edge="1">
          <mxGeometry relative="1" as="geometry" />
        </mxCell>
        <mxCell id="xHfEUBMQbysEYosXAuTJ-216" style="edgeStyle=orthogonalEdgeStyle;rounded=0;orthogonalLoop=1;jettySize=auto;html=1;entryX=0.5;entryY=1;entryDx=0;entryDy=0;" parent="1" source="xHfEUBMQbysEYosXAuTJ-214" target="xHfEUBMQbysEYosXAuTJ-215" edge="1">
          <mxGeometry relative="1" as="geometry" />
        </mxCell>
        <mxCell id="xHfEUBMQbysEYosXAuTJ-218" value="YES" style="edgeLabel;html=1;align=center;verticalAlign=middle;resizable=0;points=[];fontStyle=1" parent="xHfEUBMQbysEYosXAuTJ-216" vertex="1" connectable="0">
          <mxGeometry x="-0.0328" y="2" relative="1" as="geometry">
            <mxPoint x="2" as="offset" />
          </mxGeometry>
        </mxCell>
        <mxCell id="xHfEUBMQbysEYosXAuTJ-243" value="Continue" style="edgeStyle=orthogonalEdgeStyle;rounded=0;orthogonalLoop=1;jettySize=auto;html=1;" parent="1" edge="1">
          <mxGeometry relative="1" as="geometry">
            <mxPoint x="865.8899999999999" y="919" as="targetPoint" />
            <mxPoint x="770.8899999999999" y="919" as="sourcePoint" />
          </mxGeometry>
        </mxCell>
        <mxCell id="xHfEUBMQbysEYosXAuTJ-214" value="Will your model be used by the public?" style="rounded=0;whiteSpace=wrap;html=1;fillColor=#dae8fc;strokeColor=#6c8ebf;" parent="1" vertex="1">
          <mxGeometry x="635.8899999999999" y="880" width="135" height="80" as="geometry" />
        </mxCell>
        <mxCell id="xHfEUBMQbysEYosXAuTJ-221" value="" style="edgeStyle=orthogonalEdgeStyle;rounded=0;orthogonalLoop=1;jettySize=auto;html=1;fontStyle=1" parent="1" source="xHfEUBMQbysEYosXAuTJ-215" target="xHfEUBMQbysEYosXAuTJ-220" edge="1">
          <mxGeometry relative="1" as="geometry" />
        </mxCell>
        <mxCell id="xHfEUBMQbysEYosXAuTJ-223" value="YES" style="edgeLabel;html=1;align=center;verticalAlign=middle;resizable=0;points=[];fontStyle=1" parent="xHfEUBMQbysEYosXAuTJ-221" vertex="1" connectable="0">
          <mxGeometry x="-0.087" relative="1" as="geometry">
            <mxPoint y="-3" as="offset" />
          </mxGeometry>
        </mxCell>
        <mxCell id="xHfEUBMQbysEYosXAuTJ-215" value="Is there a risk of reputational damage or serious consequences?" style="rounded=0;whiteSpace=wrap;html=1;fillColor=#fff2cc;strokeColor=#d6b656;" parent="1" vertex="1">
          <mxGeometry x="635.8899999999999" y="739" width="135" height="80" as="geometry" />
        </mxCell>
        <mxCell id="xHfEUBMQbysEYosXAuTJ-240" style="edgeStyle=orthogonalEdgeStyle;rounded=0;orthogonalLoop=1;jettySize=auto;html=1;entryX=0;entryY=0.5;entryDx=0;entryDy=0;" parent="1" source="xHfEUBMQbysEYosXAuTJ-220" target="xHfEUBMQbysEYosXAuTJ-235" edge="1">
          <mxGeometry relative="1" as="geometry" />
        </mxCell>
        <mxCell id="xHfEUBMQbysEYosXAuTJ-241" value="Continue" style="edgeLabel;html=1;align=center;verticalAlign=middle;resizable=0;points=[];" parent="xHfEUBMQbysEYosXAuTJ-240" vertex="1" connectable="0">
          <mxGeometry x="-0.0799" y="2" relative="1" as="geometry">
            <mxPoint x="1" as="offset" />
          </mxGeometry>
        </mxCell>
        <mxCell id="xHfEUBMQbysEYosXAuTJ-220" value="Consider introducing guardrails" style="rounded=0;whiteSpace=wrap;html=1;fillColor=#fff2cc;strokeColor=#d6b656;" parent="1" vertex="1">
          <mxGeometry x="635.8899999999999" y="590" width="135" height="80" as="geometry" />
        </mxCell>
        <mxCell id="xHfEUBMQbysEYosXAuTJ-236" style="edgeStyle=orthogonalEdgeStyle;rounded=0;orthogonalLoop=1;jettySize=auto;html=1;" parent="1" edge="1">
          <mxGeometry relative="1" as="geometry">
            <mxPoint x="937.8899999999999" y="590" as="sourcePoint" />
            <mxPoint x="-994.11" y="779" as="targetPoint" />
            <Array as="points">
              <mxPoint x="937.8899999999999" y="540" />
              <mxPoint x="-1050.1100000000001" y="540" />
              <mxPoint x="-1050.1100000000001" y="779" />
            </Array>
          </mxGeometry>
        </mxCell>
        <mxCell id="xHfEUBMQbysEYosXAuTJ-237" value="NO" style="edgeLabel;html=1;align=center;verticalAlign=middle;resizable=0;points=[];fontStyle=1" parent="xHfEUBMQbysEYosXAuTJ-236" vertex="1" connectable="0">
          <mxGeometry x="-0.9811" y="-1" relative="1" as="geometry">
            <mxPoint x="-1" y="1" as="offset" />
          </mxGeometry>
        </mxCell>
        <mxCell id="xHfEUBMQbysEYosXAuTJ-235" value="Will the guardrails be enough to protect you?" style="rounded=0;whiteSpace=wrap;html=1;fillColor=#fff2cc;strokeColor=#d6b656;" parent="1" vertex="1">
          <mxGeometry x="868.8899999999999" y="590" width="135" height="80" as="geometry" />
        </mxCell>
        <mxCell id="xHfEUBMQbysEYosXAuTJ-246" style="edgeStyle=orthogonalEdgeStyle;rounded=0;orthogonalLoop=1;jettySize=auto;html=1;entryX=0.5;entryY=1;entryDx=0;entryDy=0;" parent="1" source="xHfEUBMQbysEYosXAuTJ-244" target="xHfEUBMQbysEYosXAuTJ-235" edge="1">
          <mxGeometry relative="1" as="geometry" />
        </mxCell>
        <mxCell id="xHfEUBMQbysEYosXAuTJ-247" value="YES" style="edgeLabel;html=1;align=center;verticalAlign=middle;resizable=0;points=[];fontStyle=1" parent="xHfEUBMQbysEYosXAuTJ-246" vertex="1" connectable="0">
          <mxGeometry x="0.0095" y="3" relative="1" as="geometry">
            <mxPoint x="3" y="-1" as="offset" />
          </mxGeometry>
        </mxCell>
        <mxCell id="s6IaYTf70Y3r-B-4iRBA-2" value="Continue" style="edgeStyle=orthogonalEdgeStyle;rounded=0;orthogonalLoop=1;jettySize=auto;html=1;" edge="1" parent="1" source="xHfEUBMQbysEYosXAuTJ-244" target="s6IaYTf70Y3r-B-4iRBA-1">
          <mxGeometry relative="1" as="geometry" />
        </mxCell>
        <mxCell id="xHfEUBMQbysEYosXAuTJ-244" value="Are deterministic outputs critical to you?" style="rounded=0;whiteSpace=wrap;html=1;fillColor=#dae8fc;strokeColor=#6c8ebf;" parent="1" vertex="1">
          <mxGeometry x="868.8899999999999" y="880" width="135" height="80" as="geometry" />
        </mxCell>
        <mxCell id="8zFrDanqbKTmnReo-3Ou-2" value="" style="rounded=0;whiteSpace=wrap;html=1;fillColor=#f8cecc;strokeColor=#b85450;" parent="1" vertex="1">
          <mxGeometry x="-1050" y="1219" width="134.11" height="30" as="geometry" />
        </mxCell>
        <mxCell id="8zFrDanqbKTmnReo-3Ou-6" value="Indicates a point where the use case should not proceed. Reevaluate the approach." style="text;html=1;align=center;verticalAlign=middle;whiteSpace=wrap;rounded=0;" parent="1" vertex="1">
          <mxGeometry x="-912.89" y="1219" width="450" height="30" as="geometry" />
        </mxCell>
        <mxCell id="8zFrDanqbKTmnReo-3Ou-7" value="" style="rounded=0;whiteSpace=wrap;html=1;fillColor=#fff2cc;strokeColor=#d6b656;" parent="1" vertex="1">
          <mxGeometry x="-1050" y="1264" width="134.11" height="30" as="geometry" />
        </mxCell>
        <mxCell id="8zFrDanqbKTmnReo-3Ou-8" value="" style="rounded=0;whiteSpace=wrap;html=1;fillColor=#dae8fc;strokeColor=#6c8ebf;" parent="1" vertex="1">
          <mxGeometry x="-1050" y="1353" width="134.11" height="30" as="geometry" />
        </mxCell>
        <mxCell id="8zFrDanqbKTmnReo-3Ou-9" value="Core decision-making flow. Continue unless a stop or flag condition is encountered." style="text;html=1;align=center;verticalAlign=middle;whiteSpace=wrap;rounded=0;" parent="1" vertex="1">
          <mxGeometry x="-914.6899999999999" y="1353" width="453.61" height="30" as="geometry" />
        </mxCell>
        <mxCell id="8zFrDanqbKTmnReo-3Ou-10" value="&lt;div&gt;Important aspect to keep in mind during evaluation. May impact implementation or feasibility.&lt;/div&gt;" style="text;html=1;align=center;verticalAlign=middle;whiteSpace=wrap;rounded=0;" parent="1" vertex="1">
          <mxGeometry x="-914.89" y="1269" width="500" height="20" as="geometry" />
        </mxCell>
        <mxCell id="8zFrDanqbKTmnReo-3Ou-11" value="" style="rounded=0;whiteSpace=wrap;html=1;fillColor=#e1d5e7;strokeColor=#9673a6;" parent="1" vertex="1">
          <mxGeometry x="-1050" y="1309" width="134.11" height="30" as="geometry" />
        </mxCell>
        <mxCell id="8zFrDanqbKTmnReo-3Ou-12" value="&lt;div&gt;&lt;span style=&quot;background-color: transparent; color: light-dark(rgb(0, 0, 0), rgb(255, 255, 255));&quot;&gt;Highlighted by multiple criteria, could lead to a hard stop. Requires careful assessment.&lt;/span&gt;&lt;/div&gt;" style="text;html=1;align=center;verticalAlign=middle;whiteSpace=wrap;rounded=0;" parent="1" vertex="1">
          <mxGeometry x="-911" y="1309" width="466.89" height="30" as="geometry" />
        </mxCell>
        <UserObject label="https://www.linkedin.com/in/eugeniosegala/" link="https://www.linkedin.com/in/eugeniosegala/" id="8zFrDanqbKTmnReo-3Ou-13">
          <mxCell style="text;whiteSpace=wrap;align=center;opacity=50;" parent="1" vertex="1">
            <mxGeometry x="994.39" y="1353.5" width="246.11" height="29" as="geometry" />
          </mxCell>
        </UserObject>
        <mxCell id="8zFrDanqbKTmnReo-3Ou-14" value="" style="shape=image;verticalLabelPosition=bottom;labelBackgroundColor=default;verticalAlign=top;aspect=fixed;imageAspect=0;image=data:image/png,iVBORw0KGgoAAAANSUhEUgAAAT4AAAE9CAYAAACSrA6eAAAMTmlDQ1BJQ0MgUHJvZmlsZQAASImVVwdYU8kWnltSIQQIhCIl9CaISAkgJYQWekcQlZAECCXGhKBiRxdXcK2ICJYVXQVR7ICIDXXVlUWxu5bFgsrKurguduVNCKDLvvK9+b65899/zvxzzrkz994BgN7Fl0rzUE0A8iUFsriQANaklFQWqQcQgC7QAfpAjy+QSzkxMREAluH27+X1DYAo26uOSq1/9v/XoiUUyQUAIDEQZwjlgnyIDwGAtwqksgIAiFLIW8wskCpxOcQ6MuggxLVKnKXCrUqcocKXB20S4rgQPwaArM7ny7IA0OiDPKtQkAV16DBa4CwRiiUQ+0Psm58/XQjxQohtoQ2ck67UZ2d8pZP1N82MEU0+P2sEq2IZLORAsVyax5/9f6bjf5f8PMXwHDawqmfLQuOUMcO8Pc6dHq7E6hC/lWRERUOsDQCKi4WD9krMzFaEJqrsUVuBnAtzBpgQT5TnxfOG+DghPzAcYiOIMyV5URFDNsWZ4mClDcwfWiku4CVArA9xrUgeFD9kc1I2PW543huZMi5niH/Glw36oNT/rMhN5Kj0Me1sEW9IH3Mqyk5IhpgKcWChOCkKYg2Io+S58eFDNmlF2dyoYRuZIk4ZiyXEMpEkJEClj1VkyoLjhux35cuHY8dOZot5UUP4SkF2QqgqV9hjAX/QfxgL1ieScBKHdUTySRHDsQhFgUGq2HGySJIYr+JxfWlBQJxqLG4vzYsZsscDRHkhSt4c4gR5Yfzw2MICuDhV+niJtCAmQeUnXpXDD4tR+YPvAxGACwIBCyhgzQDTQQ4Qd/Q29cI7VU8w4AMZyAIi4DjEDI9IHuyRwGs8KAK/QyQC8pFxAYO9IlAI+U+jWCUnHuFUV0eQOdSnVMkFTyDOB+EgD94rBpUkIx4kgceQEf/DIz6sAhhDHqzK/n/PD7NfGA5kIoYYxfCMLPqwJTGIGEgMJQYT7XBD3Bf3xiPg1R9WF5yNew7H8cWe8ITQSXhIuE7oItyeJi6WjfIyEnRB/eCh/GR8nR/cGmq64QG4D1SHyjgTNwSOuCuch4P7wZndIMsd8luZFdYo7b9F8NUTGrKjOFNQih7Fn2I7eqSGvYbbiIoy11/nR+Vrxki+uSM9o+fnfpV9IWzDR1ti32IHsXPYKewC1oo1ARZ2AmvG2rFjSjyy4h4Prrjh2eIG/cmFOqPXzJcnq8yk3Lneucf5o6qvQDSrQLkZudOls2XirOwCFgd+MUQsnkTgNJbl4uziBoDy+6N6vb2KHfyuIMz2L9ziXwHwOTEwMHD0Cxd2AoD9HvCVcOQLZ8uGnxY1AM4fEShkhSoOV14I8M1Bh7vPAJgAC2AL43EB7sAb+IMgEAaiQQJIAVOh99lwncvATDAXLAIloAysAutAFdgCtoFasAccAE2gFZwCP4KL4DK4Du7A1dMNnoM+8Bp8QBCEhNAQBmKAmCJWiAPigrARXyQIiUDikBQkHclCJIgCmYssRsqQNUgVshWpQ/YjR5BTyAWkE7mNPEB6kD+R9yiGqqM6qDFqjY5D2SgHDUcT0CloFjoDLUKXoCvQSrQG3Y02oqfQi+h1tAt9jvZjAFPDmJgZ5oixMS4WjaVimZgMm4+VYhVYDdaAtcDnfBXrwnqxdzgRZ+As3BGu4FA8ERfgM/D5+HK8Cq/FG/Ez+FX8Ad6HfybQCEYEB4IXgUeYRMgizCSUECoIOwiHCWfhXuomvCYSiUyiDdED7sUUYg5xDnE5cRNxL/EksZP4iNhPIpEMSA4kH1I0iU8qIJWQNpB2k06QrpC6SW/JamRTsgs5mJxKlpCLyRXkXeTj5Cvkp+QPFE2KFcWLEk0RUmZTVlK2U1oolyjdlA9ULaoN1YeaQM2hLqJWUhuoZ6l3qa/U1NTM1TzVYtXEagvVKtX2qZ1Xe6D2Tl1b3V6dq56mrlBfob5T/aT6bfVXNBrNmuZPS6UV0FbQ6minafdpbzUYGk4aPA2hxgKNao1GjSsaL+gUuhWdQ59KL6JX0A/SL9F7NSma1ppcTb7mfM1qzSOaNzX7tRha47WitfK1lmvt0rqg9UybpG2tHaQt1F6ivU37tPYjBsawYHAZAsZixnbGWUa3DlHHRoenk6NTprNHp0OnT1db11U3SXeWbrXuMd0uJsa0ZvKYecyVzAPMG8z3esZ6HD2R3jK9Br0rem/0x+j764v0S/X36l/Xf2/AMggyyDVYbdBkcM8QN7Q3jDWcabjZ8Kxh7xidMd5jBGNKxxwY84sRamRvFGc0x2ibUbtRv7GJcYix1HiD8WnjXhOmib9Jjkm5yXGTHlOGqa+p2LTc9ITpbyxdFoeVx6pknWH1mRmZhZopzLaadZh9MLcxTzQvNt9rfs+CasG2yLQot2iz6LM0tYy0nGtZb/mLFcWKbZVttd7qnNUbaxvrZOul1k3Wz2z0bXg2RTb1NndtabZ+tjNsa2yv2RHt2Ha5dpvsLtuj9m722fbV9pccUAd3B7HDJofOsYSxnmMlY2vG3nRUd+Q4FjrWOz5wYjpFOBU7NTm9GGc5LnXc6nHnxn12dnPOc97ufGe89viw8cXjW8b/6WLvInCpdrk2gTYheMKCCc0TXro6uIpcN7vecmO4RbotdWtz++Tu4S5zb3Dv8bD0SPfY6HGTrcOOYS9nn/ckeAZ4LvBs9Xzn5e5V4HXA6w9vR+9c713ezybaTBRN3D7xkY+5D99nq0+XL8s33fd73y4/Mz++X43fQ38Lf6H/Dv+nHDtODmc350WAc4As4HDAG64Xdx73ZCAWGBJYGtgRpB2UGFQVdD/YPDgruD64L8QtZE7IyVBCaHjo6tCbPGOegFfH6wvzCJsXdiZcPTw+vCr8YYR9hCyiJRKNDItcG3k3yipKEtUUDaJ50Wuj78XYxMyIORpLjI2JrY59Ejc+bm7cuXhG/LT4XfGvEwISVibcSbRNVCS2JdGT0pLqkt4kByavSe6aNG7SvEkXUwxTxCnNqaTUpNQdqf2Tgyavm9yd5pZWknZjis2UWVMuTDWcmjf12DT6NP60g+mE9OT0Xekf+dH8Gn5/Bi9jY0afgCtYL3gu9BeWC3tEPqI1oqeZPplrMp9l+WStzerJ9suuyO4Vc8VV4pc5oTlbct7kRufuzB3IS87bm0/OT88/ItGW5ErOTDeZPmt6p9RBWiLtmuE1Y92MPlm4bIcckU+RNxfowB/9doWt4hvFg0LfwurCtzOTZh6cpTVLMqt9tv3sZbOfFgUX/TAHnyOY0zbXbO6iuQ/mceZtnY/Mz5jftsBiwZIF3QtDFtYuoi7KXfRzsXPxmuK/FicvbllivGThkkffhHxTX6JRIiu5udR76ZZv8W/F33Ysm7Bsw7LPpcLSn8qcyyrKPi4XLP/pu/HfVX43sCJzRcdK95WbVxFXSVbdWO23unaN1pqiNY/WRq5tLGeVl5b/tW7augsVrhVb1lPXK9Z3VUZUNm+w3LBqw8eq7Krr1QHVezcabVy28c0m4aYrm/03N2wx3lK25f334u9vbQ3Z2lhjXVOxjbitcNuT7Unbz/3A/qFuh+GOsh2fdkp2dtXG1Z6p86ir22W0a2U9Wq+o79mdtvvynsA9zQ2ODVv3MveW7QP7FPt+25++/8aB8ANtB9kHGw5ZHdp4mHG4tBFpnN3Y15Td1NWc0tx5JOxIW4t3y+GjTkd3tpq1Vh/TPbbyOPX4kuMDJ4pO9J+Unuw9lXXqUdu0tjunJ52+dib2TMfZ8LPnfwz+8fQ5zrkT533Ot17wunDkJ/ZPTRfdLza2u7Uf/tnt58Md7h2NlzwuNV/2vNzSObHz+BW/K6euBl798Rrv2sXrUdc7byTeuHUz7WbXLeGtZ7fzbr/8pfCXD3cW3iXcLb2nea/ivtH9ml/tft3b5d517EHgg/aH8Q/vPBI8ev5Y/vhj95IntCcVT02f1j1zedbaE9xz+bfJv3U/lz7/0Fvyu9bvG1/Yvjj0h/8f7X2T+rpfyl4O/Ln8lcGrnX+5/tXWH9N//3X+6w9vSt8avK19x3537n3y+6cfZn4kfaz8ZPep5XP457sD+QMDUr6MP/grgAHl0SYTgD93AkBLAYABz43Uyarz4WBBVGfaQQT+E1adIQeLOwAN8J8+thf+3dwEYN92AKyhPj0NgBgaAAmeAJ0wYaQOn+UGz53KQoRng+9jP2XkZ4B/U1Rn0q/8Ht0CpaorGN3+C2RzgxI8OOU4AAAAOGVYSWZNTQAqAAAACAABh2kABAAAAAEAAAAaAAAAAAACoAIABAAAAAEAAAE+oAMABAAAAAEAAAE9AAAAAGVFF1UAAEAASURBVHgB7L0HuGZZWee7vpNzqHMq59BU0910A01oQneDpBYUUUSaEREB5wKCYcwjzvA84zzPXK84ztxruOPVO84wiuI4ihcFkdBgIw1NExo6V87x5Jzu7/eub586FU6ofKrq7Kp9vv3tvfZKe6//93/DelcpLW1LPXCePbBp06a2iYmqeyYr062lqanN3L6WfWUqpZY0lRo5rk+pVJPSVBXfKzlf4lwFe7H5feY2NePLJPdMcccEeYyTxyjXhvg+wNlejo+wH5gqlXZVTKTvVlaOf3H37t3dM+5fOlzqgXl74MwXcN4blhLcGD2wduPWVwJq95QqSrcCOFtAplUAURtAVEcPVC6yXhAkh6lbNy/0YUBy59Tk1HcBxy8e2LPj84usrkvVWQQ9sAR8i+AhXM0qrN68eWPVZOWbU2nq3qmpdAsAshoAaaBO18u7AWaXBmnToVIpPZamSg+MV0z8z0O7du25mv2+VPbV7YHr5eW+ur14jZS+cuXtjTV1gz8OpL1pamrqDqrdwb7Y2NuV6k1YYjpRKpW+BaP969Hhhj85cuTbA1eq8KVyrm4PLAHf1e3/y1r6unVbbkqVpX9JIa9icN8E4Kl/W3rm5+51NYsD9M7TXP5smpj6L/v37/R4absOe2BpEFxHD3Xbtm21Q+OT7y9Nlf4FzbqVHSPD0nYRPTDEvegKp/60vqri95555pmRi8hr6dZF1ANLwLeIHsaFVGX9+i0vnKwo/StMpq9AmbWSPJae6YV05Pz3TNGxRyZT+kLF5NRv79u382vz37KUYrH2wNIgWaxPZo56rd2w5VXopj5EkrvYtbJe8a1zZWfqXNmRlnW2p/bOttTa3ppa2ppTc2tTampqTA3s9Q31qa6+NtXU1rBXp6rqqlRZWclekTA0sCFdYlGZnJxM4+MTaXxsPI2OjqbR4bE0PDSShgaH0mD/UOrvH0h9Pf2pt7sv9XT1pK7j3enk8a50/Mhx9hNXvO3lArEip69Q/984sHfnZ69WJZbKvbAeWAK+C+u3K37Xuk3b7gUlfp2CX8p+2UXYyqrKtHHLhrRu89q0Zv3qtHrdyrRyzfK0fNXy1LGiI8BL4Iq9DGK5U/giN5qXeJbvzTdN3xoHXlrgJmgeP3IyHTt8PB05eCwd2n8kHdx3KO3fdSDt2bk3TQCoV2BTJP4yaP7v9u9+5oErUN5SERfZA/HKXmQeS7dfph7YsGHbrXjzfgQMuZsidDG5LNvKNSvS1pu3pC3bN6WNWzek9YDd2g247Z1zmwlqBfDNRCqux9eZ6c6VUfnec126hOcO7D2c9gmCO/amnU/uTjue2AlAHr2EJZyV1SDt/xKc9uf37n3mu2ddXTqxKHpgCfgWxWM4rRIVOA9/GJ3dTwINs6HPaTeczxfFz1uee3Pa/pxnpWfdsjVtuXlTal/Wej5ZnJ22dC7gK5LNBMAiXfFZpLmyn10ne9LOJ3anpx7bkZ589Kn02DefCLH6UteClh9GJ/iHOFF/mLw5XNoWSw8sAd8ieRLrNt304tLU5Eempkovxpm46lJVq7G5Md3xwuek2+68JT379u1pG0B3SbbT3pwzgWzGxbg043umg5egCpc2z2cAwse//WT6ztcfS9/62qNpoO8SuvRNlcZLpamHpkoVP79/99MPXYLGL2VxkT0w8+25yKyWbr+QHkB392F0dx/gXp2JL8l22523peffdXu6/YW3pe23br0keZ6VyWks76yrp06Evu/U10t35KtbvL6i65nge3ElPfndHenbX/tOeuQr3wYMv3NxmZ1+9wl0gf8XusAPn3566duV7IHizbmSZd7wZTmDorqu/w8YuG+hM2ovtkMaGhvSi1/xwvSClz0vPe9FzwnL6sXmOev98cacC2TyqzQ1Ncm4LoHlSHaAXlVVVZqYnGFgWAgQngaq5HtaccUrW3xa00sPfDPbr0X5G199ND384DfSQ1/4WhocYAbcxW/4BE59fGy46b1LM0YuvjPPN4eZb8/53ruU/jx7YP36bVunKqb+iNtezn5RU8V0H3nZq+5KL77nBen5L7n9PGtyEcnjjTkNiciseI0y4MW34tQ5izrj4lnZnXViBvh57xn3X2bgO7MJj/zzt9NDX3w4PfjZr4R7zZnXz/O7vwr/VJosvXvfvmd2nOe9S8kvsAfOfIMuMJul2+bqgQ0btr4MovOHDOebSXfBfa5P3D2vuzu97HtefGXBbmbjovYCEwdlfJoJU17WN69Uoa9e9tGTAc65nckCT2N85Tun05jXmflZg5m1mLO0S3pREHzwcw+lL376S+F7eBGZ28InaPpP7t2748GLyGfp1gX0wJlv0AJuWUqy0B4A8O6cLJU+yqDczj0X3NcvuueF6d77XgbgvSgcgBda/mVJF60QZDjgA4yb3gS4CgBP4POfwGciv0fi6S44oyumQa2c1XkBn3lpMJ1RkXI2V/JjYmICAPxqeuBTD6avfvGiJnXQkNKTFVNTbwcAv34l23AjlXXGG3gjNf3ytZXgAM8hOMCfUoLzZS+oj9dsWJNe/f2vSPe+7mVpxerOy1fZ8805WiPIcMAHVuhyDn5mhlfBzIwKLwfz83OGji+6o7infOt0Hjlb88n7jHTTaTxXnC8+rz7wlVsSH0cPHU8PfPrB9I9/+4V0cO/BmZfO59hO+C7BEv4FwRIePZ8bl9LO3wPFmzN/yqUU8/bAms2bt1dMlj7GwDTk0wX17Uu/56706je+Mr3wZc+dt7xzJjizVIfPbJtp57o+233l85ntmYm6vZRGRkZir6urTe6eJJApRRBIeXo7o4JR/hnnSoXL24zzZwHfjGuLgPFNN++Mg689+M30j5/4fPry575yxpUFf6WHpr41WTF1/8Fdu55c8F1LCefsgZlvz5wJly7O3gOd27c31w2Pf4IU97Kfd5/qVPz6t7wuvQbAm33GxOzln3YF0CCaCGPFSO+5KkRrmZGEa2URNFCPdKUp7CyRhGvTbCvfPjHpOWLHq6czW/9wWFFCpGW6mJbbCtwOR4cnUn/PIHNup1J9XWNqbGoKi24qwfaIAzo5NZ4qqyr4nIjdebuF5ZdoyeQPS6yozFPMqk03GXN4FZ3dnXqWGaTidAbaorbR1lxN2mJe1i832dO53rah6BPzKsA1pysnz1+m/9LauMCfyGj6wnkfOIPkMwDg33380xfqLG0NHhiuq3rj8Sef7DvvCizdcFoPnPt5n5Zk6ctcPbBu49b/zKB4H2Bw3k7HirPf99b70mt/4JWplon8l2QD1AKcAsl8vAz4cwJfWTwM4LPqjKtgWqdGeByFYSID3yQA5V6q4jv/KgP8ptLI4DiBAxiLE1WpvbUzNdQ3pSGCDIyOjabauopU1+gyGuMBeKUKcgV/JiczCwwwsiABtEIwJKUgCTDyJak7swpRImg2yTlqYW05zwXOlQT5oo3hRhMZxn0m9FvkoP7RZtNH8tAztzMHQ/RjnOTP2cnPvH1B30dGRtM//M3n0//355+6MDHYjiyl39+/Z8dPL6jApUTn7IEzn/U5Ey2dPLsH1m3Y9naU97/LeGg5++rcZ266ZVt649ten16BweLybj7ecz1ial2wPgADyCFdGQhnVEgsyUBhHqQBaISMCe6VUZmFbG1irJQGe0fS2PBkGhtldaGK6lRdVR2gNTE1kuobU2puaUwVML4Qe7lZUAlMtTxBJepRGYfMYAlGJisLfaGAB7sU6AL2BC6Py02LazaJc9Es82Qzf/MomKIgG2AWzS/fnJNelb9fwBDyiT/7u/T0Y8+cd/nUvhf96k/t3/sMxrOl7Xx74Oo//fOt8VVOXzZc/C+qcd5TIm557i3pTT/6hvSSV7zgMrbCRyqYiSb5b0aWosj8yEMcNh0M6tT1fM+pl4L7OQW2RV4CpOAh3xJUQCPul/nVpLGRyTTQP5J2EQxgaGA4tbW2peqaaljfMIA3lpYT0aW1jUXYQCYZm47NFUSAmRiXCQqnOe8MwwBeFGDZisZcB/zGJ8bj/mB5GFC4KYDMQytqXQP4yogY+kWcpxGaTRB5xKdlhSqA0zO3yC+yNdkV2/75Cw+nv/4fn2TO8GMXUuYODCA/uGQAOb+uO/WOn999N2Tq9Ru2fowx5WwLh9qCt2ffcXP6oR97Y7rr3jsXfM+FJ6RqDvyMAGRToIE5+rgLMPRTmHEDwIqRzr3TojHHaNgy+Il+5usHYGJ6wUnpeHhoLHWd7CVe3iCzGobTyNBoAFpNTQ2x+RpSbUMVoDXGDA6ktMpSxOhTr1kp+BGfrwp2aL7G5AtRWqhCxDV2X31jfagBSqCbQAbKhkpvAianHtAGVEyL6NbdR2M92e0DPvyEl/JZZrXRxvIj9LqFT/+NQ26LC/lLXMxpTp249EdfeeDr6a/++yfS49964nwzn6SJH9+3d8f953vjjZr+jKd7o3bD3O1et2nrfbxYf86rf15i7ZZnbU4//BNvSne/+q65C7ikV8sDPwazwAA/EwAKMMhIwFUffXnwB/DxlWTBvPyc5PrEVAQFHWKK1tDQMCLtZKqEVtUKeNwqOBkstLe7P50gOOjQwFhqbGxOtTV1iLxjqQbG1wbLa2puSoPDg+nEyeNpZHQEIKxNVVyrra1NHZ2daVl7RxqD+R0/fiL19/Wl/oGB1NvXG6JyU0sz0WPayLchNXJcBxC6KzbL5dxKFYXVGDbKqQkMLBPUXRG4CkNJdU0VaeR9AC/9EaAmMLLlvrF/zty8ntPYMZkZn5nm8nz/0j9+Jf3l//vXaedTu86rAGrbS7Peun/3jk+d1403YOLiyd6ATZ+/yevWrYOW1P4dKe9lX3BfGZn4/ve8Jb3uTa+cv5BLnUIRMcRERb+sK8unOB+DPTM9QW5KdiSIiWIAWgXXK0vo2cbR1cHa+rp704nDxyJSid8FjCpYVz2sSwvtGNGSBwCpkeFR2JodBIMruVemwUEtvABhQ0OAWzXGGwFtbJx8uL8Gd5fa+rrU2bk8tbctS2NjY+nEiZNEW+7n3uE0NDwEUJ5MXV0nY65vLbNWBMFWQHDthvX4Nq7ActyIIQQgA9TyZrnD6SiRmXt7+wMcW1qaUsfyZamhsQ6DiX0j8GWDSfBA2GsVwOgmK5VVZsZLWlLmHwOB0f3Kbp/+68+nj/0/Hz/fKNNW9IE0MfL6/fv3GyB1aTtHD1zUfNFz5HfdnFq3YetPMnK+QIO2sTsKFrS9/X33p1/5Dz+Xbrply4LSX2iiPAxPCatFPmLbZAQF0MiQXURizHJBNhcDGZwQ4CoBvfAtht1VCIJIg1OjkxgqBlPX0ZPp8J6DabALAIFBVXGthvuryaUaBlmC7U0AVpPsEq8qyqqtgskhvlYhoo6MDMEA+wG0UTAVyy+M0WNdVmRiusJUV9Wk6srqCDk/0NefRvEDVFRtaWpmInNFGh8ZS6PcNwkQS1qHOe4H0AZ6AVsArgojSh1lTsHuxqh314medHD/4dRzEgvzZEWqAoRHCGM/CmjrflMZoFwd7jBKzZ7TIKLluDCk2I/2VPHIF/zgiwdwCT+33bw5fT9W/6rq6vTthxccIcYqb+Ld/fmW1mVHe3u6HrmEVbpusrqaz3VRdmKwvIq6LzDSXnQ+FXzND7wq3f/uH7pysyykcdNbVuz7VcNBWDcFOeU+BrEDXHByQPtPERUFWaQzVkJFRU3o5HpZz6KHIJ2DRCMZ6R9Mw8SkmwR8EBRhgaIieeCXV1EJYwI5KtS3UcI4wGOWUwBLbW19qseMOwDj6+3pDlCpFNxMADg2NjamEQBwDDbYvmxZam5uCSAcGR5BJK1BTMbxeYx1HilbNmlkF40krtsxjJjcB5gODw8jLtenbc+6KW3dui1VwQZ7+/tgjF0A4HiI201NLcEI1SWehDXu2rszHT1+JK1dtzZt2raGNUGsEwyPn377bIJfgPAzjD6zJ2lr/FhEs/OJq/jX2SAf+6O/Sp/5m8+eXy2mSl9Nk8OvWGJ/p3fbzNFz+pUb8Ju6PEbB/6TpCw7zfjPBPd/+vremO17g7LQruJWfnECmyBb/YVb+07+upMgK1qirk0Wp1w/QA3BkahN8yrrgQTCuqXTs6NF0YN9+nJB7g/klWNaIwIM4q35rkoWAMsxxT0UGI0XNmoY6QBDjBKA3TllVMLC6uoZgdwODACdlTLAP478mINch+qq/G0Bv2NLamlrZJybQvlGnurq6VA27GWGBIR2Wq2GPzc3oDBGLK2GKI6QZGAJQud/8Vq1elTZs3ICxozL1oBvUONLY0FjOtw2wrA0w1TByAvB75BuPBADffPvWtGbDCuCurPcD/MYnYIWI73ZkMSimjTzlll/BpztrUd96+Lvpo7//5+kJgqaexzZIE968pPs71WPFMz515gY9Itz7n9EZb6X5C+oTF+N518+8I73x/vuuSo/JtPIgzdUVVMqngs3pH4ywh7hXg6jHqmUDrFiGODkEM9JPbhRRdBgQERDHEAdPHEcvBuhNwcwc8KOwKtNXIGPWwcQC9LhvEsCsEFHBCHV0Na6ihsNyHfsYwDc6KhtUgwJYqjeE5cnYwmLLWa24JzBiyMIaMIQIfFX0paxUEXkcZWFfTw/MryZ1LOuAFbYHeCrmjmAwkRWaxwiArAgoo+unbT29vamuti6tXLUyNQCuuspUVqK7oy6u+LZ8xUpY5kTauWtXGk2Dae2W1ZH3ROIHABY7pe6PNgVjDvCjP2W40RJbX+7f6OSr/+cTH/tU+uP/9N/iB2KBteFppD8nDP7bFpj+uk62uJ7mVehq/PJuQtn+JV4K16Rd0HbvfXend7z//isn1p6rVgBdHpRepPbxn+Gpvg5cGhkeR2ztT90nMFCwCllfVy8Gi5HUCHtqqMPQ0NdNmsHUVIeVFHcSmdkgyziOwqQ0dEziM6cFdhImpK4weCXAN8E5ZE7+A0SIrCMAYSXiaX0jBu/KGsBOdxWmrGHJ1Worg3N6mnq0MVhjJWV1d7M8ZFcXDLAC4GqgPorHMEf+aRQZGOnje31ajuFDYFQMVuwdhxnW12PdbWjimPpZPgDo8pOjgKKA17m8I5jiIMYRWWENYNjU0gbINsWxEvdwaSi1rmhJKzGQVNXgrmOHsQt6oRPgbwwM+tQ6CXqLDfh86oq//+33PkZEmC/5dUEb7TqCTvRu/P6eXtAN12kif5pv2I3pZr8I1dAZuXkhndDOGrIf/NB709ve82YG9oKl4dOzdkSpqY9Pj2OInZ7mtG85YaSK+xBmsWKGI7CSGVuIZBNYWgG9yvGa1HW4F2fYx9PXv/JIeuaxp1M3ltkhWNQkrMmJcaWxkXTi0KE0IOuCQXWia2thbq3i7xhMT9G2me8tgFczomM94FEHiDUARurodEWprK6hDhkQxhCLB4dwa0HcNFBBLdernaUhyggm5Od5rbxheBFAAa4xQNQdXA1x1mvDMNFx6lcDWNZTpnk5N9emmmct4m8l/TA1SV1H8Bvs7w0x2XSCegk2OjI0EMx2XJCG5Wk42btrb3rs0cfS8OBIam8HCGmLDNOpgq7zO07Z4Sdom6KzLdEDPlUbcJx/avLz4AJbcew9HJ/6Goc5zeX76zv4UkKVrdu8Dt+/J2nb8EIKa+Kdf39L27IhDB9fXsgN12OaGxb41m3Y8mlA5708VN/webfXvunV6UO/9QvppmdvmTftnAkEr9M2R8tcWx5ukSKSZtBU3IOkASpcn6hINYi0BkE5fuBkepQFc7758DfTYdaXHUVf1gSALENX1gj7QsGXRmFPg709GeQY0i72rT5NcXKQa7qWOIqFNaekhRUW8FKcttw6xEsZXRuA2dGxnOloraFPc0FwQU4A7SP/48ePxR5uLOSpHm8EJmY+6iK7cFcZRA9oj1QCbiMjwzG/F5tJqpUpUqfcZC3UGGUAsXFYnmJ6gBv3jgK4pmuAMVZx4zh5jHF9SibK3XLVEOcxevT14iOIVXgEtjo2jgWZcmWkGk6cGqcuUtCzjbZf8ZvmxK4cnJ8Ef+3zcg/FUf6SAZPj8ldSXJlt49b16TXM9+7rGYjlMxdQqu/8a1pa218K+N2QU958RjfUtmnTplXjU5Wa+FcvpOGGeP/ffuldl84JuQC+TCsWUoVTacr3ChohlGFNrSoBEERHmWTKmD53R/cDNodOpr27d4ehQq7SAlA14wBcYmBPwKZkWbqOyMDUwdVhoGhCFHTIjiI6ikQ6IHsgKIF+ead8Z2vUIirXwZgUO6thflpohxFHB9G16Yg8iO6wC1H25MmuEEOrYGJ1pJVhqaNraWkJdqXD8hDAVY2oLJNUF6iI20JdZXC1GDuc/eF9gpB1G6Xutt7vArQGmppao8E0U/vJAFx1lzEVzk4i8EFr+zLa2AKbHEfMxk9wArBsqE7LlrenNRvXsqbwttTc0YwxGQMOARjMPww/gK0g7WwSDgA8OyNvMXD8zoG9lB2hOea76WamLe65Ep86P//fv/nH5xMS/1BVaeL5u3fvPnwl6rdYyrihGN/aDVu+j6H7z3R+20IewD2ve3n60Ed+kZXKdOW7VJtDJobNgjIMfCzfEuwi2IaDEBCpxPVjnIGKRHdg94H06CPfTl3HugG65tQE2FUzcOtQ8st+ZEagQcymCPEOlqSFtQl3EsPEj8CIRsfUc1FYfAfMwu0Efz0BE/AbQ8c2hviq0cJdY0MfDHEY3aHfmxCPW9ucZYGxQ9ACFCthVBNc60XUFgx1UB4CdGMmCHnprjKEeC0ACjI1pFenqDGEyoQYqn5Q3Z/Ap9O0PnfSMBmkbFReV6VBhePRYHwCO+yRtIrU+gsK2DH/VzE7gBrrMLrGIfK1vm1t7WEMmaSN5qlri5tzha1XbHzMOJzxGGXDRRIP4knlE1f478Yt69Ir33BPOnGsKxZRX0DxzfyM/HRza/s3+3q6nlpA+usiyQ0DfLiq/A6v4+/w1DD1zb+995ffk975gbfBQOrmT3xeKRxQ5VEy/Tl7BvoVm8yhlEUsRC5OTgF4FRM8PnR7rNoK8B1MT373yXDu1Ygh0E3B7gQ7EAJgwAEZvVkTzErAq0b85WXH2skMCMBPo4OzHroBqH5FSEVT3Uy4H/7DTlYwn3HBBVbnNQFLa2rM3ii7q0RNYWNaZXVFaQMIawDB7NIyAuPqSX1lXaCtDsurn4Cd7ieCjGxNRirrCv0b38OnL0CXc6R1E6R0jo5QVtaXdgqIVYitNQC7U+ZkjPot9uEC04NfofmOyXoVmQNwFXlLsNDW8CkM8Zrsg+lpvfanoEA1vhVPzvJnHufv5nT2ea9dyc131nVZnOXy8IML8l/Gl730thZM6L3dXTfEdLcbAvgwYsjyfpj9zHf1rPfRkFG//tu/nO6653IFFJg5NOatTtYbUW3/OaVM0KswcChgp7W2G4bXi+V2oBuwGoARIXKGjgsgKKmwB7g0BiiuypY0QHSj6+rFEtqHSNiHo/IobE9gEsyU6qQvgqPuIp4fJQ+BcAgWNYgeULFWi2kRpFS2py+e1tVe8u4BPLW2ZlcWZmeEcYTZf7Cy4TIT06F5OEAIYKa8EuKs8fu8vw8wDaZG+QYwIPtpgNP1RX2bLFBQMpCB1mH1i95jmHtZWlwD/ARJDSsySh2fDbAgIFYDjjJK9YZ9GD8U0ysRi4OpAsBCfXbS5kfGhPEE+HALWbZ86NeZ/0LWzdeu9t9n3bI1uV7Lzid3p5PHTs5XHV/GuzB63Ife74/mS3ytX7+ugc/1a9s7mnbwXi7Iu/gNP3Jf+rX/4+fTss4FScIX+OwzW8k3O6BObcU3B5KD202fuIhQzIAirD1BAtDnEfPu2MFj6ZGvfj09+o1HAcATnGPmASKfIFcDONSjsNdAUIfhohAfzV8RcgQGNYyYerKrOx08dDgdOXIUptcbYCW7ERjU4bn7PYY9n/rYqcOTNQlsMimNAwKaOkFnawgi4WAMQMoWBUdUkbGZV8wLDuDKQKkbioAlkCn+ygYHEYftg2Z0gQKRABwRXMjF8mR6OkcLdkWEFyO1OA847xhRAFHz6iMvZ3woziviBwsETDVVmI+O0tahn3p3wUZtl3rGOt1rqG803udhjXws8c/POOXfU2cEvTjhZ/E086mr9dd3+XU/+CpUDf3p6e8+s5BqrGOq27vr69b/l4GBIyp6r8vtugU+17CtqB59mrdy+UKe3Ac/9L701nf94EKSXmSamcBnVgwQB1SAgoPLPbMR9W0OzHDuheVVlF1WZHg7nnom7du1L/zzSiCLgY2dDzuKb94EFkvFRQFFuiTzUpTVZ669owMRty3cURRbBUJ1dN2IgQYFOHHieIi7hfU18Jc8BBxBSFFZp2HB1E3AEhCLPb4DSLq3CDoyuGHARBgIkISFmUbGOEhkl7ivDJCKrLJH5erqag0eTXGPBpQAIfKwb2ScvViNzde2cRIRXJAFyMhb0HOGR7BLxF/bOEYZId7y3fnFsl99Fp3iNumUOwD6JO3fvXtP6BM7l3eG+CuTjVBZZSyzerHbeFqV61WGQ5ExHma+5t/FsrnYfOfK5awA9/D8VSql1sqqsQ+2tnT8RW8vFqrrcLsugW/Dhs2vAS0e5HnN62y3Hh+of/M7v5JefPfzr9DjPQP4HCsMIBXqyrWuWuZAi9XLOK7Ch6ya6WAlMKzveE/aD9jtfmonod678MGrJ9Q7riSAyRQDv6f7RDpy+EA6evRwOnbsaDp85HDaf/BgOnT4SDoJm+k3vBTsZpz8De3uuhg6CLfqjoJldYB5sAcOHEj79u7hcz/5HAEU9asTYEo4GjdEWsHP7yFeAnqimoYDAUEQErwUK/uYJaJo3QObUtR05oTgpiOzoq7GB2+xrQHOiK2KmxojBD3rFFlyPgANx2nFYQFTY4egJNCUYLghqgeQZ7FcQJ0CJAV866RYPeB9AjKidK/9gWiugUTYUtcoazxx4kSw1mX8QHR2uLqdTJcfHwDWH6D4UcrNjDZz6Lfp3bzia9Q8Li6aP1tv3pTufNnzw+evl8g782xGH3svAWUfQje6c56019zl6w741m/c9n6cSf+UJzGvEcMVzX79t38xrV634Ekbl+ABB9KRD0M6fB4c2ir3jRnHsAmKFUMxjivR6emqMjkygT7vZDq4e3/qJZCAoaN0EB4GALq7T8JWjjFoBbuDAVjHiX0ngzl85Fg6dORIOnz0WNqzb396eseOtHvPXvzrjodFc5QgBDWAQ2cnTsyEfarH9cRJvjK+fgwC3V0niHqS9wEYnPN8dQyWUepbJwgqQupmohhcRDmRrY6Qt+KvABMiJ2AowAt6gol9UACJfSBwer2GeH5NuqcoQgOS/hC4xypugKXuM1yEDSq6wgaphw7Edp33K3arl1M8FjzDugywCV72rCJuwVAtc5plW2fu7QWoZZzr1m/EibstQDyCJfBjIfjFj5T4Rrmx+UH5/Cl/ejY/V48W09a5Yll6xffenQ7uO4LEsH++qlXSrz/a2tZxvLfn5NfmS3wtXb+ugI91MP4DYPLveQBn0KqzH8lb3vmD6QP/+icZGFlkOzvF5T7jiDs1OGRJwfQY4PAPrrHLhBBvqwmxNIEP2tjACLMztOgSvQQRUl+9xx9/LO1k9tGhQ/sDpAwHlcU+55+qmGegUswEecV3xqbM7giM8CiMsAtJZgRR1zHrTI01TPxf3tkRkZPtRIFVhtSjXx5+d1j9OCZuHkxO8IgAofoIUpasTkuvRhINGvrlubvAjgFLva5eMIBMxKHQMJ4oerJn8VwfPe5DlPY+p6u5qedzCpz6RXVyMU8XXVwt5VQST8/7ZYE6S1sHAa5K9gg41jMlrol5wW1YsZsBVOf0Ote6YJn0cuhRfQZaddV/qu+rheG2tXVIZ6lBFvdjhTdBjWdXiN/5KVqi6dzd8tl8vLj++s7f/ZqXwHYnmOHzxHyVs0Gvb2ntqAf8/nG+xNfK9esG+GB6v8fL+LN0fPHmzfoMPvBr701vfsf3z3r9il2YUdOCjRhVxdXGBIdRwG4csBvo7ktHDmCE2H8Ittedek50p/379gF4OzBO7Ed8M3wTLAcHXLhhgEnMYSUM/JDioQwHqVB3kbb2dkCtMTpJQ4CiXh+zGY4SncXZFiAAANGc1qxZndauXhO6vJhuBvOaAuhML+tTBB5Cj6aurApwUWTWgKCPnoxOPaCsTT9BY/Ap4iraCmaKnR7Hd0DKuirKytpMax/IHjWSyPisdwuuMeoY+wFtHaS15uoMLesyH30EFVN1e5E6yvIKtieI1iA+63BdT9isBoDaPOM8ecji3ATWdpydW3DBGaKeJ+nrFub5Oqe3utahwgPzP2VmlpntvXFzXPCB5ofKz0w+vYj/3vGi21LHis701S/Nq/cT018O81sJ+H1yETdpwVW7LoBv3cZtH+Vtf9d8rfaF/9BHfolfu7vmS3qB14sXf+YnWcVXWQLHDJoYEhzLNFxAQoYXPnlMmpgcghENYHXtwsGWGRjdB46mY3sPpIO79qSDe/alowcPM/fUKCo45jL4nfEgozHqsUE3B3DLUJfXDVh29zBFC9+8QcBFdxSBJWLeycYQ2wSGKgBBcOmF1XXh0GsUZMU9dV4GG9Ah2Zh5GkYUPQUpdXWyyBHuOwFj9D7ZUiuMykABApRArsgpi6siL0FGNmXwAwHTqXHDiNNZxwajE0zIQ1FZAJ1wah3iswDnvGEjOSvihlGD+wQp5w/L7k4itncDfLajnrKta1hvbR/lanUO6y2AK+gKvuP8EtieeuYitzJ31+l3Gn6asCSHmM2zMVqNhpY22t/K+SoBkvrpUpMhz2ean6vfC2k32hDn87X8/H34bsVn/pavlY+vwofBTm9+znaMHl8P1jxPFV7Y0tZxE+D3V/OkW/SXr3ngW79p69/Qyy4ANOemEePD/+lX07PveNac6S7uoi/1zL2cW4i0DAIGh+p4twA93FNyrDzm3bI04whLNAp4Yz2AFevUntiHkWLvodSFnq4f0cugoIKDPmjq4rSsqqPrAeROYOzoYa5mP355YcQg6nAECCW9oqczLnQvUUzUbcR1b8ewZoYRJWqEuEdaLaV9BAGV7RjjTn2bU75c70JfO0FxiLzjPoBAUO3S6Zl71Ld1Ll8BcDRRJ6LCHKfe5KF4Ktor9mZAlO15TmdkfAZpSwOAZc/FXFwMGDJXwcuYf4Kp9xvKSuDziyKrPnoCtrNBFDsVYXXB8R53wZaKhkhuHRSFdbfxx0HgM0Cq/oq6zTRQZ/voOMFMFf9tTz/qBHeDHFQDkq2wzsJ5WmOOztXxRMsgF8BnRdlPZ3wz3wmPZ2zxbvj9jPMzklzuw9XrV6YXvvzO9J1HHkOVMa/R43beh+ej8vjY5a7X5cz/mgY+HJM/R+fcN18H3Xbnbenf/MdfSqvXrpgv6UVeL17wM7KZ8U4LeAF2AX2IdejsSujxxoiZN4po2ofhousYhgnA7uRRmAwGCqdVmYUe+YKEMxqccL97z5702ONPxOcxWI8WS6OMuFUwqGVYFbAtGZTjUSus1tYBjA3mqf5MMdFrgpZzY2VYirbB/sjTgKGGlZIpCiRgFfkIotnSKc1RLHe2h/o1wWUY8dq6yDIVSwVaQ1Gp49PKKiOsg6XKxgRToy47c8Lvirx9lClbVD/n7A/BUnZovWWWiur62kVbKLMaBtbS2hIs0PsL/Z39pEgu2NlW/SEVpWspW6ZscAKZ4PFwY9mVduzYSV/uxq+RdUbQScogZbgy1BH6zbSyTsVc+yMonkyVPrCOGbwsg6cl/sVWvBMzP4trfHo6tumD4sQV/Wxb1ppe+qq70tOP7yLc1dH5yt6Oo/O9ODr/yXwJF+v1axb4yrMx7p6vY7Pl9hfQ69TPl/QSXC9e7jOymn6nC4bHp3HzcEaewkA51Iueqw9AYgL9kf0H094du3BKPkqkEUQ97pVZOFFfRubUq4OHDqZdu3dFUM3DWGxlaYzGmBerCOjAVtwzMIABAGQ2iq6UWq4YfAQEc2A7mGMgY8VU7xUuJAxaY/EVvn2Cma4jgpX5eqwOLtxJGOSWqXHD6WjHAG3dWARbVQsCqbMi1MHJJNWnCVqKk9ZJo4RgZDRmDRUaTNTTCcjWpbUZ3SG1tg4yVtmfu6CmflELawQ/EOQBIEHItg3qugPohU4R4BXMLVsXHtthBBZ1nFq37ctdu3anYzBU2yTgWhejzgi8ToETQGWW0WcAaOgLUQUEcpVBznJlmDEnOGp9qr9nIBz3TKMip01TpOPwKm7+sL7ye1+e9u7EpWl+i+/ma3mWxzUJfGWmNy/ouQ7GL/y7D5R/ja/EGzXLS8xpxkPeIGR4q8H7ACLm2g72DKWjB4yogtvJ3oNp3849GC9Ohi9OI4xEUHEgucSjfnW7GaQ7duzATeVoDNI2IhR34GyrLq61rTUtQ1e1LCIXd4Ri3kCcgpLFWwcB6RQ7cQjKUDgHEAhAAlV8l8FwnzMkdO+Q+Q3JmshDnZ3C3CjsRyAIRkkdZWD62Aky6s+cVZGtvcPTna/zsffIRmVnfheQFI/d+mB1ur9YD/0LjZ0nuOX5wCPBegU6yxA0rZDiscf+QMTcauqowUdLsq4rbgIlhu3wERRnbJczVg7g53gco4h1kYlGOHz6UYDM4IyLC2xTILUO1k81gE9RnaaW39yf9jB6Q/LmP5t/y7sFXyObbdHie/xoF1Pdds1X63XXKvO75oBv/aZtn+BpvG6+J/L9978hvf9X3jVfsstw3QFQ7EX25Rdf9xRnYOCuge6emHgshXjweDqw52BYbbvR000i4rU1N+KYjIjHbYqksqUDB3Us3huWS2ckyM50sl21ejXh1ldHsAG/a4hoQGHvIK7WeZdNnzl32UwAMNVT7Ita8kf2JtPyk9MwHgwf5C9TFFD6qYM6wcx4ZIiI5wCb+r7CJ8/8Hd8ytQIgPZY5Kt4rclu2/nyyN0VWZ0uECwkMy+sCpyKxwNgAWxV4jJPnedlbzEShPQKhYruGEY/DymprBEHbARDKjjkT1+0D/fJkctZTp+rDWLF17HaqmiDr2r/q+wSrmMpG3RTTNZrY/34eO3YifnD6WOWttq4RfebKqKP9IRt1+oxRXWznNJO7hkDPfiq2FzNXvb9vKD31naeLU7N9bm5t77izt/vkn82WYDGev6aAz3Ux6MQ3z9eRb/7xN6V3/+zb50t2Wa/Hu18uweP86w8AKN7C+ob6h1kvlcF0+Dg6PZTpWGAVRo1F1wrwORPj+LHDMZPiyOHD6SDMRBFSQNMlxRXKGhHDQjwFpPK8WvJFrBvAwCHzUgQWnAKgGPCCRAACI9NjdXMx0PkQ4DJQ6RaTJ/+HjxygoE5PMDLcvMYUAdQ9pnsh3mkwcY9WyhSBHAEoszLWrRX0KEsn4EJPJsgqsup2otHDTVB0lwE24A4j+xiWQapfA1gC8GCZBYuz7oKeoqisWLFWJid7E+RklQKzZetyIyBp/NFoYznq7wRWma49ISgGyPLDIrs7zvQ9jSdGfVGE9noP4npv3yBFI57DsjXmUA0s3DBX9BLmJ5gL9tPbKRo4fepaOLjzpXfwXMeZ6TGvr9/25rZlNxPWyoW6rontmgE+xNs/5P16x3y9+tZ3/zDrYbhm0FXeHGW88NS5vOcjgW+cNWC7TzIr4jhhkgbxYcNfDxf5VMOgcSGgYcS0w/jn7dm9E8fkQ2HIcPCpV+pcvjyYXivx42JdC4BQo0AGtIJr5rI8F0ECgulldiXAqaAXRESCfB+A6D+qnEEts0MHu64bpg02iF5S4PK7QKfzsYBhHk4l87zipu4jMjLPexxuLLTLe91kWBpT9P0T/BTnBbMIV4Xoq7HD64qnRmUWyMKAACDao4KciwmZr72b1wdxOhugzT0Cj4AnWPsZ+k3qYWQZHZMV3U0bAQ7I0/OyQMV5RW8BOww1fHcJSi25OUqzrFXxfziY33FUEi6GtH7jOhggbBJwdipgFn1zvwTm+eca3Z77oufwXFP67jcem7MFtPA2xN51GDz+ds6Ei+TiNQF86zdu+Qgv+E/N12f3v+ct6e3vndezZb5sLu56YI5w4JAsXvjCuYHvYxW4SAwyZegAq5gRfBOXkkkYVSWD1fUjTjKj4uCBvYi1hBI6SdQVshIEWhB929B3qQurwbIb0UpgO9lJtzaXxgBVPGwlCIHRRTIr02ctM7LCeVjwC8QqqmdNA1TyYBVoHMQBOFyTMckOBTI/gwHClkyj/6DNlJGZr4PecW5amZyRnRW5J3AfEZTsE7+3IJIbq08wlx3pX6cBIbO9hgBRRVnL0Ggg+CiCm38AC2VYl1inA0Yo8HqvFl3bncXjYb5j2GEX3JwzbNAEp9EJfLJSAVwLru4rw7BZ81Gs9n7B2HYY9MCABoq0kR8MVkuxVnWNI1u2bk5r16/hXv0EXThdizQW6xmA5/HM7/GCxB8fgvvi3W5n6VTdl3R3mWd7Pj/ILYDfP8yT7qpfXvTAx9oYP8Mb82F6as63Q6a3KEAvEIXKxvtcVDm+BNgw8Sp1HT2JiHsM0RaxCNBz/dpR9En9vd3pyKED6TD6vCFEthqmYkV4KKyQzfjR5TBNRFZGbNMYIZNxF2CqSWsBim8uun3o4KG0F53gEay+J2EmiskyGQe2WwEeAdH8kfG5CUyKj34t2F1YTwHDuFoGSJ9GtI6GBiACEt4kmDgtTTYm+OpQnC3FMj6tyIAlABLBEWB8cjhZnXo/AUOQtw6K3X6fQOSXSVpG1uVF1aIdMT84mKX9nZmmYC2IkjxAyv4bJc0x+qCHGSoCnpFhBDfFXn36vO5sGRmg99kG81GEDv1d3AMYwvQUi132srODAAYk3r1nF9bgo2k1U/1Wr1kV9ZTlVlZnI5F9ap5uuV/LX/Ipz04fLeaD219wC89hfuZHe+5iLY9uwO+hxdyeRQ186zZueT1v9J/QgTMUJmd3pzq9qy7exvt75kttXb3AHkpuQAIDp/HzBtDpOY/sJJbFowf2E22FldBgfP046Lrso+zGBXQEDRfU1jUli4XMiigDnm4hDkQtmEZCPqbVlwAEMpF9+/eHISSsrAEi5cn91EbgcRAGYKF381PxMWpaBj3PSTdlcoJAfLclJCJc72l5hBuH+QYIqjt0VzwlrWUV6T1BvgK1wKcFVpAZwmoaCw1RT/OyvGLWhyAqY82ia57a5j2CYtbfUSfqHLpD2Jtirj8MAp6f+hQeIUCDM0wUY4dgdUWfBOsjf1vuD4j9QvFRPs3JbaTO6iatQ+g0aZuzSDZs2JDWr1sbrPy7j30n0mx/1vbUjgpCPZ9rd5xieIC2nXvObdYL50x9NU/K/Bag87Phr21pa38Y8JvXMnK12rNogW/jxpueTac8wC6VmXXTenu1DRlRuVnfXy/ki4p0o/0M9N68uPcJLIsH9+1j7dvj6PoQv2B9Lgbk6BN/KmEx1bi0OIjVg+k0W4/vmCCo4UGWY7TjA4DcHhxvd+/ejTHkYCjv1aOFGEma0MUBYlZDaFYzJzi5ZaYkOGWA8j4Zi5vYJ/g5aK1LZixxKTfJ6zlbril6ZrALB17LgAUKGOahUUagth3urqXrzbJJQU+dYERVoV5RbrmOwSDJ15BR1jlE8LKu0IpFOKoyCFqzmAWCc7Jp9SvU7ecI1lhFXafYyYi9xwYIdKH/4/iUbtOyshOyZUb7aL8RbFyJzjo6G8VyBD8j0xwhDJhxDGV9N9+8PdU21CagMkDcvrNv8itgZ7lzcnqbeTx9ctEeqPNbgLWXFpZ+pL2t8y97eggTtAi3RQl8mzZtamNegKakORe80E/v6risFE8S1iQglL/6yZn8PU7yxvvW48Li4kATRE4+tIuIKDC+47hS7N2xg5kavBeAwyQi6PCQDrIs4I2eqsF5sujq2nBRacKfTUdkx6v4pf+cuqVnuP+xxx9LB3BoVpSVldUCLq5ipi5QMFNvpogbABfisfXVEopxQOYIyIUOr6zPkrUp4sXULAsTBDgn8KlD89gtWF4cChKZ7dl209eh6G8GfGStirYmM3yVc241XJi34CibixXfcHlRn0frsPLmcPGWI5Aq6jpNT5CyviShDMqj/vZ0dsGh3QQf8AdCNxtnjWh4ULx1FohT9oBuvezIhxkt6N/cBT1BiOyi76y7/8pNDJ2k34Mh0wjPOz84jC4wSafzbSB0VVNTS9rHD1gX4cEUdzuWw/qqyZf8Ii87gL34XixPGSejd0xgLa6NTWvvAvz8KmnRO5e1t/weLkqnHDkXSRPnZFNXqY4VE1OVj/Mi6BY/6+aMjJ/+0L+c9foVueDLHFI4f2EHeQhxzl91zgtUiqKJdW/13zt66Eh68jtPpH6suSPo4YZha5Mo0R2SY6EUh+0xUmphdC3MWNAwUItbR8yRBbwmxrA+Ein5+DGWkTREFIp6GZALfI8w5U2WswyDQSP3qXzXB9BBKsiF6wrVkm05c0Hrq+Ki+rBxorrYEkHQqocejnrIOrWeZqgkCUAYbeN8MXjhStxaBkpzwfJbi4jpXFrrE0AJgNWg82qAJXlulB8AwUzgcw0My3ExJPViskrzHqFOFSyIq1g9yR5EiXBcJKOmlCrrc2iRXidtV3NzFTjXEtHf0AjMzscN5DGQK6BtmCrbWEFhJafEsGkRdp0OrEzx3bYKdm76MZpWYM+ASPk8zhZ8+GTGh5hls2b1hrR5/da0Y+fO9OTjT6avPfRQuvm2bakOUAyfPu4cJ3/rHUzYHxM228hf+jOXl2sTl66JP469AQxCX/7cV+ao71RjHstpLYn89Vk026JjfERa+Qa9s22uHnLu7a//9i/EL/Fc6S77tXhpGZSMSl/feHnjD4Ml2ImDjTUixpjLynS0bz38rfSdb3wrRFqBchLmpiV3aDAzPVlIA8yoBaanI7KKfge2/nhO0Dc0vG4Xhl86SVw8XS40IujLp15J3ZNhlRTbjh/TB62f6zURhy7mppKfzs3NOOsKeuoFZYMCYxusslGQZZQLfIJSdTDCzA5lPQ7crLdi8MrCaKvAVg04yBJNL8tzLq3sLhYGIqlBFQTCBhiZG7lk4wfibwAx4qJipIzS7tNfLnR71EF9XyaeiufAD/kpqrr7g2DbDWPlXNweoqlEm2CQ9oF1jTBfpAsjEP0bz4VCMvz41y88O9JauuKtefvDoDirKCvTtM7homO+9MUIjC9mmJCn1naB9MixIzDQ0XTH857Lui3LKCtPMwyMo8T4EYiCKdN3xz13CLnnGvn1Wtle+j0v4n1+cr65vU1EdHkTEV3+YDG1a1EBn756dM7r5+qgCBVPwIErM/d2rppwjRc3b7607PE1Q2ClgOfSjwQhGEan9/WvfD196XNfJMLKaFqOA7I+eyNYbjVmGNFY0GvCIbmZyfbq8RyozoCQuTilag+i1DGYngp9QUjLpPo9raF+X965IqyNKvD1/dNaKag411QrpJ8xfY2a6i/XBXC6CXg6QwtUAl5ETXHgg2oOVD8VTUM8pc5xfsY1AwTI5vInwI3BwkgrAqCAWk8d6mFkgof5KeoWuj6BWt2fi4ebv4YUdYKyuQLggqlGTelXTnpeHZz0QbCSZ6tw12CRZ4wYNiqHwQKh8jMhXTElz2cke1PPaX45fzL1EZon/8KwxA+EKgPdboJ5q2vlh0Njk5FeZJUaR9QZ1uN0vgx/Pi3mzm/evGVL2vKsLVYwgyj1seIh6uZiTv0tv0LFm3TqwuI/8r2786XPZQnLb8wX1WXVYvPxWzTAt37TlrfxpvwGj3vWd8BJ74aWuvxRVhb40kVNHTEyhnLNyweTiHzIaGkKsW7nEzvS3//N36VjB46kTevWMTOjiQjKPekEVljnmTrwDdyZZ2LUxeCONWux/J5gClcfjFD/MAeZLEPmZ0BOxTZdXLQk6r83jAI/ZnjA9JbB/NasWRu6QoFCPqq4F069DFjZ1/LOzhiwKu67AUKnZbnYtoAlwNkkWZ4zEmRAnq8KdifLE/Cqou6u5lbDtYb62tDlGS5LEVYWp25PJqll1PzUPYYvImUGm1KUZgCBQACfoKf7CmI3eQuUIaICmuo9/TEIVki7FTVtV7joYHCwXW7hlEzaeCDeb9pyGcEAKSvEdz59ctHKACXFchyVtQhriEEdoAGmsTz9z2ODoRqlWteimFlCn2QGfjKcwjU++cOjn+W27TfFjxhZ5zcaJmnfCX6nbXYKW/kjf7mG/mqZv/V5t6QHPvVPIUXMUfXntba3P0U4q+/MkeaKXVoUwLdx4/bNDM3P0uo562MQ0csbT+88+523NXOOgD5udhj5CvOCO3UT3d4Bolx8/lOfTft37kub121MnSzy3AcrOIQLyxDg5TKQuqk0IB6qp5LRqafSIhmzDAbQ48nAGLxec8FvxTkdmFeuWpXBjft7AEijtrhimrM6VjOHl4ViAlScwiaoOQ3LQb2C2R+rVq3MgTxhjFokDTHvIuCNDeimAAvwLsBPHZtsLLOoU2BnvY0J2AjYeRxLWsb3zOAUfWV/zbRL4DMfAdGYdo2AbpVgJ+DQJsFWI8cEAJYBE/CRJQJ+AqAGBZmi9bPdOgdr7ZbFhbVXJ/AyoPgRbi58CoLW274TQNUfRogt7revzSeuk0+hf1MHKfDKPMOXUCswDFQQNo0xAtsIYtAOazeQgaDdi2FJhl3fQKAF5FojR69jNsc6fuQsT72oesRsFRf4yuA3A+0E5Wt1M6TV1u1b0hf+/ktzNYEWlt7Y3rbioz2GEL/K25xAc4XqVtHc1vY0ZeXwHLMUarj4yxc5eZZC5zsd76ovcX5p1Sc5pUnxthJjhhFXvvAPn0/feOjracOa9WntylWImd2xipnrVggcEVKdgc0IigFrYE+NFs4nVXQrFvN2JoE6PWdfqENbzhzRNlidzEaRV/HWCCIdWIHXr1sfbMVZCTIio5RYQ0VMIwnLVsxPy3AX9RB4rEeboaEAA8egQKXQHqIux7K9akTaADgAqE7Apv4NAmCs3QtAAQqeE9gEvBbZHWU1CewAbrbsGjEaUZj8wkUEgNTOINC6h0UZZqd+M+bRcj2AThDjvLtMMpy2y+Cl+OlsENlU+B3CroIpCnrcL+CUoSaALsRe8+V6hKgnH9PZSXk+sSK/DtS62jijJK/3q2FJn8MIkYW1WZbuczBQhM/ewK/8TISluYH51uvW8xyQUqqqcx3CQk0x8TC01sQBH3FE4dfwZjDTBYSxxxw1+Xb8+36LphaP5Kq0+qpbddHrPUjLWdFl9s2FgV73plfOnuBqXfHRsTtAnRPLCAvxVteVQSayfx3A++bDj6TWxpa0or0DRjOa9uJvN4BBo4kBocJfhuLMgQkslmOwDQ0Z7gKgA26CAaLLhseKc7psGHqqEcuvrCRmZhxH1EJ8bYPpdXYuD8OIwBZhlLDuggNpxYoVWY9HgTI8AU+E6+xYFuKqRgTDwbuPo6CXgQh+gpHNcqHyasC5FrCohUEJGgJerayMRO5VpFevqCFFI42irOxRsFI0la3JHs0wuLFgD7goxg8N1qRB8hNwhpnN4oI/Ja2/dPCEnQSTmqzAj497FIcVnGsoUxA3FL6My7SCMwXE8/C+EJ35JIdAVhldifrI1ILFyiBtSzWiLQCtFXyCfta4YscJpnGOMs1Dh+gh6tvFLJt4FvzQrFm7HvBbhT/fSdpXk9qXL8MhvTs98+Qz/Di14j9IjL96DV62Xa0kWdum62xzjB5BnfPx//q/5mpZh2N+/54dL5kr0eW+dlUZX14VLd0/VyN1W3E1tMW8hf4MP+sJrLe6raSxEhEtvps+9/efYQ2NsbQaVqD7xmFEUZd9FBgU5XSGdZAqpg3ge3aiqzt1w/YGEVdlFTI8jRiCmr52MjbFV+9Vl3SUGQnHcWtxMDuFStGqFeOIPnGyEx1tHWTq1CxTlDaQqboF7uW4AABAAElEQVS0ZYhqnQzaeifXAzYq642CMoYDtXUV0AKV1c2pnwJkZIN1nG+ifJldM0DRTnlGlHFtXw0ZirXNfG+lTA0mzejIaplOp05RhivIyAxtg+nJFnE3i7iWIZOU7VXp2mLlMUOIlerHZImF7tG6KX56XhFaVmgZlulUOcvxh8G+84dDJqdfoH1TzEQRfMJX0NkpXBMM1bfGVDvaIVuz32SqdcEqse5SR5+XPyzdPV0RwUV9rHmpg9Qarw5QcBRul3W0Y/ygPk4pBPTozDhvy3z2eeNn4DrBQRcw2rNj/3yBTNcRy7AW5qd666psVw341mzc9jzcQP6EVhdP/6wO0ILrurfqVRbrBicKfKjAVywclbHkHth9IP39Jz6Zju0/ktauWBni4UlY1gBGihqtngDGJINRsJEJVQMArlvhtCr1RYpXEVaKwSMDsgxBTyuj7iiyEcVhQybJprIhY03onbym6OtcVH0IZV7q9QzdLuhNAjKdBC5dtYpwSoCKC+p4TT1aexsWTOomc7J+6t90uQEdAvRCbBVcAIQ2jSqAXgcA2sZAb7Jdirll4NOBuRBxPSdgKsbWUN8Qk0kvoE4KTLR3XMClHPVoWZenbq4wqJyyGmtUkYlmUNa2mxFD1xnv0yLrVgQYkLmaZwZRWgZAeY/sS/HdY91U7OdRwm5lY4mBHQDDYH05vS+pjtDqW8mQu2SiRq1xHV5ckmDkug7pn5cXbToRgSU2b9mECLgMgweiuDZoYvblzRyLnSMPr5Pt+S+5Iz3E4kVzrt9RKr2sqa3jb/t6Th6+Gs3Ob8mVL9lXR7Tnt3z27Wf+7ftRIBsccrFuvK286OGMigUXbRUGi6H0+KOPp2ceezrVovcZZUBUwCZkJpU16gDxy4PFMapgNUxtYhw5ncqFbgq/Ln3QdEyWWThwZTMCk1bHEHkZpIyiAEKZSIRSxznXSff6BLpGhDovGYxKdSMIO7AVQ12bQsZ1HJ8zwVFXlHaWkpTV6KZx4tix1Ed9dai2jgUQNZYZXgu6u2B05COwNWEMEfB8kAKmLEzGJthaZ5mXBgqZlUYDwViwt11TsM169F90C2L0VNRHdubMFKa6oj9UDKXNAJNi/gQi8ISsj7YLmiOkGSPfsBiTn3nGMeCkWG7fyMJq6MsxXWVoj2GmFIFlbtbXe0o+G+tfvn+c+bwjZJ6NPD5XRH3+Fos3hcUZ5+YaZovodO2z6qffq2CAqixGcK+h4IiaLeMMn0TqX0lbA7DLIBeQ6rHt4eN62Ryzjt1feOe/nqtJBQYQ7YFfhCu8XRXgW7dh69/Rzva52vrBD70vbb9161xJFsk1BxzDBqPGhHH2MFgdOXQ4FPd1DA4NCyMj+NoxkscnjBnHYEVPpNim6Bj6KVxb+vDpcxZFrEvLIJGZhNURQNMPro5BJsDKEtWJeU0fMyMVCySho6MswYvxGyPJczrbKmLqtCwYyYgUAUPkY1BWAU7e7+AUMM0/1sq1fqSvDxDjfgBPtxkNFi0o7gU9jRR1iHBadcMXL3R3BP3kXsEvBwMF5LBeRB/FE0O/J9gE7AiUtIv66gROVakD4aDoJP3sQpQFWLTKjsLQhiYRHzEgyLfCKiyLBJLGAVR1rILalL8kgKJjKQALgJuCjcsIXYhpbBwAAxhjpMk4OYj6AMix0e/8DwAtYgoGExWc8M0s8Twm+TGZRGydYrZHiLCUwR3xIzMIAPazaJSrtmmIclGoCeocoblcYMVN4C0eEs80b8Lg9bM5dh3D/+dv/P5cjWoXC/bv3THvgmFzZXIh16448BFx5Uep6GvnquwbfuS+9NofeMVcSS7fNd/DeAfPeCGnlTCcn74uo4IRaMlll+31nSTqCu/3ys6VrJyGuMngGhhiHi2DRAdXJUdj0wl8WhdlXccRccNaiK7I1crU2amXUyRuwplZlmRtssGiP9qedWa6nmRlvxZIp18pRgpqAqCAprW2AwOGhgWBTcOKgNIGEE6wAJNA4zKQhsESNGRmrYiu6t8aZGyKp7C2RsRbnXQVcWV/6tVCtKQM9YHOcggfO9rroLZsvwsizvMtKI2sr7iumGg62+I5GWp1DSuxod/Umq1oCZzk/q4EbKgHqJXGeRbq+gwlNcWnM9Nk0fo5+kPizI8ceYX7BTJ6TN892xLuL1bKs4JPeY9UnNIFpob6+kMQRhTqYN18/NZVcdY8VQ/4TGV9it/8jy3KpV0RAYZn4OJMGlEUnavr+JyErRevFnfMOMwZXEd/HcM7n9qVPvkXn5q9VaX0WjFh/56d/2P2RJf+yhUFPpTv+l/8Mc2Y9XnfdMu29N5f/IlL39KF5EitHBK+6LzVp+5QKT3NxkNAogFaJgUkvmPU6COictehbhYB70mtNS1ppK0jdU8e51d/IMQqwc7Ye2H8IH/ZmGtZnHAqGj52iqKKeYpGsrla5noqwjolS0By7YohwlUZHMCBJIOZxKXCgT8xTnQTBpnndSSuZuAKrCrpOzraEHFlniyRSBCEEuVqCa1FvnQB8hHyUBR3JolRhgPQSN/IverSXLhcZtrS0oROT4MFoi2ism4gAoHiYIjVggK7vSLgZUDxm8YAz3EEsFFMdHLoykgXIEge9bBmXVCqneOKiKrBwD6RnSraqgfFFhsgUwmDHBgkUjJ9lS2u9C1ptJcq+o5Gv+SyK/gRsc/MR52cYqkgF4YNQZE9nrf1sz6e41+e6UF5fOdrvA9Od7Pdpgf/OD2JDpVpeLRPpi571Oik6qKG+wweu2XLZvSztAk1tfpVWW28/ubJNv2alb/ns9fPX8fyU995Jj392DOzNYqBVvpjsOHv9+/fj6vBldmuKPClytov0yxemdm39//qIrDgnvMlFAwdWv7z7YXN8KLrszdCgMoBFqAZcZFu9EM6EXvsr7wDy+wKpqPeTmYj03PaWBeWXC24MhGBQXHU2QJaEwVAnWe1tsoIFb0UIWURGjsEEx1/Pa8fmqDlHmBSabQSYveRZhBH6RCBKUNDkQxllDxHqIMxTloRY2tqmEan6Ah4yYyqdK6zgQClYmyjYi3A6LQtd9MFAAMGOulqZLGsAD16yMGtBJhBxa8CS97tENsbHWPnmI7EznywD0pRfmUaIP1IGXhqOK6tJn4f6NJQPwaYszg4jt4CJLAH4OH+ElmVyxAG84kMjrRDUVcxFagjZRQbVZBh5w2QBIR1m8mwaV6m8w87dbHezklWXxrGCk9zs7rXIVQYU7wPLTDmKvrKqYLGHSx0rb4JJL/hNsf0z/3YL8/Vbn5FAxtunivRpbxWJuiXMstz57V207Zf5aHPuRjGe3/5PekuVne6alv5rYwXfeYripzjoI1B7U80Yq3Ap3ib8DXrPt6TgJPU1tjGcVd65qmnCAp6OMShkbAUyl4EQl1DmFsKUznJ/NsjTFlT/HTQG19PcTHm6+LfF7o4AM2ov6Po9LxXICxcUzQaZKU5LIIqxcwGRVPOxw6IWKb+egKnej6dl7WwakXtxyJMBnx3cSNmU3BevZmgF6IrYBczMgA1P72uY3IERy2XEXNXuRZML/on91EYDqhT7jPOka+7DDEDYe7hgAy7U+DxB0KQY9N1J74DVgK/YqagKsvNbFeLbwbb7PqSjRiWS0EhiipGy6oFtWws0rChwUh2mH+McmGCWQY0LcH+QHmfhhD7tzhXfGo8kYlG1GgYuIsbGaBU/az+mC45+fKX35Nuu+1WrLk4k29cm+qb60MsztFaCpC19OikqAZH1+22rJOlT5mx9PCDj8zVxs7m9o7Rvu6T/zRXokt17YoAnyIuazN8kkrPWt49r3t5eucHmK57lbf8Avp3xqvoyAsGgegX7618gKbw6951mLm06PVa6lvQP6X0FKGJ9u7eAwtTl0NUFnRqfX09DJYcNsrpY13MtTXCioNTdxPn2SpmCn4aDBzUY+isdEA26oiUQn2aTFB9mCAiIDiQFbw1IshAFDsV69ydwRB+eYCf94YvGmVorR3CgFENo2sD8JxRUaNV0+ZyTzXgoWNyGC0Av/DX05+NqWkyPkExAyTMECCW/QhKuX8yQKl3LPYQbwFTrcOn3ErKzIfbvFO8MgvrbQcLjrq+ZAYpmJJoBiiazkciuxW4XUBd1qmErWU8gAzQEsC8L1g39wh6hogS3OzTgD/Sc2gBkS5AkevZv0+LsWBInwYgZvcV1+BQ9aAxxXQCuj9M6hc3b9qS3vOe96Tn3fn89PiTj6G/PZbWbFwTRhAeDw298YDP3n3WLVvTgb2H8fHb69dzbjy+ezCc/S5uWkPnTHAJT14ZUbey5rO8XLM647Xi3f6ef/WOS9isS50Vg4MGxHjh0wV2jDs3inPyscMnUwmH5YqWypgPe+IYgUUZKE7/QnkGI+gN0LNGk5PM6EBkdVeca21ivieg4sBxkMqDZD8jiE0qzwVLp3UJagKe7EakUOkeYjRpdfeI2RDUK2YpqN9icGfwQM+HEUPRdhzm2QtDmWDQClyZ5TUCIIAIoG776ioND6U/nDMsAB92HZyjbEAmGJeMEGDW0ipYeq/1tjxBLjM7fhj8Xt4jJqHH/HOriB8S+5NCp4HJ8+gry+AtoGi9dcaI9Rjmmj52AXoaHGi77YgwU7zFxoQYp+3OfvEHZXysJgBLvWnUg3obF3GSZ6VYbD8HQ6QKGfQEX+snEArAfub60Ts5TfRTBkifWQX9QBWCbWvkCust/bSKdY5Xr10T7NxlAPyha25dR93JJ3eBhd5wm2P8W199NPV09Zyz7fQOL16Nbm7PO2eCS3hyVgZ2qcpYv2nrO3na750rP31+tt+6ba4kV/haHgAOiNj56oCOr4ywypKzHSZZC3cgGF9NRW1auWwFRo6JtA+21wWba2xipgKK7z4Yn+KQW8R5Y2A7wAwW6ipjsjUHhJbYsCQCgOrsZBkaDZya1gTTc6aDdfB8iGAAg0BSMKsAEM45CyNYCGllTYJGsBfOY6kIS62Oys2Irs67leGRa4CYTK8BoJPVxTWuK+bqj1fo9mKercBH/taHXqE92eJZOAULCtPXoWGqCKwrRQXY+H263gE2gp75kIrdOgs7oFN8BsBRTg5aaj45nbfKIkE/QIg8KVcw80ckW7l1McmPzR8aDRaUEtftc0vxf2aEwpzf7Y983o+cwE8v0VrL9phyaD7HecZGBvGoctp+87OJxLw6ALa7tyt1rupIy1d2cg8lTDswR46RX/nIj+t608izfPXy9OBnvzJHO0urWtuX7SGKyzfnSHTRly4r8G3btq0W9q/MPiuzfO2bXp3e8s4fuOiGXNoM4o0nS0YNjCMGCS8845BBCZNgdoZ6vh5E3IETOAvTPOfj6rZxnOUhj6LfmyQ8S30jEYcBm3BRcQQyTHSo1RDg7gDV10uwUg9lCpM5sCNuHSJcAJ4DjvMxQBXDqIjjPVw6uBbcBNBzpkUMRJKHoYKRGXkDqgJZM46lHS5RKejJgMhU5lQLdXNFN/V74V8I4xPoYooax4rKskD1hJ4LYBNkqEPslBNzcmWBHBfnBaX47rnysWDpcYAcNaDCsU2fkw3aFnYQO3eIrI/ysm+gbBSgI58qPgPcZaPUUcONjNAfBxlx+CryaSGGp/JHRjWCW/7xAFjpvxBvTWXFrVC5TqaLhxLn82E+JdgBfPRXOC+jOjCfStxrZOkHCRjRQcivDVs24sKC7reDWS5Y19Xx3aiibvQlfzZuWYeTfHfa8cTO4tS5Pu9bsbzjt06ePMlLcHm2ywp8Dc3tn6HaN81W9fbO9vSh3/qF0G/NlubqnM9vvnaMmZv8RhF3CpGpxMLgQ/3oy3pxqsVb34EJepWB7wiuFhgUmKOp867WRA4YYHlMKZJmBXmeh+tAdSBn1xBdJrK7iJ/hAwcahlKe/DNT0bk3A6T8Q7CLAcofxU9FRMEzjhlrdTA5Z1vofKwPnuDmNd1VtN4G4AEIGkWi7DLQqcOLVd747nFYbgPwMnAFRjDgLUsQCHcQ8s2fnBOUBTo6UeyInbpZ36hzdG4gOv2Zf2BsiHXTodl/fo/8OTfNIsmz6K8AYfuJunvOfnIrWJxZRH2sB7s6QPWjxZS26bQ5IV+t7czNmlqPcnu4P354eAAxGwewz89EJul6vgZdYI1f+mnt+jVpxWqi6AB8DUgA/ojaB7apaF3+AfCkZdwY263Puzl97pNfDMPdLC2uwvvrZczl/ZNZrl/06csGfGs3bn0lj/PfUsN41Oeq6Qc/9N5007O3nOvSVTs3Xdnpg/xKxqASv2B6vPLoyiZxWGYmRh/gxYsuUXHA9uCicujQAaKLEN8OsVGlO6OAQUlXxwwPoxvrj1bWk3EsoIShoAAemElcZ/CUYYPBxlBht1oF6EXNCsUj54XAAD1EV8XFCCGF8SJAD12fTE8xNu5noGVR2LoYIgrQk90h2irOyjhlWFqa9SW0furTBLiZQ1RQsW+md0Z2nOOzOOdgz+DlNeppI6K+5kSb+MjgknNWbxht42vBGkOnSH9kFxqZXu4/vxf1yozNe2SzuT/sE/vNbrJgZ3gU6oICHIu+JVmk9V6vxWfRWu6NZxhnDZpAn0VfGScwB491jY/stkTAVwxFhmnatHVjam5Dz1qr8UXgM18L4qPcGVHvcnnl7K/rD/utY2VH+vKcIm/a1Ny27It9PV27L0dnXDbga2tbpiA/a4y9e++7O73tPW++HG26qDzLY9JRc/rmi4oVV1F3dJiwSRg2GmpZV4J/KmuPIeL2Y73t7mIFteNHMGAww4Lxp9LdgTWMf5/x9SYQOwUcfdZiZ+AKKiEqOpgZtA6EGJQwPFmE7CRAzcHH7nX+58EJw1FRr9XRKuugrEEgXFBgec3oGTWgaKDQKivDk8OE8UIgoS6yVesgwGlIcQ9nZtIH6AGIwahkddaP9NZBVlOI7tY/A15mgHFdxheMUOBzz22z7tbV0R/H8SWDQf7uMXuko77cLJiFOBzll4GW+uQflAzG3gusRTrBTWatq4kGjpimBp76LPzuZwCgQOix/Rg1ymk89oyfVtJ2WKHoe+oQsQnpl8x07dEMjIq7guswVt/G5oZ06+23pnbcOQQ91R/+/rmZj/map4V4dCNtG7euZ2nVI2nPM3tna7Y9fl85dt9saS74vE/zkm/rNmz5ZZ7lytky9tf7He+fMxrVbLdetfO++DoJC0SuYNZ1gmlmBvjkvKwuHIMBM8OO1+L64UAaxEfPaVTxWvOSO3gD5Gh/DGKveD/gJ4MQ1IKdBOBhqHCABuhlFnMqHY9NYGCAZZ+3YuDoHI2VERAT6BRtjfkXa14IGDE8c5rQUZUBxbKdeB/58ykgx/KLHFdiYHEPVlVmrtODlroHEJo3e2ZlgndmuIJSZn257bI39wDF8mcACe3On7ZTQOC/b2b5M07xXYCO8FTWFdAJRipQe0wbws2GvrT9MltFetmsusCI6EL7ZWR5Pm/+oRB1ptndNAAKeAF5+X0rH8Y5n2P5B8D7nGmjy5HAJVu2TupujYi9a9eueEfC1cgfCx9Oka033OCbGOA7M9tGV60US2a7fjHnZy/1AnO98847qweGRj7N7bMaNN7zc+9Mz3/J7RdYwuW9bfp9nD7I5RUuLE49Gx2ZYPI5k9EJNjpgoE/AqY1oJQYINRLKURyTu4m0rBOsYFlJFJZY+wE2oBFBoHGgy9S0uOZN62tmbw6OkIg4kCUV4GE673FgqZwPtxXTMKACFCjL8E/63Dnf1th0Ohzr8hIiMJkKDrFbL8HKPYAXoADgYpeByuYAjCxKZjbnwLUsKs//fGy5xfQuxc9gZwGIZbCbBrUC3HLH2v5oZ/mzAB/RDniibVlX52XT+qNguZYfIKkSgPpZJ+voZ1G2acKPMZyK9bnDp1GAKu8GYchsj770GQBg4lG5RKswY5OVluvKBfslszyrn6fC6cPn75A3yvish/OMRwi1dcedt2Pk2BCRWSoirIzpKC9uoE/8Z/5RA6/dOJuM2CUXHvnnOQy4pdLLb9q25TcPHTqUH88l6p5LDnyVNQ0fp27Pma1+N9++PX3w1xbBtLTZKiji5Pe8nMIXE9jA0mHMPY99TbXQqYuaQL83MoLPHVGLdUretXdv2n/gQCxC44DirninZRrBhIy3xKDOEVKc4uTzFAT9EFRyelmOerpioDNSI2qKszEc1DJKAdAB7ywPjSAyn4YG1rRlpkBrmwviML+VJ4xZhbxwdAbstObKhDI7khFlg0YEHJBJKfKSjyKsZcuYHJweZzGcdkc/KOYKjmVgZvD66+0Yds8sjTujDZwgD/fcfxxHN9uHHvu3/K8MAurC8h0Cj/lxnT36g5wyzuTvBiAw5FMsRk77fC46kMvGpufo0l8Cn1bXOMcPjno4Z2JkUdc8ixLN3d2HEiXRhzJZy+MU5/zRMX937zdgQp5fjX4Ua7zPUeBrZ3Hx7bdtD+OG4q5gGaXYnvI/c7xRt+2sQfyNhx5Nx4+cmK0LqgYGh29F5P2L2RJcyPlLCnx50aDJ36MiPttzbj/74Z9Kq9YYBHORbmfVPA8GXvnyGNCah38bTMoVt2R7/QQPdVnBffv2p8OHD8fgbMBPT7HYKB0DrIVhFJQYiHj7DyMCDzNPNvuaZQCzy8RA8DGDBp+6dMhMjOrivFpdU6QWAQTq6qiadamFqel+4pSyVkJGuYe/neBFN2t0KVhegJ6Axa7YXewCXuj5MKwUIeIFG8XVAKs4BlQEOoAvgBCQ8TOLsJ6ntOi/DEjBzLgv4hVSj4A5rseAN12wHhuawcW/WncFHNvmHnUg3wx65R+e+O65XB8TFmWZl/0ewVzps1EtuORjvEMDCWhxtT8FPGdaqI8japQlA0ruVCe+eS5vtGxG27gKKMtIg7VRXhha6OtJpAEZn/OsazAQDRKOrJNpa8957m2pbVlL2LaibUXG0Vl2xI29rVy7AivvA3N1wnYWKfrvl3KRolnF0blqMds1tFKf4Fr8Jp4rzWt+4FXpjhfceq5Li+dc+LBkcInxUK5Zdq/IwyOS+PL7ziK+dKxkKUc89V3Z7OD+g0RKQaHOADt88GA6sH9fMEHdVwQpfF6CIY45uZ4BmrfsmBxjnkwnYBOTDM4pWKT3qaQvMUAzMDHFDF1SxIGLoYq7OyCm4cJQ8IJeY70iqyww4DqYnmwlxFrAKuvKslFFMTEMEwCYYm7o9sgvGBbnQoQUqrg/9gCdgtkpigs6PHSuixh8808GIhoX37lATvl8+VOA0njg//yHPi+DiWAaiQXd6Ydgf2cjRvw4RGECkD8YfPIvly3oZuC1bWGpBvSKpTCdquf1DHLUgXrY75M0wjz8b4OCxdmw8pZFby56zjRsAcr+YBCqZTICkDKzBBQVkCtQN8jEZecW4A+N8RhtWhSRsyiyKn+7MT/EBLHhM3/z2dk6oKKMLbNKkrPdONv5SwZ86zZtu5cHfNtsBXn+/nf/0FyXF8W1/KozCMrveK5UHiAxsAQA330HKaJLbSPrSSBatjS2hvuCkVP27zmAc3M3fnwE7yRCh0aKXpTdhpFSRM1w5OAK+ZbBACwwII0w7BzQEYJZuth4CVaikj4cifW/YyArzhpmShB0EDm4GhGtWpjdYXTketwmxNcQk6l8AJMlUmmBT9ALlgfICaCCA4jGdURZAU8Wp7gY3zOzsw9iMFtPwYh/+VzGgQIfZF3FFkd893MavOjU7M5h/9HBIoDnOPBfvsdz3pQRosjT9LYhUnsPfS9VQ0MXlZBV+kNkG41w09KcRVnDVA3x46GYb0Tn4fqa+D7Kj04G2MzczCfXwGcfFZgGP+s2gUXW1lRQSIjv1K9gfOpbtR67iLz96XRD1QvtOIsvIxai5eRnXf6ho56W4B/r7DbdR/nrDfdXbJgD+OyP28SY/bufeeBSdM4lAz5ElP8aD3OWWr39fffjzGmU6Wtj832M979c3WAJvqgwNpEPaY8XupRaOlkpjZkcrp1aQqaqwlN/gBf/8NFjzOXV2ldBgAC8evjlH2O+rGHVHcDKtQ6cWMeBgWNYc2dxuMsWFXFjYR/AzCUcBT/FQO91mpmBBVzEJ5ZsBPSamNpmSPlKAKGCifAyLEVckgYI5lkOmQEZUy7Wp2WQZsMEYMbgdICessSi1Srr+axnML9p0IveiZ6Z7qP4IbBUr7HZRrZpQDOPOJFBLjMt3xi+F5mQwDTyQ/74P55BBj8Bid08IiMBiG+yPe7P+WUQFHz0P1QdUYdawX6AktF/6DrJwQkU0VbAy/pGjcgjyou8LSIfWLUAa56vP3axULxt83nzKdBmdyKmGBItupa+NYiqOsCNG9enm2/eHv6cGrGqeF66tCxtZ/eA2CBGfPT3P3b2xfIZMYbDzbMmOI8LlwT41m3aeh8vyKbZyu3EWfGHf/yNs11etOd99WOg8ak4Fd9iQDMI/IlmABlk07DqTk0r8eIbgqi5nelrBxF/CJY5ht7HQaQOznUlaqZYQhFgCzGUQaNvnz5+6qC07+o3Z0QUwhYAfOQXa1Jkg4TjXLG2gXUujEpSA4MxUnIdg62W0WxsvRx0AOjggQTD47xsp9DpxTqy1EXjRTA86pCZnvozB7SDuXxN9gfYBfAFENgjtpeP+F70TgaN6Cz7Ja6Zhs2vogd7Tl2AlEDCGQElEvInMs79eeo+TwtO+Wnk1Pyc0PeeyixQ62zOL0RS2SJ36KOYXV1oh+wa/Sr6BYq0n3KOUWS5bs7qKDbr5HOLuvNhDeSEAXJ+48clWDBlCZ+qCcJPkftUadTgO/nsW56dXvTiF7K05/JyG8x1urVFUUuf5R4QIz71V5+Z1dBBz20Sa/bv3jFHSOeFdeclMW60tC77PMURl+nc27t+9sfTTbdsOffFRXb21Kt/esXifB4lcSGsjo4L/uWBySejUeveOCJrHwEM+npY3pEBaUj4caawGRnFwWI6dU/6/Dl/NFgXeqJY4wIxTWCrhznqhlKSPTBgXTwnr8XrerwYMIiI7HeNGEZdltUUe56GpnsKDI89fNkYjIrFirmFxZbxCsgh3lLnGLS0TyDJbiICkAAj81MElhXmcwK9wJMHvuc85tN/cSwU5C0+6QPxUFamUUHAc/jnXRDJwGZ+6vH8Rcn9xOtZ/h4ZR6G5/+IeCytvkSf5WnC4CJUBVT9H59MaP0+D0ig/NCMEgRhD1LV8DSGy7rhxutZmWm6Lh6QU9tyinVaxvIWKgP6z7YUhiE5MG5ix8b2vf126DcNGRQ03EKmHmsUP5qlac1Ruw6lzRc433qcsXFXRV7/08FyNfwUW3v84V4KFXLto4CNePoq70qz+KVuetTl9YDG7r8zZS76OxV4+ND2nHDT5L18iiS8+7AmgMICBIau6ia6suDuMvq63+ySRkHun47g5novZG1oAI3oIJ2Vphm2aMpAm7hDjuMp4rBNyK1Zkl200LLwBA1TYZ9cUxVrEbMrWMblw8lX0kn24609o/cJiK5CRPsTaADHLFGwc7Lkd+XtujyCUB2juC++10X5M70V3RGfkLok+8g97QEcAn35zfteIky2qWlX97nn5sWK/4Oe5mXuYRamLVwUatwyhfAqmitsClCgbd+bzkZJT4qKGIoEvrL1YdYNpWzANUd/mncVmGbkUa1UuKZ+IJAH89Kn50muR2jtcTW/7rdvTPa+8J5aWnKrkfoxgKDRyfxUFxB2iqHfNLHk6wQ13sO3mzemhB77OBIHu2dre0tLW/ijg9/hsCRZy/qJFXR7Z7871yH74J960kHosnjTFi+0o4HXM28wWTg+BuC5Q+Oarb5okzlsFCu4W1qZYvqozHdrXmkb7h1IvLMfw8oOEqHL4yJ7U9whCxlNBGk4jDkIU5FAQWB4iGRbdCvRSleQtc8tr2TZPR02JAAaCGeUrAjP+AvwEvgx+2UdPwFPkKwAtwC0Gmm0rnwdMBDo3jvJV8hVM4x/Xop1czz3B2QCXuCX/KfdDTpH7SLYV6fnjsXpLV0SLc6QXbwS22CzLPPzup3XygudzgvgbN1tXyhd4NLUYATZujYuez1nYdkVd3Y44Q2HE4oPx9fOjNDgM60usU8I9isE+h+Jf1M87zFpU84Or8UrEKe6Ji9n6CyWPxDJNIbK6sjbcWDqXd/BdoOes9Y2czv5TtPDsKzfmGTHjN391dlJHf/0uPfNXF9M7FwV86zZsezuv8arZKvDsO25Od7/6rtkuL77zjo2iVhyfGtv5lY3v/vF/Hmmk8Rc/h4ma0GrL622IpCa80js6l6VhZnf0dR1HjK1F1KpEnzcIuLGW7jC+ZjjTDrsjGittOcYc7FXkU0M5LcyzbcIJeRmzQlauXMEn6zdwXVao2Cq8WA0hItxV+CIAxi4oInKpv8tsz2MtvllsFehCwU/iOObeAngCTMldFhPH5bbaN7knik7Knxkbcl1MEewLkFO0ta+yu0n+DF2caXJn5n6kLiE+lwHadvlPFxOttaoGipXasg4vrpI3DI8yBCTzk+3FdY6sp+22n0JnyQ+SCV0LZQB3oyH1qlh7R2GAo1qAaKt/8UrJ9eY4qhhN4IoX2SzPfooSqFcuKbNXF2aKviCt09QqYNwCn4YOgV9VgXXkT7Qr5xhfi8OlT3pAzPjbj92cHv/WE+fsD7pvldizf+8zHz1nggWcvCjg4+n973OV8UM/dm0ZNOjQObbymz+dIr/y8aKXqYD4ENGFGZD1AFYzerhml2okKko9VtexkYYyM8TFAj8+18ft6XPBHFcAy/lXkYnA14B+rxk9X11dS0RzzutlEK1ZMKAOgpoHDiXBKWYV8I0hGMAXgAdTDDGXASrgOTUt9HuIt1mHBrQJOuV/MSDNs1yXaKqdwn5a3wgynLAe+bwJBB5Bg4GuxVpmVwY/PkicRVTv86u95/zf0IuyBFnWIWZmOUX7y9BSLoBvtNE2R70tiTpoUNJaPmXEHCvD+WngM8mMvgrmxxS+5cTJG4Ziq+NTtxeOzc7moGL2hHrS3DI/85HW5DiKNtpK+j9+WLKmSD1hMHX6larEmirO2pABZrDjBu6NrKOX8lFkZD29PONUnL/B/4gd/34W4Iuuydhz5YGv7Le3Zrbnc8tzb0l33XsVFw6arWLznPcFjF/609IVbyVvqe+9abxOYjgRp/xFdzizByiowNcnLy8y5OJCeblEonOgh3NAagXUwlpXi3iLcnwCVxgdmrXMVnFcA1vwejOuMIaJd0lIJ8Dr1xeT7K1IrgTgJeBG0ZE3OBeOyKHfU6yW5XHSPVgdaYUpB7rZxJ/4zOcFJ5eGkK14TwAZSfMm+PjFHBjMM8DAQKiKsxHvjs9C1JUFg3txX2HIsDh7zEYo8pbQ63m/AIFKkrSc5P8kjMz8rIPlKsaH7pJ+KBgthXJsTt7jM4hsLTXy87Q/GOpF22HP/shYJ8NIybh7XYidMjKoxl1Rs/zH9ub87JdAKL6bVrC2DybIw2K13GsYcuGhftZLKdihbbIfJ1wJzgdV3spNJEszXtpm9oDYIYY89s3HZp6eebxm/frNd+/bt+tLM08u9PjCGd/UlHL2rNubfvQNs15brBfileQdzK/mzJfx9OOcrkiVr8WgAEr8yZdVjY8PpJ6ennT4yJF04NDhdAKHZp2S65lV4SDF2QTQawDzcF9h0I0S3083Fwd/LdebcERubGwO0FvW1hqBB2SDMW647mDO4MCI85h/Ie5iHa4AVMOCC4KYXoBxoMo5BFhBICbTe1cgPUAQ4JFB2QFbfDdvv+fyyIyygTT+mKutyHWJkQ946czrpkirNTVqpgGFwe25SY5FEsHHfHUMnmSR7WCKogf5Zt1cXoXUqXpO8TNfgc0fhDDs4MqjntOw+LI8Sggg96lkQAeS+PGxfqogRF48g3DyZgFwAErDij9GvTiLHyeU2LD6OeroD1O0zKYCbLI586fmnLDj815CdK50xkYwTsA62LSdI/BPpp7enmj/BIapSh7oODpb5xPnvrQl7AF48fCif8l8aZvRA2LIHMDHUKv4fZLPOWliRnanHV4Q8DknFwvVLaflNOOLi4K/5BUvmHHmGjksv4OnasuJc20zTssGpr8KInzz5fYXXtcR18Pt6+tj8LEeLI7GNbg2uFyk6+o6sJa1t4fYJTDG2rfk4CByxbXpeH2KrKStYvDK4vgbIODwcT5vUV6ItbrH6FMG4sVOBa2Vu39DVCaf2AL0HIzkRJ1DCc9xiL8kEYQ5HUAUbJGbwkhBuSHGcdF2BSPk05LMQwYncJqvomwseu69XBfwggGjYxtg/rJLMjp3NkCynFe0kXoHyFsB8vRYI42iaA9fBH2NPs6LreNHogILT7Buy6R98VxII5jZNv0bIwqN4jUW1pXLOyOYQC3uE0L1jr37Uw9Ledp29YnW2f7yn4XHM44/ApZleF0JV3A3SaQMgLX+ujSdOH4itXY0Byv2nH0ynSdHObv46+nyCT6XtugBMUQsmWMx8lvEoj17ntx1vl12QcAH6P0RBeUnf44S3/i215/j7HV8Knqi/OaW3+MGDBNr1q1OB/YcSMdYg8GgLLIPBCymNMFgGAR1+Ospwg5jzc1Di5sZqDIeY/zF1DKskk5Ri2jODEj98gShQtcXoMMQKsQ+jQT5yXAuBmMGkEIPWKkeCiCInftCzAQsgn1QvFOyoIPkIQs0nbAAcPjdI+6NRbnjGiAnOLIH0+P+nMYVz3IAAMFulGNdVEYVLQEEAa9/YAhW1F8OFGD4LlmoXM1PQa4solOu/oyKtzI92y0QapgwykpFxQnOM1ODPnKqWjgs02f+eMgBZXCVhoOybbRdUZM5MGElr+HHxcKM2tIH6A0dOJiGEK1dVLxUqo72azEP8dw+4r68CfhY4bGEjMHk6JHQ+dlHVC3KGYfB96O/FYRNK6B60epbl8jJpgjscS7OlPNf+ih6QCz5yK//5+LrmZ+lMhZ9z5kX5vt+3sC38vbbG1PPwD2zZbxmw5r0ivteNtvl6+58WC7L72y8+LzHgpezKlavXpk2b96Uuo+dSPtgOIMwvxFAzylpMdWsGX0TA01RznsjHBSfeS4urE/jBtPV6ghh7wwNhk4AQjAy0glmDhqL934ZpEgWdXKYciH7BZavl8VMRmJmHzEQydV7s9DKEAZ6aINlAXsMTMGQbFXgk1+IfSoABUDzKYOeTNDoMRoLtFYLJq4/4ecAbRwE7AS6rt4+DDr9YVWV7ckY3cLJmvpbZ6PM6L6jZVRGpR7RPnFRc4HN3TYLfhqI1LQZd7CJAA2uE2xAUK3orlAXDtsAmbERbQuUM/KrpO3ujZSxesUKpgSsg52PpkM8q1Ha4iJMYbSgQgF49p3n6Rj7wBh8Tl8LZ+mcItLricTJdPjQ0dRLe2OpgrD8++OEfpZ7oyO9x/rYED49XNrO7gGx5M/+8C/Twb0Hz76Yz9wjJh359rfzUoazpTrj/HkDX3VP/x/wtCQv59y+7633nfP8dXkygCCGBc3jiy+xI9cRxoeRmDtYUElW5wB33dUxBrtsxKClDQzuY4hDDmAHRLhfMPgze8tA2Oj0NMPGM5BldwFkMCPZi+myWOfgzKPHwAmVDFDrEb5j8Um9OCWoQV84ZNK8h1Fr0vEvu56QCwO6AvaVxWRAj7ImALoYsLQr/jldy2Pq41KYhfHBdvQTgqsXYOvHYNDP6mP/P3tv1mRXlp7nrZznTOQAJIDEVEChCtXV7IFkk61ukxSbElthW7SlCF/IsnzjkCMUYfvOl/oFvnGErRs7whEedWNHKEK2BsuigqLYpNjsZrPZTXZ3VaFQmFFI5DznyUw/z7vOyUqg8iRqYldX1dnAybPPHtZea+39vfv9hvWt5bX18oiUXasY+wW+Fb4NJaErYEuoiXzLeqxVFtadEMlEqkO0m2rSZhwT9GVGqWA+CKvjW+A3tZdMSlvf6AaTKaG6CpL+nmT6zonxiRzfTZ94D9JfHJ/YRvq6wfrU+Hh58YUrcXBY7wVeULJYgcns00KV7U8N6T/Bz53Gbjo218Bxx2s3YO7OwKeK//ajx+XunXtiIGEtOK8OdIBQgvfD8vi0lqPrrW2d73d6QEz5H/6b/+mdDU+v9VRMKn/n6c0n/3rfwMeda5tixbCN3/wPfv3kK37K9vIcs/Aw59sH2se4CkU/tqfJKQQPodX25aLw9qL3KqCCzQYOj3XAQLVS9gQviaol8GgXchhb5sDAIK96LGjKYnodJoUEChpV7QKAmqxG/paFqsSzyjEcmPU65pjKusmDFGhoSsrRXsXvVgB0ZlxDxUT8xUsP5kM7XPe6gKQJPyPw1M12LDJaZX5hEeDbYk7hVRjeSnnIBEwCn6xvB/VQ0LM8S7M9vYSzCPoZiaJjhj2OLwaesz/D+1qZq2maKq5OBdVh66vTxPHO3T0kaWW9Z8PwHVRYtsldp8iSognAF0FUS8r3n6NsZNSTJG3tApx26L8n1D9sFZVcRstt4Bzur3Eqhtmokvtyovxe1W+Y5gAZttdXyMZN+7qZY7kHRmoOxtd+8nq+h8zALfgZ4G7XUaZd6JJ74I+sZFPnzzM9IKb8r//gHyaN/zO7mj+DSX9xwMfwtL/NlYaPv3gp/+5/9M2oGe32f3q3K1DNB1oE9D9jM3sQjAkSFhjMHMbHMQ4xM/282YqXFxdRh1YAAsWwDjWTaUjHFLhhAFO1TSdHFRDZBoCg4MWBATQgnE58pHopm9SoHlZDAQp5sg0DUNZJYJR1VrsXmUIACUNjnABJEBPwZHGO9VWtFIyAh5RjHWVlfsI0XeNYz/camwQG68R5/GS+LOCoYfqBqKFbeE51wAg6g6juQzgXHI8b5w8zuSXVFuzMF4IMTxvmMO2Ng4PrR4WnzflNG7ye1+VP2K/7d2mzNKwX9mXbVaG3mB7ARlumDhBVYd4oebnYL7ZBDie7tY/H6dMLc+fx8C6VxdWV8pgJpCwh9jmDn3PNdCOlyogFV22LJpUYyRDFnu6dmCQEuY39bebcuFXu3XtQrp16gWtbxRrQbB/6n2LypVzkxZmb7K/OcrQHvD9iy//1P/+jo5uPrg+LTXffuvm/H9140vr7ZHxdf/+kwv7qb/36Sbs/A/t4kl2aapDGMWAFAARkeMQFJyZpC3BpPzJLsKxPIfJb8NkHREBHgEB1b7xMMFrDjC2VkQFDCIfBtwbaOfzKiW4EHD8CmcwmYRaAjfYvE5maH67GEVZwFCR6YFmChgKtPSuMC9ARcFWvd3fHuWYFFyScRrlevcKVNaWl+dNqiyC+AdPRS6vtSy+qjHWEug7h7BHAu9kmeFeQ6gKQyDLjduoiCGrLVJVNVuNcV/CpYFd7V6bWdPJwjix5V/XSbqddsbnZbuogAMoyzX4tmxTGBUwO4yb4cqEewhjg1w2LFpAvXTxf7hOCFI8zIUmUmvPsgeBS62XBdsKeeels82pQ1RUm6X/K7wPg2FUek5rszu3b5YUbl+kL5wGpZgQODOvzu7O8tx4QW04APgoJNn30wHfhwqtTpWy91K6aX/vGV8vcpbPtdn86tyMJCmNVA1ljRe4mKCEfAZED/E5jE2MAwFB5sruUPHpKnkJp6nPVJnmUmVtUG8FMhL47M6Sdxg44PjaB0KAqI/wDqMga7StQMr5Xexp2tFUcBuvY0sLgKNtUWY4NXiGWbH0dOxsMxpnhTIHlnBNRdzkuPBNBdR4OgVbgAQOS9WWGa8+ePl0uXZhDFZyI88FEm9Y37IQGChwa7AOglKYDQZW+srmaPzCxc/1MwwmYBcDtLz4CX8uGFw8uYOF3RpzIjChnb0fFn+N5KaSu9JN9Y5boQTyygmWyU4fciWa8FOjDnn3sgGFk3A/OTXLXbVRqwE6Qhz7m5RP+yn7T8icLde9wuXDubLlMm7W9OkNeI/cU5klFDvDUqkqbZdlOANu5PvMrYxc088s+Ht4t2LoebVnuKoz+5muvlV/82pfKSO8I9fbecP3O8r57QGwRY77123/Q7tyXxKi7d3+40O6Ao9vfO+Pr2fpvObG+dI+W0Fz/K59RtpcOUTie6RmZXtQhvbvnzxHaMlcW5pcRRIQJxrZhiiRASJYiE8gkOPw2yahF6fU9BdsbIvYvjgYARvAYykQ2pc7hAXCurW3gNFgFNKu66hwfq4CgAbTOBWIQ9QrfEWKOlyxW5JIdyaSMh9P2iEotG0MwHYFA9ovMGOf8vKqfpsByQqJMNUkFZVphir0ApywNZjeIejy4OYRGyYTalCO476w7WoW66wTgk8YBGqbjqh5XbXk6BgAN6i6IwslSR1X61gxwhqHYT460WFvXk7uS+vbBXHupo6xalIz3libKLuMFpv/1DOtoEdSdhrK/awjmibmAvncRHL2uSSNmcIicI3/eDHZB2TJYR5mGregYQX2nTelDwVbWSE2osIUEuJ0uYBvTA/BfttZ2SVRxl/Ha65g76jWD5F60tXizXUT4znJiD4gxJwAf6kgw6j89sZDmzvcOfKX8jXYFGsLyla9/qd3uT/V2mUCEuQV+PMhuEqxcMf7u/IXz5eUbL5cnj/BuLj9GKIjxgq2FgQkOCJjAp1c03lbAaJz5cEcBPcvYgfnoBJBtOGGOx64AaE/m58uD+w/K0gIvOQRPVTlAB+ip2irwYSI6AqiPRndVzV6M7Rknm4oDXKRR0mtsjNwBnlYZUHXCGAZSA4z397WR0TA+grXto6iwLlnMYKPa0qxfF6CyTTkHAEX3dg0lkWhRxQCSbfGlIJCtLC0H8MLc2J/xxNj+TNU1pA1wAMBosswGdjPNBeuAmCApYA5yzAhhLIPY8Cw3AAYI9tlW2OEupoO1dSZx53bYvlHUePugRweR+Q59OtnuTbROw5Q3zQvn9NQkcXhrTBjEnCcwNWA+ddsDxPa4Z7K+fT3ogLovB73hu/tbFEPeRO7dwCAZYQaw01Ieh8Gqe2GjmDF8LpqXdI1d+bits5zcA2KMWNM2tOWgPUY9W/J7Ar6LV679hzy05vY5dvkrf/0vH7v9M7ExOhAtjfC802J/hhWhto0w1vbCpYvl9OybMCrArcFYThkIDGMPlTTp5mVsCFQdkjWEejmVUAmdEQKGzgxV43kmMp+ff1wWnixk0uoN2N22IMf5ejod2zoK8xonQYIgYr1kQRrpwc1az4TCaLWCXUJ6+vA+a1fzXBN1hvUBDCMkPG0FURscbHmyRNVCJzvq2wfUGnVEQl/fTpwIW03w3gXYRRWdOIKErKkXltTHCyJMkOMEvSXmImkAZuYZPEXoySjD9AaIb+wSnAA8eDNN0JmDh3x0IighO3Q+40X6YJUXwNLKUoBOxulcwmP0t0YHU/3XJK7YEnkB6TSx/n68bVFv6RTtq3GaYJZwdMw09Tg7PZOQFNVY8BCgBNxktiSUcHihfelwPxmfXt0Dx1zjZHF44c9/6RfKjZdeLUOTw2Xq3CQMExZLnXt5wXit1lIhMLehA36tTnnOt1jzv/yD/+P4o3iviVV3br3R1gvSOvE9AR935e+3Tjju+9e++fXjNn8mtpk6qS6oSz7TCoRvdbejW8l0+oZQ2YawqfUR/oEQdSMoPTCB0r2WE8zOrFPD8awqfsOosxMTkzASHegABoxDEGgQdrLKROUPHtzFc7oQoNPQr7cUHQ5BhqnBfIwblP1YB9mSwiZz0zPrcLE6AbaAitADiFZV25nAu21zUOsSToJ0m0FaMKgJT2V6NgD2A/jJmvSKNhpbqaMB1yMjA7AywJztyXVHB/RRpi+BBmxwhc/S8gpjl6k/fTM9c7pMMW+JdVeN3F6H1a0+rkzLA7iWw8cMaRHUTpFbbxyQHEL1nqJtguvKikHTTL/JLGZ0JO3YatoszTrtUD9eMNyXPdrhWGF7WfzReZNbxRZ6iFN1fPTw4ugvZ2aIAWRc7wJeauMNdf7YTzZfD7MMsKr06S7YK2VR37mZmfKVn3ulfOXnv8Q0BMNldXu9NDBx9E4QUkMZ23j796CAMV9QB9mgXb5Dua0lzxE/3N5aOKyz0ANiTVvgs4cqVn00wMdD8oWn7sKRW/BLv8qcAp+gSYSOVP3Dr/Jk5oHk24De/Mg6gIdQRW9FyBoI484eQr+xzNCoNebRwGsKEFQHB4KKYMlQtEEpVNrxhocY19tHSEleTahRAJZxcpsO2HfwPTKvTSoZmQcZocCAebO5mPVF76v1ilOAMvVwbsAK95nBLfu4UFRrgEZBFtSsv6qgaq6JA/ZgNVv7zAmMt9hEAZbVUlFVdQX3BDqblAGV0Zi2PlVm1D4/epvhfCJebIGyo11CTPSWbhLj108fnJqcKmfOnkMtxPEDEN67cx9G+4SRHjgkqBscNUjDqYCks5gx1IzwlAmY6BSsboZxzo7wEOh36aeE13BcYgvRbUeHCSUCJAUtAVvbofn2pLmqxPnYU7RNEDTkRrhxiNyYrBmQ1fbppPFJgUV1DPnhdJ3DOVbbnzGKDeIx+7kvOnP2AeG3772ZF80i/Td8Cu88zqKxodNBujp+mTJ4BmxiZOsI8OW3VTmy0AW5p0c2fSZXxRox5w//9bePbT+38gvH7nhm43MZ34VL1/4uN6Ltcb/2GRqe9kzfveunD2eeTlY0nPtMy7hU9RyXO8RHxgU3q8AEm0oICw+5Mqf6JPMZVeAQcOMA+7QvIa0bTFy0infWuDi9me7XGSELGh8dhyUKfn2J49sGXGI3JCfcNqC3CeAlvAN1SyeH8X5mgnFd9dgRCIaRDPMBEo4AAh5LgNZQGcsz/k9gboGGsimg6LTol9FRlskVBgGydcDNzkgSBRpmxhpKDlDL8sZgQIKbgLeOOmk/xKvLNRq76/SDjhbAEuA0KMi+EZxV65do0xrnPXn7UZkk5Gd8FJYLQBmvl5nVAN6Er8jSAMt4irkPdeJv6k+dm1Qvdcp6MySGDQF41eWZ6enygBEYGw0cPdS1gQE29k3urRlfZIC79G0D9XefoYh9AzXR7L17d8v68kLMGY5UmT57tgwzgufG9ASsD7Wdi1SV1wfF+95CP7qsszy3B8ScdsBH1/aKWXdvv/E/nlRQW0A7ctJ/eWT9qdVBAmy//o1femrbZ+qHwsizK4o1vw6br/LkTrfLXKamJ8v1l6+X+289KjuAWAQIMECWw6Za55u9eQI7kUkOwi4Ue0DFyXK0vyHH8VbqZc1Ma6rNqp2AoIb8DQb/rzI0bIlhYjo4ZEt9AFofYCAj23DMMMCoaibj3ICB7mFzlO3pKBgGuBzvOkQ9pIOCmfnlBE7pSU8Pti6OzRAum0iFZILaAgf2+ssutq4ByhGEs51vGZKsrpft/QC0jpVN7Hp3br1V7jLpunF8l69cDdDIbFdgmIaECPA+oMKC02mq7o5QN+cQ7uVNsQMorzAqZHu9B5voeLzOvfSLXmk90BnZwbneheQ/dBv1ibrOdm+RwON+HSG5F26i3XVO5Km8hB5jizRMBnLHvjrKpAs/Re0D6wmwU1FeY2WBFFdv3nyNMcD0Ey88+0ov/hs/+km5eP0qww9n8Hh70y3MOtiXfHeW99wDYs5/B/YYQ9lmEbM+JPB1lbbpp371m7+St2mbi3/2NvsAi2AsqoYuUZEQpEmA7/Nf+Hy5+aO3yp//6Z/z3CMsAFZFToWmniqATJAsUy9l3WqsmE4HwIpvmZnqnfn2ZFaZ0Y1wlpWllYwCefJ4AXbWCNANOycvjLAPMJNhyBZ7AbFewQlBH0QgVVH3cAKEFVl56iX4yK72ZEaex36zkMhMzOIiYwKX0saq8soEdUZoZ6ys0HYYazc6gmMF4WaGGIbuDScc5f7DR+VNQO8xzgkB26zIZ07P0BVd2NamM753DaePDo0R6m+AMbsor7Z9mheDKu8ebGsdFrxDgLajTXRQyAhN1prpPJuqf+oCYFqfFiDbXtsR9ZbCdehoCKy3zbx/fXhnR1GjyXodOwhJdgAAQABJREFUVKN8bHjWQ6bd34etjoNVowe4djcvhG5eIOtreNufsI6D5JRt5h55bxcevl2W5xfKOFOtGmcJwbSrc/0EaGN7lPV3luf3gPdO7Pl//9H/d/zBXV2vHL/jna0nMr4Ll6/9Fxyq++/Y5evf+OVjt39mNvLwvgNZh5iX5ruL5zsPfWxgAMKZs6fL1WsvlD/7/g/DYow9Mxi3r38QmxpvL4TPMIxRAMuMLHoCZXvat/zWxqVtTFCU0eid3JThoYpqG5Pt6Q8YxyN85uwsueCmUMn2w6revHWLoNx51NutYHOAGcHtQ2jHSZOvF3gEIRUAZH8DCLchILIaW9ECPZmsAJVC/ILO1YQJTeADJPphdobDjADQ7hc4xgABHQdPALsl6qoz5doLV8rs+fNceyIgatD1WeYWOXPuXEanCEym5xK0BWNtd84wN4bJwMQN1rEB+G0SpL0Jc/Ul47jmYfZp99O+pzdaRqnd1HoJ0DJHr0/TA2a2Lzckdy6/wjYFWk0KGVnSrY0UtdsJwQGpsEnui84U59gVePuJKRzEyTSGU8TA7+lT0zErbJD1ZYuX09t375fZFy5yOmN3kSrDmgxf0unRwbxm57/HL7GnLfCVg16x6+5bb/z37Yo7Efi4J3+v3Q2ZmMRt/5fekx2x3bU/RdvtpaBAbROCKui5aJ+SFUklZFczMJt+1CBtQwb+9iGMg4NMfqMQcXT1zKIWIgz72NNU+TxXm9XBvkO7sEGFcRm8vI7X8UmN3cNTanlXrl4r5+culAXCRN54883y8PHb5bXXb5I4gHRLXFPQsowG7NGiR8gOvArwrXK+Kq4CrefUVE2mvBf4TLFlG2zloZoo+Lmw0TKrfQ6VV8AE6PRM740aE2gIDCyJOtsnOmOuXX0hIT4jhK3ISA3ZWUJllaU5r+ogIS3CrWDrsD6DvY35MxbRoGQ9zmwIOB2wPgTYYOwLQDkmVxNMaxY665IAa14uMr9aV8HaOyaMcx06wtaoWguyNk0brcxCtT3AJzhRn33qKmDFK8u3geP72EsHhg0u7y/TyMUFAtavX3uBeg0REjOPSoZDh/Cbx/cfopZv0mZiCbmywxi5Wh4dLt9Z3kcPiD1i0DJjqo9b6NW/x/YPBnw8FC8fV6jbvv4bX2236zO7XeFRkFxkVGFGWVeMARwoVP8Q82hgjzILsymNDDBOevKdyuB0IMQ+BYAoFt0IZQPBNs4OpSrC10DQZEfLjI19/PhxnAOjGuNPn4lN6rU33ijf+rd/UN64ebNsEltmnRTUMExBg7q5gEUROpMMGBS8vLgQBrRpyixAVODTmaF6qJPGJWWBDIKEv2ob+U29PS7eZb4PYEoCSlU/SaKACmrcopmPVb11iGzB4FThtYEJuoKWwLpH2I7lyjwdTrdnnfkIjHqM3d44IBML9TamzwzMIyNMysSoi9FRVFPqnLrxV/DKKBHbIPiyzWbLt+IFhq1lY7bRHR6QD23ju6q1XJP2eb5JIYSsXikbLE+ThX3hFJUC8HkY69UrlwJ+DWZzW0UwDV7u4UVjXQ2ZafV/0JaLVLC1PzvL++kBMeif/J///NhTuHVtscsT2jK+ZiaW+rQfU/Qv/+onMLX8Me34sJuUEZ77w2e5VZ5swu1KUc1iXEM+zs2dI25tikSVDwhsZagYDGdrgw/eP8hE1EIZhoxvl5ASy6ljSWEjgg+60craYnmkzQjgWwc4e2Ez0wTcSqm+893vlj/78Y9xSOwQLjJZuinXEBLns5UlGUKh+CvQsqcZQHhudgb1DJaFcBrLpzp5Bo+mThYF3SShfdiw9LIq6E3kCCuCO6UDVNdKLyppz06YlaAiW9rtJ+UVXmkdKY4K6RkEJLj+to4JVPRVAp1Vxx05otpvf9YkDMQOUkcZsP3k0sCWt8ELw232C5UJ++sH1JK8FKeH6qkvDMHJfhT0VG91YATlswZ4oRb7OrI/w869sG1jfwvUZX0O15MpassTcCHJua6Xd3ihwwgPaNsgx1xARb925XL6bhiA3gMcxzBbJCEr3dMHAFqLvBRTD375grTMzvK+e0AMagd8FNZz8crVv3Xn1s1/eFzBbYGPB+A/O+4Et5lAs6PmNnunPrttHl4FyWfbQFkYDACik+PMuTPl+3/yPWLrDhhlMJrA3mVUUVmF8XuGpvQTl9c4wKmgbQtm4/Az7VlJAQWYmbVZL68sS1vYvbv3yp1795jY6AGMaqBcfeFKnAn3GNJ27+HDhK9oqJ/B7ufognEdH0172SQToCfejToqnAKtAu9bzzAW1VhVRkU0ZLHZHtskMxMgIrykjrE+prcPW7I9MDnnsBgCVJzDVv1alqdXV7ulAE8RYW8yOHtMp4EY1KCcOCHYFmbJxuyDaQl+Bidbb73b1cNdgSV1QsX2uqkXZVluGHSzzsIv1Qvb8oXgP4+13gKTbdO8IKgmzpHfjn7xXur42Sf8xnobbiSTPguTfeWll5LJuY8duwB0Py8LnVEt9T8OIOpt2fuAZurGNQVb69dZ3l8PiEFikRmBjlvIo/h32f5+ga+0pXS//Je/ctx1PpPbfGAPH+DDlaagIiBHNvHAw/AwfF+/cb18D2b2iFxtUxj2tfkZZuFbaATWUlVGsplgLN9E2A2lcCIiJyjahvUY8zbKtJO9gOMmwPTo8Xx5/eat2PUMy5ibmyunYWxdlGn2EEXM+LpzZB65gDNhhnGoej7NCOMcto5a0BCnQMruFH7j/AQpt+mN1THQUvfYlGNaN9zyVR9lUIEaWKJMUeAxREZ7m+EzMrka3kG/gDq2e5jr0k0AEPttpzYzyrHeltHAoWAf+qkA4rSbgBrt1PaoE2UclVxnhnnb6jA96gE4pl4ATWvxt6AWALRMGqLtcp9jbHM+bmfddvgSqLZC+oSNSXklRFFXQVsgHB4YhenNlVdffrF87uWXy9mpU2WXF5N2SF8gXn0XkPea1q3Wz5rU67dsipTaWT5AD4hF/+r/+Z12Z7bFsGMZ3/nz1y5S0ljb0r7+5Xa7PlPbWw+rwsxj/BQYHO2ICJjSzcOvsF9/6aXyK7/6K+WP/uDbZX3JPHp4YgnE7UoAMExPZsThqlja2PytEd0kBo7NFSnGcQyMjB6Ut+7cKUskz1SgT5NGahL11o+sxOwpZh8+g6PCNOx+tJO5fQ8gNRxE0MsUjwiyqlxSz/NtOvU+WJMgoxdZb7MsK95MmiuI22rraX3yj3IFhITqUIZCnj5iv+OM+xy7Rhmq3QOU6Vy20ibtg54vu9ylDyxZQNAeliSm9m22Csx6wmWCAB91EuwEPz3HnJLjtMVV1le/3VpfQalx7RtXOd66CrCenHG8bvOfhfFfpus1faEYV6mua1me7stjlkwuP/fqq+XzL+FUYhTKBCr7rveN8xs7OrZkpgA0ddbj7G8X2+e/Wular+zo/HlfPfCLYNEJwDcmlt2//8adZws9FviI0fyvnz3w6O8v/9LPHf35mV3P4xoDURWtKlyt7mCvwsOSv6ERqkrY3qZGyy/+MpOtI29/+Hv/tiwvLGPjgrEgE6pGMgoly1AOM5REgQNUZFACT4KKMzYVNsQ5s6jOV168CuBNxa5VE3dSBKCioPVjA9TeJrw4bM2EBjJIw2QMvjVEw7Yk1AMhN94tTA2h1ymid1K1zRRQ3Y5eYKSHZds+x5raQsU5M7RhqHSboBkVWEbFcT092NQUds7rs9K0w2wzGcnAuqCj59ZjLFcVV7ZpV6R8z2FXbG2UKVNL+6i/xwrKhvtYD/iZteGfdRT00p3543p2N6+TFwQX8WXgx3OS0EGAY7t2R00UtiUFNY/zGpOw9TlGZfgxf6G2UT3P+4Ck9eimL3RKaVJwbg9jL7kDtZj0BbWxqmzRfurS/Jn11DVrnT/teuB5WNTEsv/q2fOPBT4Oajsb+Od/4fMMN2qbqOXZ8j/dv1vP7WErjzyqWa0Psw923u4IspNn9w90lbmL58mgbL62+6i8DykBAY7wInoIT6SM42VhA6isgwbjIuDDxLCtMy50hcBdGdHs2TPlOkxu4tQkzGxYzEgISJ2cvIKJs7pVVZkgaEFFhlURJZ7Kni7teo4RrkG++YYZxkZGeXolTVTgYCtQoQkCFeatqUJO9fnQSoAB9IK9AoDY0AI/Tcyg8dWRYPtoVz/hH12CK+3yfMEv9jX7QuCTHQEIguEh0HKu4Cco5rK0QwB3v/2X7R5PeQGTeliOTR3rWaxWsM71PJbtAXFOFIBNUw+0RtUN4LOuXU9GbDkC2vkzsxkyt46TaeHtt8spvMsNwM2AavP+9ZFuW0bqpxf7pfUTVPt82VhIruq3dc1X58/77AGxSEz6wXd+0O5Msew9A9/ldqX8/Fc7sXvt+ua9bO9lQnHf/kNkMbl4+QJxd5fKD7//J2VhGTXPAf+oUwqVIR27CJBDxUw+4GTkSofeTycpV23aRpgc8zrD2FfTJm3g8HB0xh6jLBQ+QcjRHo7dNWmAHwGij1ATmaXJOFsMSuCT6RlKo11L+1ZUX0AsAMS3HmHj5io4VbGVT0Vm+QPe1D9Zcb3+VqgFFTc3CVxE3mtatsAnyNTDvR4wxMFRNwW0HG1ZleXlm/MkYQZIHwSk2M+x/Gc7+1xpLq5ZdhbLrVeK3VFVN9VtMq7WYZ4h+CaOj/7wFB1MHmt5BknPYS/1pfAaXvSlh/fLAS+kSXIDYpvArDCBE2ma8+1TVPHmdVovBm2Qlfv5cnC9s3zQHhCTTgC+y8eV+y7Gd+HKtb/mPT/uYLd94Sufb7ers/25PYCty9RJCCVme4J4B2F+2IUIKXn41lulh3FMASYYnqElG2ROxjgWldehWyYU0Nakd9agXG1oZh8WOHQK6PiQfZhRxdEcqrSqaDI8R2j0jSCAgILZkmuohzZEnCgIduvb/QJVGAhSrpArmAGPptArpaaKcpuIkBAX9tVvt9YPm7ItAt4sSxbmP5mgTFGG5sMWsEqZnMvFo/ZyHYHNj9fxv0tUaA4Lw6O+gkhdmsdYhIDoRq5bT2Oju0WuupK6CUQtplmvw70BpCghLwWnqpSxeV88zsVe0W6nJ3l3e5PEmHfLGscNU/YsXnNjIAfRsXYHnTYAtsfLpJuXlAlaM/wtPSrjrC+RIxid8jt/3l8PPAeTCGt58Zt3br3+VMDfu4CPt+l/kgfjmGub6fblV68ds6ez6b32gKpOP4kFVJu0rw2N4vVERXIMrDavTBhEYU2oya3I6IMRUj1hn3M6SjfKRpKGHiB0UiGZnfa/eGtJRrCryiVQAibamEbwAsvmZFgKf1gbgKi3VkaS2EGN+Eoh6myyxsDwtIFp+wvYROQFGRFEdOHrEEeqY6OCRvMQ1N192mXbQI6c5leFPgGVdQvgI99TtY7ay/G1nhxDHSt740SOCQhTiOXYNsGqenAtjCPCrAQ7/rnuae5iZU/1PvVlO+sV9FyvjXAaSdcF3T3rTN9ql5Ndh/XWkugLXiSwcucUVvUdxP65R/KHxw8elR62zTL2eH11oyz1LZch7IB0YOnD6zyM97kfVp32ULdq0qjXTNGdPx+oB8QksWl9Vdl498It/TtsfQ7wlYO/9O5T65YvfqXj1GjXN+91u15aBVS71A5ev/VNMignAYCgZ1JPAURvonY9xvCSbl2VU2GJ8wHQNCWS5bTAIUDC/oRemJoJYR132BcMRfnNeQCcYTKeo8qWxJmsu08blkzEa4RbASjBNeopsBiaEcdBftNSccI/LVTxd9ZrPeOlbeq2sc9RHgXlE5DhSfTbEJbqJeU3/zxERivI4htJfbx+rVUt2zpyWI71HJf8lvmxr75AUMkB3bq37nfd47hwXi6gnj/ym035aX9pA9V5xCsDYBJ0ax+FXbLuhZ2YaRS2t0N40Qh9/eKVF0qD8cJ73MuttU2Gz5HYgaFpjw+elFMwwz3MEP1D5E4k1KUbZkjtqt2SGtWIACvWWT5MD4hN7efjeDemvZvxlXKhXQU+/wttE7W0O6Wz/WgPIHm86ANcMd4zhE1BV5jM99ZDpuAuPjIP89GpfoJQomRATNEdbA0FQ3ANwwhgRHARJn4LCyYyGMATS7H1GITZ7WFHCLPgp9kqKjDAZ8CxICBbC0sSeYMGXBHQChhxTgt0bJIg0rq2v6lCTglocY0DgplTPwHGijSXACHbBDMvQQ3TJ9aPNYDHkSXNugp6gs3hb7d7ZOvq1IBC/Iiz7vNawAmVabK7nFsv7u5csvnX9lqflMEhtsff8epalP1OOTLL2B29LG+Svqb6a6gN3I+QllmmEBgti48eVucHLzDH9JpReg2Wzg0pfeOk1McQf0B6rUMWnGvWunX+frgeEJvaA9+7Me0p4Ltw4ep1Lk8ituOXV75w4vC340/qbH26B1rShzAJKtNE/J8hHMLxqg1VPNjXgYKj3CqYrCjICqyMprIpwz8AJ45XUPcBmV4FlP0HAluO9S+w0gM4cgx/wqS0CwoQOQbVuJd1h6vGfuW1ggwtaGna0QJALdBQxeRszuPiQkUFS67vdWRJDhPLfsJkanG0xzrwK8AlO+PaKdE680/A438FGrY5fzA+C8qxKFc4ym3889KBN8EtvynDvmI9C+s5kRMCajnBbfWTbarzvFRqIHLtx3eOqKenM+gQw1kM7PZ3rt+8d6rBtkLQNRypC++6c4DsoPZ2n8Lmx6RFDY4lkx8hLwwLPE1KKp0adjJ9EMbretrTrB5fneX998BzsKlfbLt7l0SJzeUp4OPV/5+3djz7PYSN4sUbV57d3Pn9vnpAQJN9tR56YvBIH3XtxWs1S8maCT/xwhpnhzdXcAvjQNwEtcS8CQLIis6FsBWEN4xNCVQ2lSL2+9GmlZg7frpd1pLRFwJBEyirjU0AaAKXQui18smJFCULkvlU1ifyBEzZXgGN4yxfTzBPlJfXWeGQMwxheLFRrQVqFgGvluN1BDobwwewt02WQ8OjOVuOP62L6OJeN9Rvf7vG32YZSYpgbQPIfDeBL6Du9iZI+zt9m29ZnfvoT4unDvYzDci6JoVBGR6szdRTaQVvCgO//e1Y3DHCiAapI8OQy37z3vkiG8Kmt4v3vgcn1uQ5PO/YaRu0IzZPSkhPNYEvDfb6neUD9YDYJEY5OdSxS8W2w/hkX6VHl984+uPo+ue+dOPoz876B+kBBKwKa33o4RxRm84T03fx8qV4b43RW19fZfgWKhIC1q3AI1BVDjm7Sj1XZwWVWNVStdixvYZeOOOXHx0odd3wlPoxc4o2PZ0gAmDqEnQ52hivIUjCyviESSHEXi7GePYFKAIWbgMMtcupMvNRLQ5Do14CYSvxgI4AYwuTxqnJtMzcIgDrZPAjBhheYxMDvLWVTWBkJ9esH3ZYbz7BDfpB54VnGkRd/7GPQ1x0ZAi8Mjztd75McjrlBezsVNqRzqXetZ31EiZBldn1k3mlzitCO6ljxk4D6uN4202k6phk6+bQQFPgO6+vY5O16c1dvVzGpk/xIgBkqbD/LF2um6vYrs7yoXvgORj1FLY9zfhKebHd1V/+uZfa7epsfx89oDD64CcEAyH11/kL58rVa1fKo1uERZBQc5P5G7T6d2sny+w4CoYshKMjJJ4nQLEVVtVLALK6a8AisuR+j0XAm0KuUB6CCesK/CEzYt19Lvk+IogVJKivQMmHAyKwuUyYVQto+A54WJHWR9Kk6g1Q4LQxfX4XU3E4xlZPaQ/eZoE7dafUbq8rI+YyfotqlR2p7lPflOuVa9tZsVkVqNyWo/wroLrX/ZTBumBdP/QJAKh9zralfdlXT/HeeGmv2/pnglP7Mf0NIxQA41HmiDG8iaew3y0SQylrNomssZUOG9Sz7kxsowwb7KHNeImoSPWU52pcV7bacXDUe/Vh/4pR3/nWH7cr5ilsexb42g7JeOlz19oV2Nn+fnogElxDJgxTUUCnmcrwRcZ6fu/3vx3Q22Z6xOTuAwH2G4ixY1YRZp0eSMmheAdg2KP6GJZCPbQ3ASVZ2BOBZRPnKc1NQFDgABFjCS0SO3wFvOZxqrUt+1dU0yab09YluIWhUUaL+dkkwSigrDrN8S6NA9RcUYSPIz+IZMsIEvPSmVPQcgbwkPYxgiPzi1CQ4GdojoAp+JgcQC4nCEUDbbYubWKb146H2uuDTB4XgOPF0aqfoGX764uggmBlmW5rgiJ1FF59IQQQbQCAp5c3gcsAVlJZoZLH5ofqK/OrYUCED2GaMD2/c6WYCFXgO5gaKxvDZpCW6VEubFPwDNPzwqzbDtvgz87y4XrgORj1FLYdAt+FKy/+Gr3vPTh2udqx7x3bL+9/I3DE02/YikLq/148fWexAY2dGimb887oBS0CYMyz1w1IGFMXO5Zi2QS/Cm+crCQhtO/wHTc1b6MCz+K+1rWUsMgcf8AUwKfWwfIPBZDraatS4PsNlgbITB9lvV0Cwwpzs/6Wx3/sZjpYUL1pj0vAMxfD+A+7c9a4rU0+BFo7wsTJkZx9bvRgNN+G7eyb2p027jO5tywzjJHtAnUAzFqy3lpsl+1Nb3Kt1IOdqSN/k8aKrQHBZj94TEBSVkdx9TffaRN9lXK4pt3th4PCeDnffhKchWJZezLEkPx0GOY3vsWE6Ki+s2TBmT4zU7bHBsr6HnMME7Q+rv2ST8qmvl7XxXuTCtSfnb8fogeeg1FdYtzdW6//jpc4BD5uyF9v3ot3XXr2PNk9pgjE7CwfugcisnS0NjbkJ2CiAJ2encLRMVVuMUvXurn2AJ8R8vIZ0GYsn0Lp/amCwlp++KtpE4sw8huhqjsFBK6m5AJuYWNNKVfN8+JeX7CqoAd4uM7HoNxdgEkHQB+CbJLNFEtZgkQcA9rp+BF1mUuozlqXeJ2tqyc0PxnoD3AOdjkHLoGmjEhZXWOEiXkFUX/NOTi+P56pIT0/reRcbYxx3NhX/BaajafzallsgP/VIG2PdbdjABj4WdajKtslbufTKsdTa8A451BfWZnM1/1ZWPf4tIp70E1okclYwwvpnx1ywPWcQW0fJKErYSpn5s6S+HUiiVBnSUg6gkf39tZKmV9ZLGO9F4PVsWlS/31vS+pDValIXmrNy9aLd/5+kB4Qo8SqR/ffPvZ0MY4dv+POQ+DjXvxy7vUxp1y7cfWYrZ1NH6QHFJyABMIp4xKcDP9wvO3s7Lly+0dvMDpjC0ZEXrohBC82ssoUFG5FXlCpYo20ILAKqJ8qTIiqUs3iMRXg+Bal3CY4BCCoSWxd9RghVMF0m+mhZGSqcnGGwPhUf6OyUbaqaNicgOrlAVQxVswwfs3yq6qMIwHwDKDS3gEYX00hpVe7Tpmp3W+VYXaW3WgwugTbnyYA+0XgU3ffl3qxOLZ3n4sIRy62Ogu7hby0K5Ww7bTHfuJQz/Y8j7EPrU8+rvOpwNfcR1vcZmNif+Sl1HIGOfIlN439XsY5fIfx6OrMGGGfITiy4gFYMgjNTHJvltsr8+XaV78cc8QBDDevKW9Fblnt+3caUpvT+fvBe0Csagd8PAqHs6MdAh+3oK0R7+rLVz54TTpnPtUDUXUUxQgdtwKBr0JONmFy7DUAjuWVdWx9JCnYVZhVqqqwK4iuHbIp9jy1RIg5J5LU3NfahrBXEKzfkTtOFugyBhiBDWABak5KJPjpDQ5TbF5ElVuvqKAm+CXgGfKY+vMkmddP1qSK7Nhh8we6bnUOaIsAIvDpAHDkih7edQAi1yOBwgZ1sD4mS5D5hd110z9pM/3AusDS6gfLdZ8tFjhTV69lW7JT4KNMtvmxRwQ821mXCmBhefZTc3/AmluTKSeph/3tyJWMlqEchwA6G9wLV67g3BhLf5izz3lFFuafJHnEMt75f/3dPyiT168kS7D9YND603eHK1JeLtysUefrw/WAWNUukJnePsS4Q+Cj/6e98cctl69dOm5zZ9sH6AEFNQvC5IK8ZRlgRMa5CxcZczhJyimSDawDGlOqwwKSB1b5iJg3i0Aia2kx1lUZqqXVv9ls+fkgck3wc3uWgKLsBxsiZQkKWwy6F4hkW07NqGrqcLbNrXUYmfY3QIbMMftOYiTjSw1gazaE3wKmmaL9eD3VXD+StANS7Wc8MY4BQ29MG2/lbI6AmqzPVpb2hmVxXVmn6m5UaNb17Dqdo/XNP76tRQCttoqOqGCnI2afxA9VtWyCX6szvW76sdmZlkMbjH1spJ/Y3q1JQKAlRs/UUgCXWXOczP3a1RfKy9evJ75veWUZNtufmepu371bVvHM335wv7xB4ol/50uvxNlhIzP3Sr1o2lxvQ+tmNOvRakPn+wP1wElYRQ9PtwoN8F25cuUUURPw+OOXiy/MHb+js/V994De1xYzqcKLQCDoZl95+cbL5fKVK2Xx3qOwvn2MV92GqijsCGPUOQS2R/pCOYE9BSmyIwBwqLpdXanfCHNUX4HJ/5RTWZwAJttDuBV0hFrwMADU7ykSa04xgZEjEpzicT3zGlRVex/vZQP2ZzmGcOwSo5fU8jC4HdKsbzjBEZmiqVkmUxojnMM4OFVKVVsdJbInA053iFfc3uba7LM8wW+fSZZMwurY4paqrfpbw3Yq2CZej7ZHHfUuNMG/iWZRhm2HfZahaVaGfnTxOvln/bMuW63XT9dRrplUvD8eJ9szTs9Eo+trAB/1Pjs7mz7aWFouS8tLYbI79ItD0g44d5uXSQ/e6smZ6QBpv7eJa1mN/MmKPzrLR9kDJ2EV97b/Clh369atpQBfY7/338+Dc0wNdN3PXTp7zJ7Opg/SAzz7TcHj+Y8wUgrfCqizok2TPv7+zdtlcXm1bO00yijxX07LuL/PvA0IE2dLQqqtyHULpAAFNP8jXBaYLV4s637HicH3oTGf8lRbMeBFDXNdFdX0+BMMvxKYnAltDWeEKeEFobA6nC+yPxmfoOj8vtoEWyq7zopNAE5Q3Oa8XUApE3pj45P12G6BzxCQODewfdkGVVvZp9t6G4SB9FE/2GKYaj/1B4DSDl8eFMJrweqwiTalvRxj4b4obDYd4kfPrn12gKe4Qo99I+gJdoAj+2NjBCgdcXG4cI71MfjZ+pqD74D2mJ1aFqj6GoZIv+3y6SU0Z5JU9AcrzJt8+1YZgBmeu3ShzsTmlVP/w9IPV2qdDn92Vj5ED4hVYpZmmeOWYF0p/1uAD4n4peMOcttlEmV2lo+wBxBIAQIxzD+//Wnc3hAxYI7dXWPO3PsPHwAm2wyHYp4GVL3GHuonQoqtPULt2TkXAVTwFVdLhQNlf/MgJZfDEHC+AxAcG8cD36IGxUV4WyqqISZDCKxpl3RomOlZ8PNh6tXGJ1jB6CzD8pzhymNketoENfSbWdlkq2vM1Zv8gICjYR5mj5aDCRiC6O7OViYLFwm1fwl8G5s7SZi6201c3C6eVICvQV36GuQN7G/kd2xtHCtLpbDaVLuDJSwaoBXw6sdm1v6RKFcWV/uisj3W2f7OyA76i/62b22fAK8QCebG7A0wUZMTG206rzHjch3r3A8TxHvBKI0BgpnHywLhOkv00QBtPjs3F/bo/QpDt47U1Wu6vLO1/u78/fA9IGbd/MmbxxdUsa4JfAcHL/vwHbdc6Ki5x3XLh9hmPzelVOFyHZuVdqv+wb4ycwYzBJLx5Mk8KpLDq/qSh8+xu3pFQQeO5Sylx7MRTr3ELgoyNIsP1wB4ImACn6CXjwAgq5H5VJHztkcFVUWFyVmqw85i5+IcziS0BkcFNjvtfrJG1VFVVm2Buzo5KKObuu3BaLYAtT6OW4cBPnz8uCwsLtKeLrzW0/k0iGlbA0QNWDbZqr2ROT5QJbXJbQEwqvFef582m4KrgV1N4NMO2L/XTOWO6qsq65J2811BzxIpO9utP6CW1tLO7KL/mv/C+Fi3Eq6bKEGwjxmBPvLkFsBrY0xeRFRZZ7gTpHVmdOOI0aGzy3kOV+uFFS4Bioukqbr84ivEZp6ifF9G1UnjPctiZaxPZ/nIe0DMagt8Yh1Lk/F1Xzq8Ic9U4/zFc89s6fz8cD3QetoVAIVO0VQo9wEYGB4xYVMzRP3z26FRqp3O29q1A7gBIAqtYIQkRXAUdoU2E/1YDtuj0nok61ETYXY1CYFnsg44BjSoioId1RTQ24KZ9cCw+gEhVThnYRNUZHwPHjyM4E+TYdiZ2nY4bx3wa1YCcHEaxa2yKPvD5jf/+AnnPAgb9JpvP3lczi6dwTZ2GmaI/Yxt2sqcGW6Q74z2oEk6eaybHmG9zbG98V1Bi4uwOFwsgG9/2BX8a724w6ZpF1uyz97Ne6C5zbeBPehimfadQOfxlqE6Klzqdfa4PVDNPjbkyNhL2arjgnXO6Pwxkesu/evIQlP6bwLmd+irNdL9T2MH7GV/rk+LBVWDtNNnXu8p5EsNsrXz58P1wImY1SXWtYCvHJxud6lzF2bb7eps/0A9UIU1gtpibQoi8Wp9ZGKW8c2SwmjxwTzz5D4hlflwbEQ9OzofsI9xTYelBQi8vvLCj7AeviNW/Mla80eFuxzI4VXA/KsaJ8A4ObnBxLKsQdRcHQuywqXllfLo0aPyxs2b5dattwKiMwCVjo++OCtgf7AynRuyMctYQ/XdwEGyuLgSo/8O3l/56LZAJpDAqvpQ60EQpr2cKaeZ+rIfdd74P+2LqsCjjH3dCaOsGWoC5gCGwKEqjhYcUAxQpQsELNioNgPseK1FjtUCPY9Ny93PevLriZr2kQuAp2Mot4Tb4YvCPq2jNnDGqFazbG8xxSfs1xP7SAThZ9gAZ72+AN/NN26Wn9x8E8nqI/HEldKjyaB5XxKc7TWzcOGnbmJzc+frQ/fAyZhVsa4yvlKeGsd29Mqz59ti4tHDOuvvswdaz7xAJAmQ3cjuzszOlCtk8/hXP/pJ+bM//0E5d3qUjMoOX0PV24KFKDfIt4pqlqcEqQqVfysEtoQMSeYMAUQ25beL6wKXgizbM8OK+wSgxv5aefT2o/L6G6+XtwjLeIDNcY3U3rfv3WEO4Ilkk5kFtHR6rKDWeU4tByAF5FTJDeTtZrscSqeG2w39YFdmIYsaSTPM7iIsMbQXvDBLtLWtcN1grHLsbIB+tcM5lA6AhH3JxFS/rXdNd1Xj5GybLcxHwLOD83GbIOnV+GZzeoIV/0WV10kCCxT4BU4z35hpxcnbBcLKjgk3Ik7PNg+biQVQ7CPsZ432/fiNN8qtO3fK9Zevl0tXrnAt68SiPTUN85f1cWNdUpd6VGtT5/tD9MBzMCtY1wK+tqEsp2EfneWj6wFV2KeXKgGqXPAh8vINlus3Xizf/ta3yt1Hd8rq+ufK8PQkwu2oBc5E+FQUs0Si3FRBTeFtLQppwIRyBZGUHxtWdQY0RT4sLoDStA3qaV0HyIyXe7LwpDyef5whdBmsj/BuEF+4u7/I3MBTgPQsoMA8wGWtOdKD3HV4NgUvzGABCoOUexF47YGCe8Se38OjY2UEAO3mWDlaN7azXlikzgzZmOmbwuKoT0HN34NV7lIGaE1OO4KBOcZQloS70Gx+0i/0A2WlW/gj4FlGfrM/Q9FVdQUh3x4BWDCIvhIFPS4vB+8F19HJEbuhPck5qrpO9GRc4zJs+AFs2ImEBmjs0upa+eHrr5c/+uPvlRUY78UXXyhTOKq8X72Apy8674FJF7xN9V55RX60W07YlVM8vbO8qweeg1nBut5Ll158FdFo28UzjCHtLB9RD9DLhlTkWbfL+dSOV0CVEWx1ZLO8/PKlcvVzL5SVxwtk790hTKIXhoGhH9CUiaheySBUeQNuiKwyYJE9qGsUAzsi2Fh2J1NCpa0jLVCVOajG3OGggKGsYpMT6FQjzT2nbcvhZAq8wcOWLIA4Z283rMdyRlCHRwAuh9PtoXo6cVLAg2tlSkqE26Bhp6gcBgj7mXFsE3V6lTyDtnFoeKzMMDxvavZsPKE6RQT2QVR9gcJW9XXh7OD8rh22kcvKzd2UbziJP7T9+aJwmB3VxaHiaU3oE8Q4ni6iJMCLdjifia+A9Dhg2CX40emGpbjVj/F+9o1eXJ0X5hO0BE6sdSI7tjOoDTOGWvX+wcNHZFk+VUY57u6j+fL73/5jWPrrZFqeKi99+fNlnLGj3lcZqqNO4pDit/fAcv1urtb+8zLNxV54djm6rfXkPHtM53fh2ToRs7ouX77+Si/Pw1fbddbM7HTof7v9ne0fpAd46JFKH32X1sNcGZ/jQrsT9PrS526UP/nD7xLPt4y6exrhlX0gjAo4gigDYUMEtgpRIApWJdCp0sKuAAk9pwE9trc8i4aeGJDs6AqBb4v8f4Kbqp5LpppEwLXnXcJDaZaYpaWVgIkhHeMM0zLm0HW9l87zaziMtKvFsKyeiKTtTnblWNleHATDxradmy1zF+ZIfDGJJ7Tm5uvD4SGI2aIAKkCRWdesFx+HhO1sAbQwyAZg69zBgpsdGWcIbTXcJwwNZmbf2Ln2SobWyfT4HSYpmaOpPQKPBbCjgh59Rz+pznbB0gZ9wVj3pNcCcGlfH/0yiHq7z/4nK6tl+yevkSSht/z45pvl23/03bJMzOMv/upXy/VXbpRu+mfX2EHraFWtU3OR+B2inqvW4zmLR3haZzm5B3yOxa75R0+OPZA78jU4eLners9nsDd1lo+2B+rjzd/mE9yUzyqJXIqbwpSTw0zj+Up5cPdeuf/2w3J5bq6cYhyvDG+X2bvUwgSFqs5aP3YECGEs7KwMTyYm66ujM/Tu+jt2KoBPlTYhKYRk7Jobj4o0sDEKIhnRAYhM4cEdJxzj7NyT8tatO3F2WI6jOXy4bEIyLmvH4vzE4gFQeoZjc4tDgLYybAxED2CcO3+2nAf4JibGAdiqSkZdBTz0astkdAJEzcUJ4j+HrO0Dmg4LawB4zh/M/8qkmn2WcB0uo/przTzPOrVUV9ddKliaKMLr0AI2+E+mlwaxSZsiFAxQphzATm7pi2lX9mwhtG+bfnj49ny5+yffx2O9UOaXlsrGzh79NVF8aU2ePlN27MvQcsoA/QTwMGM7LjXkK+t81eq5452lue+dDYLn4SlHN3fWn+kBsasd8NHn13uh35eP63PLMayis3zEPdB8mO3zp57r5gPtiDPTJU3h8Zw+e7psvI26CwvJfBaAQwPBrqMU6l3LOgJmaQpVfvMtc6nD0fiOigiTgZXJzEwD75Az7WaqdbIP7WqqpjIrF/f7ewib1tmzBBDD+haeLML8lgCdzcQWmk5L4/4U1xuA+W0z/Exmqt1PzzCFCi9cl/obhOwwNFTfPaTXkQ4yIMNBDNCmiPrhDDtG4IoXNOSNTjmgPBjUXoPMzQIqZe/i+TW8xGSnzutBdCAqMmdSRJgfK4flsiIcBmDseD6+BGSJGdJGHwYcOVcQrNscW1zLk0TK+AS+VUJVHpGM4PWbN2Pn27YvrTbVjMqOd1eg16JpmM6B4OctyiKrpX6piK20KlboPS4c6jmd5eQeOAm7xDwDC9oG6k2SGbizfIQ94EPbfGqj6rCuwd1NPvo6EDIQHmEcgPWNE9qyBthsodo5EkL9TOHUzpcJcayaJyrUCq6sRZYB0NVFFa7arLTFCXrbCK2MxkSolRlWm5npoEbwTLYmz1YYZY96LmVvU8wrMYQR3xi/B/ceREXWzqax3ykv04gNnBBKuIDTEmkaavp1262sr6AKGpi9s4OdzyzFhTg4AZh9Og9sT5rKCTIkcDPttj3Jxhym6TXweQAustY9AFeg1/vTym9HV3EugAoo0gsBwMPOtzD6LNfyKx+PodCs17bLFj1HEPXFoM3Tft+EIc8vLJXHfDYJ1zGA2SSrvkHsP0e9eI6eZxttBm3Pr6aGXMIKWIu0o7l27O88J3VP/lLD1plHtnZWn+2Bk7CLPjzn6/0wY8GzJ0+QWLGzfLQ98NSDLOhVWUMwGAkAMOndVMAd4O7g/lV0ujUYVjdsSQ+ikqJWK0gqBJ7vnzAUmEc8pzI8D+IIBTAgBjDE1geqRJ31GMrwunopx1ClR8dGY8PaFzU8j7L7ov4CMkyZ2PAcS0WIE/KC0V725W+vpcAfAKpe08qJGy62yWsH0ADg/TXKoT5jsEXtja4PwIxGAFFPcn4O7XyWE35kebbCMrlWWCXMsYtydRjsiy/0nW2Wxdn0qJUeawXARF8YqZe/m/XKl3+aH/vJ4z3Ob8uq/Vi3y6DtM68/gINjeGSclxL9yctBVda+mHC+DT6DOIKcqL2hJ53yBU3LqwvftsUL55uv1q7mEYdfVsSlHppVN7U7PAd0/pTnYNe0jG+0XSeOnxrrdOFH3gOtJznPfAUHNikEEY6wE4avAQRXr18ri/cfMRoAtobQmR9OdrUJwEVoqFuESZbXdGToxXXfQZwbwIZAwLka7AVLF+1VZkUxdk/W5hhbAW4ANtfHx+FXsjRDTQSBLUZkzGPHerKwmLG5m7DGzBeCtBq0rNTq6BBA+wFNw2NabCmOCAiajExbHhWJo0Pvr86VQcByx3qZ1NMRHLCkHdoiXAskgl3i7jgk7eI80Jr/ziynbkl7GEBiqM+ewdIBYoGbj+ekyYKe2+zolEK59bf7fREIyoKobFqwq9fkt/3IQQEmjt0FqHuZ9P3UqclyBXDuvnevPGZ4oQ4eE5VevnS5vHDpBbJN+xKgDdS1iww73gOuzsf6V/Zn1bymSzy8Xoc6+vGa3tuwXvfnqM6f99oDJ2EXfTnaS7fzmj1+cfhUZ/loe8DH/NiHOM+/KhXMQJsQcjkyPlpufP5z5cff/VPsShtlamAowm2cnM6JlupUy6t/kRWkqbI6QVCHhkzS43cAOgVXVXcTp0YYJtfrQWCd8EdWmWBihQ8Acaic6q52vXv37yd2TS9tA/anah31DZDQ1qc9UFA2oFlmqNBavtc02ULqJWNtMh89zg7y51QQi/oC7mZw0cYoIHu+3mVDbNIneogpVzYswdT2JtCCPYA0fUo7dntV2z1eFlrthtZNkLM8mWBMCwGXCnjejIB07bZqLrCygk9zm2yao1IPmavO3klSy5uOfjVJGsikQxsNMzo9M1tmT58lq84oNr49HB6E4lCWIG6S2a6MWhF8qTT/7ZjcOcGW46x/wJF1nTRe2f2+APyRY1nNj3x3/hzXAydhF9047G0YtHOPW8yU21k+4h6gwyNXzWLzIPtAywJ88FkqIyOcA2EenzpVRibHy9r2RjkF8NX5a2FFZDRWmAW/TH7TLMjfSni17QF6MBEziTig3vUWo9kCCL3mMMPDxjBpDKHmOrxK8NNB0AMLlCE+evS43L17t8zPz1cAs/gd6gaAGYJiILFJBmIfZOhZYgQBNRlmxtvCTncFMuok2B0AbAKZTHTNrC9Is2UI1rK9fkB9YxMmyvE6SHQOCH46MRzGpid4aIgsMDBESuK0mjJK21qmv8zDzHbKtwzho5enfBeV1GOFjgAM3wE8jq+qPzZPjm95dwUq62lxqTvfyRRD+01KOn16uowCfitkoLl95zbHeT+8h4TcQD+H+keBPdP4E3sJu5aSHpgUlSqY6aZP9R92770WxLxSBWCOY0td6vPgb9fe2e7ep3+5pbO80wMnYRd9OSjjaztqY3gUo3Vn+Uh7II9r8ymuj3WzeHb44CsIUQlhB6qDA6RyOn9prszfuld2R2EbPvAyBcBCgVQV643spOQIiIAYAIJFyZ5Uw3QCbDPygV25jgxCj+wkAjxBPJ0scgepZFBEVFwv4RA002PdRZ3bIIxGhuUQLvFZz7DH9AF2srSEkVB2HB3UbQOw3WIEQxdsrpt6eqxzUqjZ2S4wBVueDhcSM5C+ybCYVRwfgp9e2m2AU/VUBiqomBnaMcXgUUBvAqBWNR4QHGV+XDNzYtAD6RcAt4JDZX6BE/pJ1fJAvZjrR6WkzaqhvhAq8MkqBUvyINJW8/O5b5dvWTJVKyP0uVmY5y5Olw369gd/9kPaQ/YWXhZWcIFxyg8fPMm9E/joAWyYAzDaUV4I6OXchC7rYOQ18CcrLV2waMr2VrrkPnmv7Wx/83HV7XVLNnf+tOmBk7CLLuyX8alYHbuYiLKzfIQ9cMITq3Brzzm0L/E7Rn4EaQQhX0pCUhgWArMnGFCWoKcq6g0UTCIjbLcsCkpZYTOuKzGKTGxKOiL6k3dP8DMjSpIMAFae64gJBXkV+90iaaVWGF+7jXo7PDhSeqmHoTX4lpHxytAEPYem9QtCnKeTQ4RYV4Xmt9lcPFbGJItzTPKQQ9tgPgZDTxIrOMA2gVL7oMBzoEpO8lUnVN/FiSIo7gAyAsXGBtlhUCEndkYDQDJOw2IEb5uuOtwCCDlfkovafBa3a9c0DtLusH9U/e0fgdB6Grw8wEgV69mAfaq+b+HJdfY7Di8HDOWbXFoA+C4yJ/JU5gb2ZWMew8lpgs0ZqbK6tk0w8yaMcCWhNqdoo7OA9fXgxQbsVXl1fmBoAP+kgTpyrO07S9Tb1gbqbRO8x622vXNkZ+3ZHjgJu+jCbhkf79DjFydG7ix/cT2QB5nifbYVwAi8TzVbBBOHOQkWDvYfASBWGRg/juB0wUYUXrOpBNBUHS0F1uPZUYH5TsF8WVYdA4t6xXmqhDKa0YmxODUEzw3YjGqb3towRoDL7CyquObf68dL6axig8Tz9Xb3U/RBxuXKfIzPUyx7ub7hOA7pGhsmuQKANM7QtiVsedYlajmgLVNTFREET6Eujqlmc94azFFW1Y+6KPMJC4MVOVGRqrUAJKD39Gi3ZHIi5ujlkuk3s1T30nd2X/rEF4E00w5xW/65z3WdPvQLL5HK9GBd9GFUW7cDfIK3jhLPM6ZRUPJlIZvUofMAFvzCtWu0VTWfjDaCOG25MHcBBjsBuDF/CeC8sgLzpa4yP+MZM18JQD5xahwHyVgAeAfg7Rmkslxb0A4bte50mtfNDn+2Fh+Y4xYPPbo8e9yz+48e+ylbPwm76AZe3Xkkj2+1mXQ7y0fYA/R4WNmRIlvPYoAOqcx+BVigQKodLZBUUdiwFhYel9HpEfLkMTUjNivVQVmW0q9wKiZ7CM4eQrOvXcwy+GQUBcc40bdgqeNijJCLMbIFa1dcYuiVjgYZnqnkE7ZCxTTYC6jTU9NlenIawAKsVHURRj3BU5OM7MBG2ANzUcZ0oAhgqpxmWxZlTFv/6PHbAdBt1FXVYj3W2hEtaU8mRZID+0Hwt647sDy/owHSgE3Os61mRIlaShCzYCMzoxvykaXGGYOJwBEZzg2sf1tPb8CewhwBku32Qa5of6Buo3JrXugDvGSqCSmSgXGcbNDAbAFwnP4y5rCfj2C/BhMecwgeY3Pv3rlTJkeITZyYRr3vCjBTFRjtVJnkWNmjy8G+7SffIYkXlp+gusv8BrT5OQ6YESGMTNnagdk6PxPVsZ6pP/3lsyFw161+P714D55ecnBamhfj0zs/1b+eg13OZJNn9thO6Fdl6SwfbQ/UZ/FdZbY2H31AZS5uN3HnKEO8Ht++V54sLZZRvIcCmjYpBTM2QY5UMByL6krsY00WE2cC9McwjC4dDJ6LeiXLs4xV5sxYoFxTyMv+BvCujsLUTBJ6cJ4KUGTUSexUApdJCQzKNUDXSbYFBMNZKig5jpZrIPXa7xzl0TA+kbb0WgfqtA9wLG0upg62UIapV9Y4RZnpvuEfbDPRwjZgusAk6/Pzj8siKuYI6fn7ek5Fjdf5Y9v92EYX+8BHWpufiQh8ulvrCfKmXBsUVkxbBbc0kG3+E3DjVOEbs15lhLS3lY5K22kf7Lelojt29xTD1PRIjxMLKcPV5miC2QHkx5eWjF0GaZ/HYuk9oG2gcNq4uQ6w7jGypWcQWyCJWKmjmarDXAHgPlRnLYU1H6MNpKZpJ6snLvWg93ToieV88nY+B7sCfG1b5QPQWX5KPaBA8oS2gK8FeontwwQ0MFzBzpEPI5MO7MfOtQ3jgY04o5ecS3BRrKuqJPjxQUX0I1VQqPthNTHWw6DMj+fQMcNOZGNih7O9ObvaKdjcxPipgNzaCiowCTijZqo2U8ba5hqpmDbKLvP/bjMBuqqeF9f7KvPbpV4bMDQZn0kQFD6BCgtaFWzY5Fozp11UWMqtCQ7krYzIoE4yvZVVmChlmDFmEA1kkvi506R7cn5e+0rVWrYU+6jttx9zteaXfUo/2DMCj23Pbo7zt8fbLy6qsT19Ol4qiIbxeY6sD+fQKl5ow4F8KQwKeKi2dtoEwD/LPLvWawQV3hdBTx99oPOCawtkYnBFZcrnejqxugE06yLLXl5ap7+2OX+IdPVM6Uk4zM4eLyb+7TLfivkM1QoEdvvJwOjnLnkYnnvUp/KA52HXiYwvD/Onslt+thvVhK8IrCElGvx7EbShsZGyTsYJjfitLMWrgINMC+Qh/ROwAsgptnuoezWBAL8j2IaHOF5W+yAOA1iMHklnNFtjnK1sYgy1dZq5MaYx0Ov0sCRDSzacRQ1w03HRRfCTHslthHQb8NpnJrhNEpQKeAqw00gqnAZIm4rKEBrZTWYoQ2A3YYFmUdaWJyM0Tb3gqwouEG8BsHp11/UKUze/bdDZc6fL5z73crl0ibmHUaPXASEBSSeFLFSG21oq+IlJ2u2Cx1FhVeEdm+zETuAO/cofKit4VpDTpQ04s90RJTuw2ox24Tyh04+TLe1Qd/vcl4iM7tzZWVLqv10TL9D/yo25Bbd5KRhKxAp9X1VdGZ8eRSsQ9kvmly0mWNrZhv3tkbprhcnk+T01Mx677s4ejJm+TOJVTozDh/40xOd5uOZlWsvzjm0d92n5fg52ncz4Wm++T0tn/Cy3I4SACraYnuLqG558KgGuXvL0DcEm3vrx6+X0xCTZWhhVo20PAeziYwDxgaCHIDsKoAvgSxAyoEChEVqN884TIQPpUV1FMmRb65swM1jdWmx8srU92Mxk1LcdhFdPsyCo+rqLdxc3QtTWfUDCGL0tgnitt6zMCYJkM4aeyPj0vu6xbaMPNZp6CoaG2GhXa4GetjAVTgHQbaqYZob2rT2FN3T23Jny4ovXytVrV/DiOs8vsYmAcQKDaZ92RRcZG9Wofci6ZVqXtJ4dgp79JfPUuyHYBaR4GdTkDbRVVgWgqlpuM7+vIC1ACqwCrCApaDk+2NEyeqfnzp0rb52+z37sdpgMenAAMcKZEuhgjg/T3Cc2kbYJV07GFNDjeJlcA5smcJgXkwHfd28/RK1fAuxnAMCJ0t/D/MOwPs/nxoLNTQZJ+6rKawuPW45u/WxB3/Ow60RdVhWhs/y0ekCJrW9xQSRqKv3v46qR3lsh49tE4JZhaCN4RqsKFfGKAMjkENswHdUhQ1IMAAYfWTcTiinUdQigTFKwDgoDfx1+5kTij/Hg7jG3hqrcBNmRpydnmBBoFCFFlWRyc217hCWXPrKMCigyPlVZmZdlW8ekjJJJot4mPbsjF/BiyijDqvg2dMZ1AU+R1TGhfW+wDxsX2p+Apcp95sws6dsvlvMXzsFGifUDr7YAacNeYl8cgJ2xMaBLua1FABRsajC1wMcLhGsKYgYy8yYJ8LX6uQWcUYN7qt2vQV/624/lcYKVbTJM1Wvtm93UmZnxCDI/xyRKeprfeOM17LArDnIuw7ychuhL+aIhNYJrLw4Wz0kAtt5x6tLfz3y9AF/sp7Rjb2G/LD5ZZfLyDYK8YeBnToXxc2dh9taLGEf6/+nFOh6ziIz8r0ubY1q7P0Xfz8OuE4HvU9QPP/NN0V7l4t/WTRMcTHOU0RjIqiMsLl17oWwhEHISvZgeo6eyAaBZhla0ymiAQNiGKtY+oCdTidGe42QOTlDuyIpdVFUDegcHGHRPnN6ThYVyb/FeeWv3NsA4UMYZiH9qnIShGPRlkpCNMCKHZzkhj1NSGsMn0xRcZWOOsFBN1Tmhgb9PjyoApV3M7C4Z10s9rFsfIS+tjyCtOHfxbcKECWxok6TdrxN1fCUAAEAASURBVKCn+rsK+MBWAQu9qrbJ6wpyoq7A6KxoAlrr476ANG0NsHGc32Kf5XiefMuOf4ol8Fump1NDwNKbqxrugZVVA9mCFGDntJ+nAOb7by8S5uJ0AXhr6csRPOeCn8Au4BpCNBDv7WR9IXH9fpB+eBgxJEwpNjzq4stobY38fpurOHWWktx0bHK4nJoez/m6uxuoyE7clKrT7y513G8T3CoVzPbOn3f3wInA13ojvvu0zpafVg9oSwoYItUj2ODOXjhf5u/eD/BJAHzMBT8JjwKc3G/skO0l3TngYAFoSPxByAEFj8xvvi1fh4MZRSZJE3WF3wskJLh7516miFxdRPj658sIsXkZtQH76VV9pBwF1cVvp1sU+LSJCcDjpLByRMYp4tVOE+6hbVFA9+omQ5DRDWFH7EfIQXfUXNVK7X2cD9gPo9YLCtY1Q774FugET4e4mfxAFun+vCCoE91AvarKK9jJbAU57ZTrjiKxvnyMS+x1AqchbYNkmmmCoizZvrIfgbeUbZ20PWrzywuJ441PdOSIrGvH7NXUZQSVdxC7XrJZLwPyUbUPsGWSwZrje3lR9BAONDw8nlAfJ1ivAd/1BYV+7IXBNMonXtJErduEtcw/eYQJghRYgKp9NzmtQ0XWWoFbldwdeq4NaG/ektoOT9DLn6X13fz5Kf+qz3n7Rgp86Z7jDvGBaqkBx+3vbPuL7wFVV29QDPkAwiQgssJoCsfa6lBQwBXSmvtNoedgGEGAT30WJHCaj5AChMrdOj109+8CLH0EAQsoAtMkGZcnsKk1sPE9Yj4Jwe8hc8TqyBjsH0bgyZ5CGQ2EeWXFVPSMViCMYwp74BSxfmOAnftVAy3fIGWDk/VUes0AtM8UjG4Q4TZTsyrgJkxqnbCXPKyc3w0oaS+LRzuIThtpgIyz2tlUXXEeaD8EmCxXtVbcEvhcZGuyPRmbw+ec8tLhdAKFKukeiU3NJA2awVJhg5STWeY4V8BMSAlM2mN1xGwCfl7H+MMx1NezTLQ0ANCZDNW3zigOFzPNrK0zUoO6aCu0/ul32psgdNqsicKgZx0jmgp0Aul86iZUKM4YyncUiv03AAs/d+4Cnm1mcAP8djYbZXVxjXmIMVn4vqCfvM97sHf7Lv2VO6xQc98rEUx/5E+zb97Z8Old816dsJjWtv1iUGwH+Nr3z09jT9QfnmAnGvJhHiRB6TC2vo0nS1ElZSn9BMCqSjYQYPhP4r4UuGQiQaiEO4UgQ7nyQMCeEDznuzDC3XG32ged70OYnSQpwiw2q1deuVEek6RgkWSoDh1z1IbAs40TRODzPIFvhuDmGUJgRmE07h+Q3dE5XjPCCEPxQQzAItDulEkJKM7Dq+dWp4Y8K7ZJSKp2LMcNO6m6gCBgOYRPtd82Wna2I/gull9Br7JaHTK+FAQ+QSE2SJEx240xJISHj/3QYqIRltjE6A9eJrLFgDH1igOCc2VpTrY0SeyeQ/G2GXurKi/b6+Ee7fHbhLDb1KuH7QOE4JwaJ8SFF8ow9lJBcp6AblmnYTr2o2OpZcAy7qEhE4M4uoXRL7A+CgvznZk6A0ATwE2/DXbLIAFsHB50RlT2PWIC07H89Tmxj2t/sIFFFv5ZWsSuk5YTGZ8PtvFineXj64HMYIbAKuQKodlTzNiyTQhJA+mXxfSTl2mPOXe3UelUR3sZ0qU6qCqm+llVvAqcPv8KQdX6tP2pppL6wO0cv7mxlnPdPgLI9vfhWIC5bRCzpzz1Y6MahHVaF5mm82AMYpzXBpgQDYz3npuxsBzjP73HqlxVlayqpSE0i3hAN2E9GXWCHayPsjLeNlgm61J/Nw4O4EeNSxm5Fbaptqt6OJuA6PVsCEumzGwCl2zW+Dw5gADquarJeo4HCByWgfbQdp0YLUA1hVRVpbksnWWgd4K2BysQ71Bvx9yCbXFy2IfJD0g5OnNUfxswUh0gQ8iQ29YIEF9ZWi33mEvFVF+yOqrcBMAlatfFBE9nytzcJZg3kzmhPvsCmyIh7WmyoQ/007e+BHaoS94fFeRl05oLDHWpRlh7oIKfa7m5Wfns/BG7TlhkfLymsAYdd5B2jU5iquN65qe8DaHTcK13V1AZxW62+PBt8s+ZCRivLM/72o6saTeGdtmOHtMAkVVFGIECQBC5QJCiNvLdckioVirxsj33Z/JvWIgeYBnbANM+7u3ieKBQ9zukS49wxu/C+AQ9QcFJi5xKcY+xtQK1sicAbR8wcoPf2wBIYvhgeNq+dIxUpgdrAVAFxt6u6h02YwlkNUAVxLLe/gti2yiW1FWwqz/DBlkXkmVvqrq2VVXSdbsh22irKmL1/lZzTsoVFGVqtFvgsj9ljBUQq4NoRLskTG8LtqqqGrZN+4fYNowqa7YYw2C4NTBg0vIDbk9geI+YKnTThAfsM6zGcl64coXxvaQcY4z0D3/w/fJH3/lu+e53v1vOnr9AvOKVzFt8/tx58J42akckiN1rbKxzLzdg5qex99EHOpR68HDb1toVHM+O+osDstXvz84idrVfuvYTytl8bt51XKL137W1s+Gn2QOaGmRX8jWZiiqpefMGYWGLDwiaBfjW15cTGOwxPP3wMM5B8LVbxRPL6y37EAzLE7wczuUQMr2MXf2Gf8gOYV2MuwXusGUhuQIdwKeK2zUC66E866L9bBVmKPuL+oytUXBaR3WTCXlt0Ugwkc1tI7QyLetj1uV4fAEiQ0wsX2Aact5egC+4xnu4x3zyLD2EbyjQCq/XrSmcEGk30R8+u4q54GTd8uE4f1ueH73e/ASQdJ7YE3q4zRRD9hWqamLVgAasMwkgKDMeXTzeW4BVAzsenI2MLTo1xrFlEqICGd3iPOuuqmtihilGutzvfUgfrBNMXsoEtk1IWrn94EG5efMWdejBhDBXXrnxMqzuQrl48RLAaYhRT/niFz5fvvjFL5Z/8k//WfnTH/ywLGHHffXVV3E6jZdlythgpIwM0REr5hecOc3wuDGyZw9xDwgv2mbe5X6cNfaJLys9vjJmqkef0OZ0bAW/lr+j/qKxLvTd4ZIDWiB6uPUTtXISdtGyfbOzcOuPX7zpneVj7oHD57EKf2rDg60jYplJrA9QcbtgGY7CGNJzCFtRyAWpfAABQtPUhAIyCXkQYChIoQ0QIvCqka47zlQ2JF9IwC0II3gMArD4Y2F9qMMyF+1zJDdYZLYxHSvaIh2D62RGOl2Uoxbw6YhJSIjqn8yLnRWUEFKE3pAdPbkgNkHYGPe1EaIfyxZ9OsNMrTH/BTnP137nEsBSI3ZbAA+Bp44Cl06GqKwKfoAxp6SNtjVgCDOwLAE4TK+LugOUzjtsjKJsTDD34F5CTqyb5gXVZ0Hd6+h7FmzitOBeqOarJi8RGrRA8oe3F5fD8pyu8+WXrpcbN15hdAzD23AG2UYB6uIlWd6lcu3FF8s//sf/d/m9b/0BjqUH6feLbJdl6sk2CP0Cnv0NgO4xM/BNoQJPM4dsg3x+y2tktMYmmpnzBMC8vAQ/gdC+e3rxt8/Bp3E5Cbtot4yPKQ8Yg35c4w1q7Swfbw8o6FXmlXrW+ejIcBTHFA6I+dv3Sz+ewlMkE+0DpAwC1s6tMJvVw1ETvt3Mi6edqgc2pcfSRdZUY/0qY0p8HMB5dNC/qqEVECiQpQiPICOoRlUF6CxIYY9Rn5EHMgzV1prIc6+sMIIjs6FRlsAaFZqygLyAnaBjJhrjDTW6BIgow8Vr8p+lWed0gfUFMARGFplw9nOObDP7AL0WC0zcnSNZcjnUacFJ4OPYOmlSzbYSGyRgZsydnuA1HA8bzYw1tkWPdS9qvmOGLUMgajT8hilSXh8ODp079plgud1YKGt4rDfwkvfihnWeDp1AeoV9KZj9JgCOtUmAVf29gUNJR8cwx/yLf/Evy49+9OO8oGZmTgck+wBqh7Vpntglk8sGJgPHX01M4QghLY9ZbPoGCTinrXvE+tHqAGGl+emu2qG1O9Or6d/ayYcHNHc3f3/yvk7CLpq6o0zw5BZ67d3LBokUO8vH2wOCk4tfdVUVhDUEb5Ixonpde4kBOwdj2FuDbZGyanOdKSRBPz2jTsDtmZXxqcIZF+hjzV8LBGwUWp0E2rd0nsgEHQ7WYlCyv1yfbaqrYWKcKkOSqRkO4uB9PZUyu+AQfxRuA39XcGSo3sq6DGMxQLf/wGBejfeCXQv0rBNX4iNLSegK5SdrMqDmse4T3GqNKgBW215lglSLxWt7aC1HzU0O2xMMt52ggkCN3bPGDqqyytJUp81azQdGK/g5hMy21/ASHBiaGVBPB/GI7+HppjIwzNrXGR3DPoHXc/e4xirg1oMaPD09Xc6Q7UbQ16lS50nWlFBtjfaPXmZnu7t85Ur5m3/zb6Tv/uVv/3b54Q//rFy+fCXAaBKEBdRgvd0DpLZ6PL+ZzDqXLl8oTqmoQDcIe+nCmSMQHwCqvkLqHbdvWPxxZHnm55E9n9zVk7CL9m7J+DCTHr+sMR6ys3zMPcANkqBp4FbY/RcWKKMiFGUMD+vmo0UcCIQ9IAzG4Jl3Ty0HWKDy3l0KQagT4gFoGKcWgKHMgIosi0MDFpSbjC6eFoZUVV13apMT2BRqhVTmJ3A6xnYdwTU0w/0yyvxjt8c5Nlcgse7DjeEyujeSQGTHFjubG9QQtloFFFoVu5eqpHY489XZDi9lHcI20yqu4HU8j8rLnDzEpXqyoUHEMUL8qlNGgCesJuOYA3q+BCg5J2lbVN2njQB1AJw6C/ICsCNYDDg2qNgECXpqu0VTqk7pqZ/JC6yAyRisrOOUNylLtjeDTXDu/Hli8s5x/jCAWYf7deF990WQjNVcWxXdvhKUz8+dL//x3/5bhMFMlH/zu79XHj58SAbnqTA66zyITXRkj1Ak+n7r8TL2Vuo4zFBDHF/LjPoQxGWnqtHJztN8jqxxFn4fu6Q/jt3zidp4EnbR9A1fEGvtWrS63HZXu1M62z/yHvAJ5S7xv8Ieb3SEXMA5IIB1BnvPbUIkNsmeYhIBAS8zeXFa1CjBQWBAQFSBdY5UUbU8j1F0ETrW4z30Qiz+lRE6LM6xvMhlZXuWI3BSB7OdqFptEYRr1pUtGKazimWYV9RA2KfqnCyR82pYCeUBaJYtW5RpyYKoVgTUYV3asdwmM4sa67H8U8gFOb8FKIHJ3x4jGzRpgvV0yWvCtgMy3dTV82WoNti2af/bhqX68Xc/5ZixpsYWrifLshM0udNEBBOMmpkC+CZgXAKKGWe6YFNxJXkvuLBxewKbTFWgd+jaFvdkims5/M6RLBmuJ9hzvPF73osRkhDsq5ZS38aWW2rChlGGu/3Wb/1WeemlG+V3f/fflHv37id5gaA2PjFFWcZgWhTlEdC95Pje1S3MHhM4wBihQvl64HOH7Zc4LWySV6jLO2u145rd19r9if0+Cbto8xpPQplv1zpjjjrLx9sDeUh5GhXoMByqIyAAAa5klrRJbH0PllexPeEUIFzC7CIyOVWuPMgKu4ClgPJPQBTwtBUKENoCjX9TcKPitq7HJbxmClGwASqHmMmUrIMp01V7BVPLzixtMB8zs6jOGaridxegYvYYHQOCn0AlmPoxLGbQkQp86xnVg6xA55pNQLEK/KcusrQ62F9mJOhloqHUm3eBjeJEt3tCAMFoLa7nNVVTTXlluinHE29Qhm3Q0SLoCYYb2Cy16/kxpZRJR2V4w9j1zLYsCHbBopwOU+BLQBj3QoeQ+fWGYOEZUke7ZZ7Ad4DQrNQCYvqTbfZ91F4Y8d4qE6oTH2jmHJ1EpvcSkO0H09l/7Wtfw/FxufzTf/bPw/6WudcrTAvgyJg6DrqHuvLSWTMJw3pCZs5dmC0TI1NlfYuECdwjHTbio/0aBxertZP8zlPiSu5/Ex/9lW2fxD/Pwa55Gd/Dd5r9dBOX8UZ1lo+7B+rD519ZS130wJrR1yFrpZw5f67smskDL98Izg0kv/RsASzYm7ZWTeuuQ4SADA9GGHm6U4xAUvlFs1jAIYKRB16QrIequsKlYA+MylBgASlZnSqU7HMbUHUS8IEuEw4AYjhbnJdCu5/q2yDnBXg4zyzFGvGdjnKUbwEhmVb4HkF90/4nGCt0wTGubT093/roSRWs6jZDfeo2+8JjBBslXEYa5w4HAH35CE46BWL/pPDqlWUnpxjqosNmhf5STRKgVG9HUF1lewYhCyAOUdvFfjaAGt1HrIpByz2tlwxAOEz9ZXY6KxYp69T0ado8ynXx/VJX2bJ1dbheP2N4k+af2jUAY18mxjPaPlmyNleZY2/vHimqzpXf+MY34qj4wz/8I6a0vEPOxGEyw0xiXtiFCa4QV7ibnIo7O4vcnz1m55vlmFHGGq/TL77kfMFxHeqxT131iNeepg+eWo7f+tQhP+M/TsIumv+wF5vHWy0K/GxbFskM0Vk+3h545+0buaEyPpQKkGCGYRwAkoWcxblxDwDaXcbjhx0Ki1SEZ0sjO0KkYMUzKwog1Nz8vPlleH74nyX2ORHHbQgLEpP9prRXeGQpff2wmEZVV42PP9CjiRArSMa6CSjrODSMDTTWb0ADPnWz7g5rcziWoRzOrqboWT9ZWtRAWKVJVPNMck0F1flwLTvz72pDtH60Pe3nvGR8Fiios+OEXWRvtoXdAVB/a5ezDBmrs6aphtsP8KGAjWnyZVImGjU0ZZohZGZ8HodZOU+Ik5jjJoc9w1oBEVmsEyzJpr2W/M4RHALdHvflEeEoXTBGu1YHSOYZJubOeXeNqzN5gf2c+mAi8KUk8Fsp66V91L70JScbnLswV37zm9/kPvSWb3/nO+X2W7dzbYOac3+9Fg4umf4qwOs448tX5sh0M0w2aBxeOLoCrrywtHvYt6kc13LJI+CFPwXLSdgl5snEX2vXzoX5xXa7Ott/Sj3gw1gZEN9NdPLZNHTEwFdVPT2no6SsOntwsTx8/VY5wKvbjcrV77heBLCB+ibwKGBVqCiVh17NRxCUWeTtT/kyHZmS+2raJg7hcEFFwcw3xYif2v8cTzoEkKmaObxRO5pscF3HGGWZ2MDRDNrjqscXAAMIDcSV+bXAy6qoCkaFTu4ZgEuGhcpYHReyOR0QsDxqR9Gpt+2x/mZiEHx03Liogqu+B9itL22yD1R1nS/YNPLOKpdYRsEW1XUTm9ym4TmUoRo+BNvTWaEq3kfb+6m3wGZ7BjhH0BPQZGe4wylLtZixvPSHyR5kdyvE8ekZDtMDxKznAbGC2hK7+a0X3dg7h+vpmNrfZzsvGEfJ2Ge+aPpNbMo9tv3Xrl4tA/8emWC4v7//+79fvv/9P0n83/m5OcplSgASSmQoHV0ySN9vTG2ROYZEppS1ix1Rx1ffoLGaenyFfDonn3Tbp+bPidgF5nH7ur5l849b5gmQ7Swfcw8o2KmCQtysCysCkyMOTAiwj0DuItiDTFc4fX62LN19gAAwtpZwhn7Yn4J8EOGkDBkcx1qqY2ijHgJq2sMCas1L+CWQiDCcFYaFtHgCZSEunCvIjcE2uhA42V3AFXCRsEFROI94Q77Nnadzw5RSYZHs1qbnYRV4FMTKJmV+vo0Tz4cDQQBzCKpAzWZOsA6yJmLj+KnKiI8n2wUKhdhrCfLWXzDweAyN+W084TLe5yU+quPG41mHTG4OGNkO1Vq9rdY34TZcy4v3wrxkgsMwbIcOOra5zuKGB5W+tho6bsxIM4UK6mgUWV5MDDTWVPsDTXD0HaQtz7r3ERojwLnYfkHOF5AvI9uih7gXNrfKWF8X5/f45m/+1cwp/L3vfS/MThUdehnAllVP4t0dov7LpBVzsqehCYAZ1VyvtgknjHux/1Npv48sdnP2Hdn2SVs9CbvEvN633nrtzy9cvmY7be9Ty/yjJ7kRPpSd5ePpgdZNEaRaD6PqoXdEtrcPS9CLCzwQvX9QTp2ZIUYO4ECA18ng0oUgdguOnC3oKEwRREsQ8ChH4TZsw4/3WgDMsXxXz7C+SwVFMLEfqpqto0IPrKCpl1VQMampNrsuWJJsThVNppgHjPI8J9fnwnGMACpeU4xteX+3ATyHpnntbYeNoZbGNkU58ehyTnVuNLOuAFwObUv9BGDO9zghO6EcfLvuNjPBCHyG3mSOEEBO0AnI045B2FDyCJKfUHtkWKigy8d+UuVVfTeYmRpmu40L6MPgejEDaLucYe6SYdLkb+FsEkRV4+0nr+W8wqq6WwC1iVmd34QSAnb2LkVnEfyS9ZrjZI0GTOtpNtbPaT2/8Y1fL9dferH85LXXsfndSwZtWZ6TRJkJZocxvGswzh7skaPTqO6ztImXo80RAK23H6/navOyz/yodfkk/fXlIXa1WQ7EvPqa4WXEQY5Jetcy/2ihnCH3f2f5eHrABzL2Lr+aVVCMtblln4HHbgc8egQ8DO/DgN8UCGWygI1t4/pwRKA6OQsbxAehrYGthpKIOJYjE6yBzNVG5jUjEOw0acE+gIaseqGwCoVSpnQIWpQS5iQyst3YNENTkuOOBzGgxjkgBILXssshyABBy7tb1XZDYgjDoAyvr0q4jvppLQNQlL9FkPYWgLgLc9mlXb16WmFjmQPEJAk0wX16gAUrMZ7D8DDX3HxrqLkmGDDpqZM40UE5rpf0XqqyTuQ0Sup9E0BovxPfhH7LSp/Z9+kf7Y70JYX7osl8IwAUQ5/LaWLqpodGy+5wTzk/c6ZMk7OwwVhdp+kcAZTkkL3UbwBG3ss197G5he3SZzLkulQwtK/1MKui03LCZKDA3bA41PBrL14qs2eny1vY+1577WZZmF8ob799Bw/vYl4y1tmXxgovpS0nNd8FmE8xhniIlxCe5JgI8lqsz4HgnJekDxVttE6+ZsPUfb68h34oN4fUp8eDs9as+Mf6JWadsIh10Rb8NmDvWOB7/HC+A3z20Me0+GKuCw/b0aViFgLAAfV/9qrymgNunKkON4jDXF9kkh8ZFR+e4sPHM2NreYAtXjuYjEeg8Cru8+H20dYeV0GoPtiyQraKJTm2jnYwtk61FOF3K3akA+1u2K5AhowmEWRkeFwsguj4XefM1dspq6ogBQsCOJbXVwPCXssEByYRNWRGMJWNqqn50Za4BdPsA3RM4aQwQrAoq+7Hn4PsqvaaHMGRGDAg7HqCiOyU3ZHhOopCWxrhKAChE6e3GJpc2hYLzgMEMqvi1gBpTnahHi0GK0iqVu4JfvTh3OzZMjA2UebOnsOpg6eXmdQElpgFqCtNil3PetP7YbgxPXBPBT/tfmGi7NU2N0h2lmpOsD04L7Y3wqhHseW+cuOlcv7cWcDv9fITJqS6fecWwDjKELnTKWd7y8zaq2HoPh++sGTGA6a95/phnPmLE4z74csuLzf2VfNEra9NzmLlc15rw8/Ot5h1wpLg5Oarpesxt2/6uIMf3X9cXv3yjeN2dbb9lHvAx1NBcxGU8o5mYzb5IGZHF2/2HQzyvWX24hzgt1IerBCWBDM0Hg2pAwxkc5woO2ueLyhZfrynMMI+1WfOkTEk3s/yW+flQE9EXBEQQzJ0KiQeEJZgoU7hKDrKjNwv8LmE3QiA25TvOQIgjpF157PgVIduLVBfhU2gE0jDdDjH5AB6PWV2PYCCzhIBbAsVc5B2GayrTUyWohfXde1+DkGzDIfWGR6SmdPY50vFbmiBjI4JHRcmG7WP9vCCGhsoAJukwZTwvhTseb9lUn67xYIEKcHYYXD25/TMTDlz4RIOoIm0PyNmaOsB4OvLZpd6aqMchPXp8LC+go0vG6fpFHxtr0Ar0xzQC8y1DYcRuAwXsj2cQv2Gcr1xVPSx0fHy2k/eIOffql3aPFdnDYCHzdOwl35iJgfIo2hwt+ebJNZjfYElEN5WskFbq3QZ7pf7w6+60GQXz/F+/ywtYlb7RaxrMb6D/dvcuGPR7cHdR+3L+P/Ze9MYvbL0vu/WvrGqyCruTbLZzW7N1pqRZyRDS6TRKNHYTmDZMJAgygIINhJEiRPkgwHnQz4E8acgQIIkggXYchxbY2uEOPJ4tM0+0z2a3veFTTZ3srgUt9pY+/Lm9/uf9xaL5Fuc7unu6e5xXfKt9773nnu2e57/ebbznK07P7YeuHtoFcGkDLzck4IdqXy1u3RNEXCgt9r/6MNs/j1XXTk/ltBKWLP4RoyEmGpAK5wYAAUeteNu0UY4l1qkiTsF4ly4vnCXLlErWy7qoycBek8jQQOi0a3Co3AJEpJ+d1iWITABhAdCuEtcV8dmHpYhCgkcEvIkUVHkN2vgUy9ne7eR9zbSGcqpdxvbZMLBzfBZQZdlObZJwvXbw3a5okXQ02AgdyooBnC5J/g4AehLqAiq3q5H0Vui977ARn2NtKx11yWBrthYU5ZGB1mmHtNQHs/KyQlgBg+4ZTxDjBaju3elnCnE6waGDU0yhr5yAyJFb+Cz6mTVRS1WCmoF0NW5zgeUdRwXDOU2NZ7IIffq7N0jCNK/AKCL8nv4Lbf66U9/ujp44EF2fDvNZkU3w1XaJ1qHNdDcYnWHASaGF9wWwI3qMSix0iNBFgR0X6HDib6ylTSNWtK/+aYPk8A09sDtI3Pe7Z8f2Nl9MUus4ygcX1vbcc6/2Kqmly5cbnV569qPuwc2jrD7lc3ghPIDLm46Pbh7tDr0iZ/C6rtaXR27COhp7JWjAfjI00AGgtH6oHV0O+rJQ7FMMU6gkDMJlwFIlVUZcC4QiMYLLcuShnvuCmKCXgNOzqOsP2XzcMAPTAg3pN4uoevhjMJVWBcNIjy3RHnz6O+SfsG1pq6mYGkXCRcBPvnSHXB72yB8MVaRV47RdIK1QJC1yuQlyOkLJ5AISjSUNsnJ8BBNFED0+7P+WnKzXwgAoXhMhAHqVFxY5ADDBdJGATF+hNQ5XDP5JU++BSiLSfsAug4MDQP69Fkv+sNgEgn3j7uL22l22f4AktFe6DPaoPuObfAjtyp36htJnSlf0NcNSMOLOlE/vieB3Xa6WkYd4naiNh85coRw9iOA3w24v5uEsbqGmxFcM5yfu+y5Znh5kY3jGQgCXy/XjTyjYcmJxyWObl5l3byi+4sDJfWxTvnnWLHP3u4A5cH3+bgvZhWsawJfo+3Z2yP/zlqNnbl454WtXz/WHlgHpLtKZagxEB2HZcBJGOtDz2sSPs/gBQf4jVSHq48F/BZuIkZKtABUF5yc4KBI6mA2TygsACTwuYrAQ7ERCgzxLcBdCXymVgdlmYaR1y/OdbsCmBygh3mHw6IsCTnnfKvHyxpeQE6gdLmYHI356YayyO+p5uoJr2nZlXvTB08jhZya1uQ828xvZaWUqUhmEFNgMGKnTsmKn9Gr8axlCdY+rygpiOiPB+zAB9Mq6twgvFOW5wEqqgfAAdoOB0g32DT7XF2bE4F9Zv7STwfiqW10HxH35XVtr5sMaVkOt4XY2gPnaN6ChSs39IV0gjKsvACqwYKv5GO+csVacwVEgVCwst2uLrEs62AbBoeGEgHbfjWIhH56Li/csxc9I+UYrGB1Qr/IVazCvdXI6D42jSeoKvuBGLxhcXmONiECt/XFBcmx4850S+whogojG9Q7Tqi64279oLIFCrmX0bB+5wM7uS9miXUc4fg621f+RItTq+Pc6XCGrW5tXfsAe0DAYQjeUYN6PEo4KHNCGKYwUOkwnN+RtY9VZ984BlLBQQEiDu4EAXVAO4C54CqKZUDGPWO7OyBMiF/DgHvn6rIyDcB5XtwyLKNRTRAmyT0kQoTEkXNpmKsG5BbVTakHE/jkvkxfIrYU7jDbNxrIAKDQCizXN8dv9XISemdn0Q0KZG636FpauRu5J0XMJQwGcjkCm+XL7Zm/uj+/zcMyFYWtP1gRcFF3JvAp7uuPZ2h3US1raOm/Lq7HURk9o+UIdFq2SZAJwPZ4CH1aiFGLIiazgoLrM/gHdpD/KBui9yJ6tgE8bQC45xpSBF9D9ctFkzk5ADI4nRdxtmkRJ51Q4jUB0P62Lb4n/SYFuBlccgS/IUDPIAiuiHGbz0X6zi0AXPEhMA8S7ODQwYPs2zGafja9fobZTycz6yocL3pGJw0xmT5SFzg4gBgM2zc7Pw2YT4UrNMqzK2CyDSh9YX3UXcZ6bod8CI77YZZYZxUDfGfPnp08+OARA5IqCd1xGM314vkr1QOH9t5xfevHB9wDAMU9hxTE5SIWcS6YmUh6RUTahdVvDYI5+/qbOLN2IfbMRcxzBjed2zXOzwKKgEiWTgFgik1yWIqech9z6swgbI++PnYHg9vQz06ujGQAT1kWpd+ZRyKi8F0MC4ZcAigApACYAADRSNgCXxvciMcchLuEy0rAShbP+nFfrsVjljpOYbQRpIyULMB2oX8LEVJ3y0qMwIiNcitaYvX1g6Ahai20KvMNngqmxc1Hjs/VGer4egEkQa8raYQOuGlnBeoQztpTiF8ctN6qAhIEAGAVhKlOQK4fI4M+lE48ftsXArhAnHXEnvPPfltdlYs2f7vIMs27gLltNo0+kAKg/WUIfycAPysrbDfKexXg+lAB+P7ilsLklfXJvGs5P9tqX5g/RTHJ0f/pU2sl30Z90B3QLfnIuStab982AjfcgdP3jehMh3cMol/ER5HJLfuv6EpEWcnUyn6Ah1hlu1odtHpJrPNegM8T+kGPv32e331cQNzdAr67e+XH85uXlYP3c/+jjOUQjM9sTO95gIUBv4u4cBMEL7165hwBDTqrWUAIWuC5NhhBAYUF7oCYA1vfOD8aFyLKAkg60LpaQe5DHzpGfkBPDiQ6waoEry3ciRwYIiL/5gArdV/GvVOpHy5SbiyAJrFBdgxYuaF5yglXBOEnAkpaQ1miAudxeYHbUfk+OTGJ6ApQYXH1kPsqnJ6gWh6xPwrY6S8HmEjigo9cHn0iIGmE7oaD6QFAw+nRN2VJIOCYnM2rCXzWmbw9hIwaKQQ9Ab0dznVbP9tPwoEJJ8qGEf9po9+WD0zLVoUjFoeM7CJXmYjQEW0FNTk3+gggs57DcGpatp2AeAROj2VxtMd10b4fV6LEuRkXmn6WtAmScuy+XdPps6j7kKoK+0nuPiBnQ8jQeuQUJpvXROOYRChbC/OOodG45ExOE1WaLQfc66MLUJTzzaSQfijPf5B/xarNDt7UulfzOvDR8JPUvSXwnTt1vvr5z39us/y2rv8YesAxKdm3PLhZ31vXv9QXmg/IYUjQgsWhIw/FzcWd2hoQUYccE2KfAUWXAB6Bwy0d5wCqDojqBvvq3mT/CDkbwc3d1dB4IxI3sF7iTgKxG2JdkVY/OqmoAB9noKp4pb5IwJIQBQjLCKdEnoKfhCcBxckYdwvvebFYaIvIHLokjbpE6yZXOTE1WQ0so5fSYACoqP8yu4jYAJn18Lf5Wz8BXulOMFNXp3js5t6Fy3OLSLnBwhU5IcSVhBPbvY4MPGueitfqHeFrU4B1n2LpmBb1QTjlDvppiUnCVSUIzOAI34jiOorHKGGWAiE6vrLnMRGq7Q/eQ7hrJiLBbJ7NixTTXf4W6zmFDxDc1BUf3UTjsY1admPd5Rkj32hBl2tX56rxR+55jXuL7axF5gD2Kbuc2Tf2S3qFvG3RKm2wb+huuDyt7xiA6OOdOwC8mW4CrBJ9Zx4RHKdv+1r1SLIwyw/wEKs2PcS45nEb+BrVM1z75frGxu/Tx89u/Ll1/mHqAcarA3Xjkd8ZzFxt3pTQ1MWo1xkc3VEd+dTHq6euX62mrk9Vg0TvjRwEB2KUFRf3KyLpD7gMR3X95g2ssDgVQwjRUYF7Ept+ZIpNEqngZ8SVsAqULQgUUaoIUXKEXmtnl/Cik5MThMCoU7gaKEzBT52fxo0AH3m3o3tOnEDuSpoxkqC/EywFgnnO5cwWAd41jQtcVy+mHiyNpxBdXBSpBS6BtNZHCYSx6gL6uqw4MeiyorFDXi7im+kVk5On18mVPMP9Nc/V1a1Rnn0wiQiOSzX9TCRmromL2Y+E71iW4ebCg1mGq2Fo9xrOcoW7VL9XnIvV1wk0gpdcmjpTrba3AFay4rf+iQvR6dlOxWDVDr4DV5zYWcX4ATDx3hbRhRqdxcmlBJMwpFdTxCXDALsZN9FL67Wg7/I8v1dQhM1gANHyO9jPHr9r6BJXmMy4prVXoAVazeADPU7fD6sKxqV+t4Gvre1P6Im/16rWp46dbnV569qPuQcK2YWcS8lcyFjdUI+a45Or8V79jL8ElayVZZBq7Pj4Z366emX2GfzhBCUNBkRNYR2pSn/FM4FqcvI6sd4mIg72C4qAhZGFp3AylhANNiDAyWmRiE/RtSnyCYgCJFr8oq/jXPyJVRgQKno7rZRyeN5TX6azcwFEQaoTbmmFuuhJIScU8ZRMbkHM1ldfuR6stMKrAGeDBWhdU8zLPqiBSgWfuipu5X784TAGGNarBArlLmWqO/R5ATJgz2/BIz1KhoW8i9irP57gxGZ3tNdQV2xFyRpdLan63Bl6SpEw3BNAI+fm4YSRZYdc0+qrb6DpO2hbwBmw1fos6Pb3DaSvtda68kQQVP0wTdACOTrjBe7CWXpkZDShvszfd60eUOOQk17eKU1wkik8neXYGFpjh9hTcrWFF6Zv7beiZ7UfVtC5mqerXxaJ78f0xbpfok2T9/IKorf9c3uwWYUP5LgvVolxzWMd+MbOnnx8s2AF45euMviniPnPBsZbx4+1ByTc+x3NIbueJIC3PgDrE51rXdDfE3HWPLsAuN1HDleH4VAuHX0rwOV1rYKCjdzQAoFob8LxTcHtjeAP1oUD7AKcwywizsTkbAa7S8XUwy1BDIq7mP5C1LfYgtKoIjo0t7tWGMIQHGtfM4FAAhfsJCgJUtqTo0sgTtBKEUq6DIcGQETnJXiShkcTuHQU62Q/62LlrhKGCsL1G5zkWTgaznnUq+jxAFKoUw5McdbNvgfoBwOg6rYi9yUgWe5GwAsAkl/pawEbQAx8CI6QEGUL3DNYZmdBwO7tcGno4rrUk7rMrRuDA4DbgLMLxjTLMF9VEGbs8w30BCslQYBSTiuqBTZ0VxwG46Jv07evZwZH5FvkSb2Ghoi+yN4cAwQm1aod1x3aHuMDk1ePUa2ZIAR6O0NOmSwyCapzTJsDepRhIbaVemTC4FwL+wTjILpFwFIH7SU4vSW4zv0P7EZNMFDNrxL3Ed9A8S+GH0VfXxJH+ov8HJu+ZN8FXbjOHyZV7nl/w8GNjZfL8xvu33UqRolVmxwNMa6+tw58zQuuY2MU3XucPna2+twvfubeG1tXPrgeaI6KDJxmLRxQdw4QR48EBMiY3gHO2F6FkDpZ43noY49Wq3B8ly+MxWjhml7XrDoq5UAUMNWtu+h/Ad3bDK4ws+zpCowAkPjxQfjGeWP9e0TfVTgC0Uplu6swPFxeVson4KciMBlqyAgXxH1wjEfUJ8Hx4ThsXLpa1DUunQCgblI3mijkoUjrKJAPbhuO35lU6j9FXTk9xdQAn7hC++XgOmmbbiqcBgSzRy55uGSNXsGNw7LUWfEhUTg/0nue+/Yd5xGbzZdzgclJZQnQmgXsZ5kYRuBwexE7VRus4Xajh6Dkbt/nFfBcuEHKzdI66uqkUCyjJV+aG+CR9OXY7CvbrJhq+UZncSKwb4wU7ZI166NO0G+6oXD3fGvQMSSWOOS9GtycDnRbEehL/3El1bRN6g0VjzE2wb1PwWm6CZMAariuLidI2rm2DEcKsKrrjCM5ztBGC8q7pTzfY8qzQvYxn+h088NftrBc97xcKdf8/U6O08fO3i+52LZ+3A18J7nzl9bvbjh56+ipLeDb0B8fqdPmaFKnUw983Rgk8J3Edut67BPRlV08fQ63F/RM6HVC3ACGCnT1SbpNXL9xE+6PPXIBQYmRzPg9Hc5CIlTkUxRSdFUUE6Qc9IpFTYoP+DrQzV8CCNA0AQW44zocRYAPNEy9SUM5plfMFQCz0gIubZv6LMpU/+b1cE/kaVoBNvti0GYwnnIgRr4jykLoirZGLnYlhW4rQpKOxJ53YtJUr2i+Rl+xz2xrxDnSCdAe1ktx3b7RsKB4L6gb7l3xNK48ts2j+bx9I5jI2RaOtojv5pNyyD99T+MFj/QP39ZFK60f32Ozc9avmZ8cme+hpC0O2va75XkvS954XrHXsgRtgc6+s/y8U8rV4quY7MSVddL6HGJ1HhwkMCt6x3CW9I9+lTMsf9MQ5gqUlUXycFtL+jcqDrhDJw91tx4k4w8V4ttzP3dO0lwjiclymNR09e8f8i1G3ecQ29aPu4Hv29xpCXzHX3tr/aGtk49OD5RBI9/GIaHyJQcg6DjYFa124N/34KOPVFcuj8elRVFwDZ2O9D08tAMCJwgmKwUEOQFtGa5Mx+fGgq4lLvo3fh5sJINcgnLQG5jA2T7lEh7LghVtJbZSBzgzCNLHfEbA0/JY/NKKHkrCN3G4OO4p4sqluUpBEVfgs4xwlrbHf7bJtcQATPatUMiEEBXdzU5/Pw0Z6vXcQEiLrr1iHTpJo9tL0fEBNoBenrPvzJ+yPJKWyUFgc6WJIKvVWkuzLizbUQskCAEAbjxEI0TXE4WgVPqoOGjH2sok5LIw9a/WVaAqHJ5LyHQitvhSx/I8etKmYSntpb8FQ8HdPDysq++BN5XftqPOhxYExGvgtu/950QhQBq2S99MQbcLq/FAv0vtXOebl0V+qk4YQ3LnAcWVqm+APu10kmTVChNYO0vgrM+KIjyDwDZ7uAQu50FBfnvP9vmdBJwnZfOPP8qjG6+2PL8vRrVV39z40J3At9r4R0yPLQ0cR1/G43/r+Oj1QHPQ1IRjAxzoci+6c0i4K4gmB488VE3gtvL6sy9CyHB4iLWFAAEKuCvj34FsIWjDSa1h5YshAiKVaIz1twYoSpgOXUUf3WNW0Sf5XLgXiM/D8sPxQZy1PnH9utTJAWlmvLtES6I2hJJNcQnbIKtDonMEeFyStoIY5z0JyrrESgzR+wx/IDZFRUAB/ZefPgCvBj1r5FP0RgBPcbiua0ADijRP6bbuQ0FetxLBbBHAU8x1mZp9OUI4sH5ETzcvwsmDFRGu1nBSKPq4rE4hL40ccmnm7RI2ObmsJDHvTsEaf0K4WTks+yr6TdLXAGIfWx/FbL89vOdz+v3Fkk0ZgnfZshNApB9NK9fZxrI8JyI5YL/1zdRwoorC8hRlfe99cq7UXWRKec16F5B1nXbZa6UNVcX2gVGkgb7qxtSVRLUZQAR2dbWdZzvV/fnPibcAsmMlLcn7C8b5Iktzcu+d/LkvRq00fm9jXncA39jY6RMYOByp96zgMPrDyWNnq0c+fnjj81vnH7IeiOjg4OFwkJWjXPBXZnkBiB+5y6kMmZbRw0eOVGMnz1c3xq7gkMFSKcHPmd3pGDJe5VuxV12Og1mCVpkuhxXChGAkYglQjkBOUK5DoHObRgFF8dffHgKHRKp1U5irr5u2gJ1WRfVY6Lfkhvgu1ld97Qo3pt7PPBTjJMYiPsOtyWmpWwP8+tCNacToQ6yVw8uWjDRJ37nsjWtbBAHyEDjKig7y4x+p+JT6RuwkTQCWSxEhKX8Og4ZcX4+hoXbvhhvGis2E0OXifuppH1oPHkyZAgjFUSa6RgEPvZ0fD0GHZPkIjFpyTV+u+7x9K6esyGu9nBQA0KQR1OT+qDGfur72H9Xm0FikmC0AAqLGnCKd71lOL1Z6uWFVAICeb8V2ZN8T8EtuUnDuYfz4ntWbmoF1M1L0KgtzBgfZQApj18TM1WoefbD7e6Q+zW7MI+lTH/VifdiWVKe+W98o4vDGpOt3bp+ITWLUJseS2Lbx3h3A17wxxvfDGxPV52++enwL+OrO+DB/lzFUaLZJtGU0OdsWosplFeje4L/cSjdWSFcDXFoag3hVcKsUZ8RDMMUiCTfBM1FYAxACnwClMUJLY4ecGTnWACcR+mlWhLQSpno8OT2GHr9DNBIO5ZfVFHIpAlEhAiuseOo+EkYOEfzkH9xQpwE1x8LLb4Evi/8BO4k7oEI++uT1YRUdgJh7Y8QgLdfMg4dpmmAixBWur4jENejVNTcNSW2z5fOM5QbY7SO4ID/9OBVv387yLoAbuCYdRE9JiqUwZnBRgrecE6DDt3ozuTr97uzvur8EYPvDZWhOKIKd/VXrM+2zGgw3fnvu+/B9CYxyx35rwLBM+0Rgj7qBdKbXBWfmVlnzK3fpsjfTZLmg/Yixwufp1tTB0FWKvBGdfdsUF0zCJ3GJaN9a8Af6hrjDuu7Zm3DEOjm7AsgeBtTRDdL0jMONJOQbKUc9eJs/M5N7Xt9vXr/rS2y6zyGm3XG0AL62pxhyLYHv9ReOVn/9P/ord2Sw9eOj0AMShNxNGTwOVrkGrZ1aF10wr8OvET0k3F279lSr86wSaMi5EK0YLk/A64RQtaT2+IPRq3JeS5+cgsCnUYSM0iHm70ci7ZBwmiCnK0VNuMjHSZ9VCQCHnJscYa+cmUYHuSE4C30L3bLRmHjxQyPPWXzYBANdUAQ9HZG1zhbdpcRVwFBuT7FWbs+d0QJ21EXiU9TP6g2ISkCV67P69lOzp2iL1/jYXpHDc4BSEU7gA58yEbjiZQC3khKyHm6JvpXrXKZNLsGjx9JnXbr/mGu4TfCE/OTC7StBLmIo+Xt47uRjOzOZkKaAWwGH+pzHSx3Ni3cYIBfMBemUdju9bfG9rSCey6UuEDfQ96Ebkw7QRofxfTSw1NtcuTytt8mHNlkWAjbtdszwmzSCoDfkIJfgfm1rf+9QuNip2UkMJTg+E2y1i3yihiDwQVQtyYtXYif6fPM3X+VYP/GnbbjjQknT/Cs2bX40nrz73j3AR+G/z3j4T+9O6O9Xnnut1eWtax+BHqiBLxMoY6gX/zKBRhVMF8aLuamZ6harOHYMj1SPffKxapqNity/YXX1KsMNGaZBmHi4hx64iEXEz3A9DH6JUzBT38fQpSeY16EYuS5BJaYDCKt2RVlEJ2ddeIAwToVg3a/CIKbWrQt9UnE7MUCCqxdwBka8EtTk0vTFs7xpltK52iGbkLPyJBybxGP55C+wmdYlaL3U2a0hI5pZCKKY6aytoCPoycXECCLAmY8fktoegSR6Ln553UNiFfj86Hcox6yoq4joPiPdHUR/IWBAGGZ6QZ2gk4ahqNoS6I7+IS+BYGXZJV/mVfSqApHlKqom3iFcYTFaqNO7ze2lIvwR4IqYXsCOK1wt9fS9kBX3aTH52hZ9BufQSSreen2E/YPN39fiyhDPtXarJ5RTND8NND4vRpnOnpYDdnKSQxT8VuBsXU7YDgC69tiYiV1d/dW1G1erJfb77WGPD/uAt0gexQpvdya/Ut26SRRAIe/guB820eYv3Z3VPcB34ezJr6Pns7VMj3ceszOz1fE3TlUf+9SRO29s/foQ90AZQPXsrzgpHyDYOIo7WBLmqoiVW0vV9cvXql5+j+7YWQ32staUASpnYDQUo6AoeulH1scDzvgSfbgtiLoD5bZHicJcuEuBxnhzDmyJOeHneU4dmmAjKIW42Zms0SjRgdXlkQkEw25nbvrDZt5yQnNztwJ4WmPV0a1CGAb3XAH81tClEYKPxwpgwdCQpg42APcIYIezoiISLNQf4I5Izbl9I7dXOBcaESKk0lwLAJp+A2HaowK74qCcmuJiVnAAfAKDvodd7mvssjWNM4CAnJ51l5ttEIllZZn1r+QR3ah9yXnh4DinvR7u+OaObIKF9VNkriewwp3yJlO30gYrnklFpOPIefRo6k+x+tIGJyoNGBoyBKzRnaOoN4bh/pYSWswgFDtGRojMPES7iNbDb63v0RfST75Ly8lv3mP6iA4vxjInF1xluLyEa4tlyYGODO4hL+L9wUU6Ppw0VuT6cJT3eSfHdDpfTlrv9BCTxKZNjlUx7e579wBfM8E5vh++O7G/X33u9S3ga9UxH8prtweRs3UsitRzGSdbiX0Jx+WVhblqe9/2qhcOZWV+pbp0bbxaHVmqRrfvQOzdHg7D8FWT3VMAjzM6tq95F77j7tAhIUoUEoRiqqKtHIbcCmI0gCMnpcuDACHQyaG5zM1Nug33vj7OIVC5B4G1KI5YsI/BRW5vCXFsHkJ1xUAvATv7AUPX1co9Krq6N4bAtwYgqtNye8vkJacnR0JdtDqT8TojIVenyCfxF05PEDGJJiE4o4Bhk6Br1OO7gBOgC/EKJmUTo4Wqf3AE7lR3Dv3oCHZqubYH3Z0SvSqFOEqTxxofAcu8zANozMchJCgEpCjfozZWkJzzAo6Kvr5L6y0HlzzIx/zMl1yAEvMHTlAz2MZOJws4vfjmYTAxnY7PviMNKHJ/PpCgpeTlb99ZMUCofyX/5G3+HE48XHNjJQNdeMueU4Q3KrZKTSdZJziNJcNYfNewfiyv6P5EeSRaYwK1zkaotmyGEEcq7cnbPsSk+xxnW93bDPj+lMT/basHXnz61eo//K2/0erW1rUPcQ8ovizBsSnaDuCicIVNx2dYinZg10GmZ7gMdHrd6GAUga4sXQkwSQRyAxKX47GTVRq9cCCXJ69W165dD5dovn4c4IIfpMgk7keilPxcm6vrhmLW7f0tJDjzFExj8IDIvG9eQEOIVBCdQ6Q17JIioSAqoLlJueLwIiCpkUOijsMx1wQ59X366mWFAekDIRCW39ZHES3gQXsFp7SP68XNohA2LQD8yJc80w7q5iHgUe08I6jotCy3tA/OaTsio248ckM1ICUOH3lJ2+rUXA0Bj0rbQ+XkJMFzTvY1B+kKDVdiWEf7bRXA8HmPMsnwTC4UALV+Xvfw3Mxymz+3dZMYS6irnJ6gPoQRwwnoFvubCHL6C2rYkLvUN3OS5YrmpJ6y5G2e9Ad9m/7iZrhdJsDCtfL+fA/Wg7oi/DIGAF3+LS8gNYD+NIv3y4RGwNZuJrAVYjcqBbj2uF6659ixqc3mcebRbHxqVK5s/Csm3ef4s1b3WgIfS+7+V7jzlsD3+guvVzNsWzg4TCSOreP97wFHn0f97suvzf862B0g/C8DCEJkMOmn1Y1SzXvjF69VC+zNumvHPjingWp2kjh803OIY1j1MG7MY+W7xTrbUQi5E45F0dEduoxc0k9UXqPwNhjwS6Rpx5qntTLgB6BIJFntQDmFYyiVDzfCNQnDNNZDbibBPKmpoBOrLqDQDpHogKyVUKJaIUCq4q0bdfcDdgYLdQ+MXuqzsiyHiAMwlXQHN8EiHCXpFCtdogbswHVRNmUKD2mT7aK+it3pL82uAB1UnVUIpfPsfJ7wmh+SCO5+w88CIBiG+G7vwviCemAbO5zNCmxYPtsAiPg5QtSCodyw/aGrR08so5Rq9h5kaPxBjUS+s7I6Av8/ANT2h4vmTs2FKg6uxQABR0UbauDzPZtG3a35GP7ePtVpWFcPI2VbhgCnIaoEPWBvEPqsyzXF6Eo7AcM2JiP9Jy23k+d9v/ar6gKdvM07HCDvbwUxf5mPoisJUh9eprBXJj9FbR7gFnnY/8T3w8retw09Ihwn8xPX2DN4kagzpWMBwSJFFLHX0nwFAiKZmB3pfGf23zQ7yYlJmx1iWat7LYHv0qVTF9DzzfBAy3W7Lz37WvUrv/4LrfLbuvYe9wDDNjlmJi+nvvsNR/NifYVBkRmaUREHXocLM68DZXEWo8DNGSxug9WDj7BGF3FjEiPGFKJslPC4YfRgPZWD0TYX1wM3omHANkAoBy9UVO2CcNb27MHZEy4CUIpbC+Xpr+bKC8W1IvYWwtR9RMBTNFKHJOAJNwKDjI+EGusqebjdoSsIGhhQsuSMZ9wqU26vD72ZIq7Eo+gaghXYJBSJLgQMQWkMAXgsVyyTCGlCuER7Qg4xXClt0bLtfSmKbHK41tQ4ebWl2x4WF9N8yrW+uvks4QDZaKcsRLl2nHWNau1yrSUyUvwzBBfJA2qK+wI2b6pUAABAAElEQVSJxFqhz+yAc6bqXJPzKwAV1QCApB+jl+Vy7U/fvaJtHYvP/rvdv8XdJ5yShfnf/gdk1TVqlJmHi79+41p0pEOEqDeqtsvS3LdDLs7tKF2hYbBYlxxannuELLK/ihy5InUnE4mTiz3lul+t+ep8/cTgwo123k0BTNpKH+nyY17WQQlA637G8S3eL3v89gN+u9kMvQ/3F3t3cZXy0H8K+LbD92+b/ZFJgzJ8W5l86EfH9EvP3NfgOiOWkcE9R0vga6Z6nu8v3PMEF57/wUtbwNeqY96Ha9JJDgZCfWw45ZIj4M4rzogBFe4qrrpPquLMLRTAnejyRuBOVDrPot+b5to8i+vVyTk5K45pXcyGQIg8sZwSZokNzyAMffJYiwontYeYfjBcOO+itPYqZfrMLYhnhjxXAE8JUOWbPmo43YWIZhGtJJrCGcodynnBTQA0IW6Ia5VnGrjShGNk0Id4JD4+AloMFdQ1ujvaYVsi6jaBL9xJRDJJo4Cc5cRya3l8BMQQof3HkXOq60QjiCjSmU9JIweTm0krWDk5aM3V8Tux98hQPkvOUL1fY3UGkbwYJgQBFf2FO/ONUSfTA4S672gAUsRUvJVztg4LvJMYOaie18ItARyFl5PrlIMs6oOqoRsPVaNeifLCD0VqAWRubjp7c8zCne8cHc06W9+va3Btm3o+XVmsS3R9gJouLa5jtk7h+gBdgXuBgKj2m+4ut5gs1Reah+9NMFYXq5js+9WKH26TupjGfx5OSnLkwGLVOdnG9qC3ql17d7AbHdPoCrzf7CLt5X0y2fHGMhnZH/ZdcaSv31uyCxaVs5Z/xbCWx6bAh5LyHzMbfKHVU89877lWl7euvS89UAbMPVlz2bHuUQZV+ZXxn4HCoGHQLaK7W8Myu4LYuHPHnmqY/RNuXJ+sJm/OM4gFFzgY8nAwO3tHD8WgdV2ue1DsQXc1gDEBSkOkYXbH4OgqhE45QeLbAVMBMQOUKo4CceHG5nhWa6ci60KTa1mBGLXE6nsXsYk0AlkirSBqKX4JOF0sdHewBxjCucBBUUvFUoE42z2aFgArIKIYBSACVH4LqhH7JDa7D8LLJ6c8Uf/2uz44TX6AhVyG3Jf5OImEw6D87E7HJKMzbpyZMWL0wJ11Eeq9GwC0H+UUu7FSr6SuBdCshIQbB2TrKXpwZLkdHTrQwS5pcNoGIfUIR0zZtseyaXwmAd+Roqx5+W6tvu2UkzaRfUF1wyUKik50ly5dSj4HDjyQDYmmiFitVdcozS77s42Clc9pTOoF8BSHteI7UXhNvaq7683gO5k6U49wlJQruOrrOY16xM/U5FT0iAE+a0U9lQCss/0r9+cqFZ221Rf3j3dX164PV3v3E9qeHd8GugdRDQCajDMnBNul/k99YdQhVrR5+G6eeXxzLBLD6rR3f28KfBfOnv4DxN3f5wHm9TsPFeAvPvVq9dlf+PSdN7Z+vfc9cPs9386bAb/xcjkv8KeeSy5C1weJUjZuBeNFH7q8oYHt1dwtuLJpFtP34G8G8OlvJcjof6VyXcLlYgYxGeHXN4gxBKU3XF4W0jMrO9iNQ9fPXherhCS3fMFkDc4LuTTAJgguMmtbj/n52RBKO/otxdYCVnJvAlXRycnVCHzR1eGeYgv191KkS9AB6lYI5zZYSvRCn9yTFtpweoJSwKGAnzkJsir5BY3boMcdrucwH4CqgJmAI3g275EgySDygCDlecgdCzXqxAYRH/vgnDoUsQHw3qEe9gam9uhUBY81QNRy5XYEP0gZsJCzLgCiccf7NZhYjr8DxE3xUIOC10ERnqdNttNr5pbJgWu8l/pZnYavso+unP5OgjronKzoLFdnBk5m6u4ShQUO1f7TwGEfyrEp8lp3BkPq6XMz+PjN+41RTCOJ8RZ9v6admJwIMLoL3yz3nPSUAnzX9rvv2nfsGBMEh/EY2Lf/gWpoGEPblcvV+XO91YED+6qHjzzEsr+R6PluLdxCfJb7lqMECcnHw/dhH7z45CtwiLSn9YEby+k/aH2LiXKzG14n/+MU8MlWaZ554vkt4GvVMe/ntdCcQ90jP5qllXOvy7XpaKzldhGxYYmgoTuGULyjRzl/7iL7Z0wDWNuqNkCrE+uaOh51QRKfgzW6KAasg3kVTmDm1s5qiLh9ccBlppbla4tBQ6JwmRth0d2ECOCU8+hW7ForBN+P6Cb3srLNbx2dy0oEGyBhW+vofhjQBawg3ijAJXw4BWb6bGgN8amXkwtTFyhBlmACTcAio1hg+Q4Y+ptCzDM8IWVZTrFGplTOBe9CQNbFH7UF1DwEEMXGUk84qqY6QQ5GY4WW6kXa1tPPBICOrFOxkFIlahf4y6XQHVEbBMK5bnnWS0AQrPRZbJP7AQyjyIdLC3DRL1bJw/J9r3K/3MwN7wXkTMAlLyt+q1/zUAR1jxTBb8/ePdlUXKDSOu5zOw2kgHO4ej5Bzn52M3hB0sknEwQ1XSCwrMDmob7v1uwMHN1kdeb0merYsTerCxfO4/s3lefybqmj71u9pGPBujtJhnPnd+GomQBo89DwDri8y1jCMXAw0W2H27t5fYKxSFmM2Z3o/npQyyyvoTKhrxx/K44HGpv3SMOfBoM2O+ii45vd8/p9gY/+/F3S/F+tMvjBt5+ufvvv/+1Wt7auvR890CSEOmuJqVzKnMrgKoTu8iIBYolgoWso390aUG5vAsC7cuk6EZVnqn17e9HtsDUjehpDiscXDd3cIjO/4CchMfrjvCrBLC6yxwIKPcUeRVUtuRKfyaTm9g4Cjs7D4SEiCUouZFdKCXjAZXS049grAPKplfI+6sJ2CzOdHwGnkHlpmyKhhNoB51SAEbAlnQRkOab1CWvi/QJcgo8iVeHu0jtW1mT5WPcCgnw1D1piEj4aSTzPtovine3DKlqA2DwolY8WUz99cqroUd1xbgnA6WQi6aR/FnDghU4LSMPtuMet70yuawnnZVdFCHhZmcI3Jdu0gJDg6r8AsIDGJwTf7A/b6iGY10eelfMjraA3japCXd12IjPbruvXr4VD2+1ev3B2TkTqKe07Dzk/XVvkytypTf2k4Hzt2rVqfHy8uop/53XOb9y4Qfiyy9Xly5dShu3J+6Pc+u3FuAT4J5QVbVenaFlKInLvAuyV8StsVzmDu1Q/Ica2V4s7CeWlLhSgvX71RvXQo4erIz91uBqmLpMzN5BEfG+ltn5TXPUkGLTZQavErk2P+wLf2LlTv3PgwUf+d4q7J90Ufj5b4u6m/fqe3nBAeZSwPnw3CUMdkLO8RKl7gXq26HsgvsZKW/Ql/V3bqpmJ2er8+UsMbDcEYvsAuB03D1IppaiwxMzu7G+wgYACYKMI54CdARyNwdc1yI5ezNSLCxCwNg6Ozm5AiNm9m2+qBEjA1YRDKL55EkTCIsm9QbSuu3X2L3ofmUcst6SJa4QZcIR4SB/xNWCmTqvohgonYho+PscnpA8lmL4ApedFDPRauI7kylMChdeaoCi4SETh6kqm5AnI0C/WpgaY4mcHaFHeKqAGfea8HVWCqzNWycR2LdHvy21wTfATzAHJ10ko+q1m2xdwtnZFhBxkXz9hpzAcaUF1S08nhrr99pHnAln6x85JucUtBrN7gC9tpT2mE1Dk9m4QMNZ26IDuTnQ3cWOZmZlCvCVSM5Zx1+eaVuOJzwtwAWSttXw0jE3yzNTUVHXq5Knq9OnTOQ83y4y2B4v+KIYS06bdNFZQqwOc+k5973K+6i3r/BkFqZdBEW7COU6yTHKJvpimHB3UXSI5hXvKPByfxg/dXowGpbV9CWNPFy5VdFvGz4tPvlyJQa2PtpWxcyd/p/W9cvUeQLs3ccPVvy2VeT/4zjNb4u69HfaeXgkQkaNEmpmVQeVRuCOIEOCLUp8B3DAyMlCwwsqMAcTZob7h6saVCRTcbBgExzeJ/+XwDmO8DSTMupvVyKVo9XXLSF1EliEYw6W7v8YahHGLUOYTk9Pkp8WRZWZwfUvzDGFlEgZ3wI6y9c6P9bFDZ1tHJxwRBOV31uGm1gWowAdAAcKGawvQiD5FcuZG4XokSAlNkPI8nFfN4Zi/oOU/rgl43jd9gIDrAiJP8TeFFXAjjaKXaS2yHOTjsynDK/Y0CGPe/msmhGRtCnfgbJkQXJ3gulx9H5UwVb7L6bhO2fZpmRT0FGejy+R64hgiPgtkUR2Q3vqEa3JCCOLK6VELP/y2ya5EyYRGHTzKGlrBhfYyKbSxVC+6Nt6VYCWwjRCoVZC7ceN6uLZtGE92IeKqQ73JrnkCn4Bkf0VM9px7AtjFsQsBO0Hv7Nmz0elp4X300Uerhx96NKKzk1H0btQnExN9b/t990bqdmLVwKIe02sJbcWMKdB3Ij24FM69XOYAPA0mV8evVpcuX+W5OepEP9J2vQTcEGnXnh3hkrsBPjl9x9WT3302fdH6TzCr9a3m1R8OfI3qd3jX/6hVLk98/fvVf/0//O0MuFb3t669+x4IiJCN5Mh7KITItz/lENTnaW0UvCSoBUTcgZ5tcHsD1RRgNwanN4/nvFsYuser2zx2I1rpBDyLOCRAuGKjswfxTSIA7ObQ9yxgDV7ie256npBQ/dX+vXt5z8y4bYi6POsKkIARzwRsqJN6Ny22bk2oxLgM1+n62VXE6QBcCBuUCHAJFhQusPDxXw6+Gri+FHDkedJKoOoVQea0vwYkyw3xy8iRmb/D4ZlfE7DMNZ/mtSy78p4X60M2opl3WApupk0Qt98mjpsInW6A0XnUAR04+w6zq1k/ohg/wm13qgog9Sp9bV+5wiRiH+48urTMzeHjSFvUr/WzMZCqAycQrbUCoH0U7igGnaInC4A2jT5W13FQgo8KxdSL927eOiirw1NcNTR8D0amyYkb4fT6iIyye/dOrvdRBzh8RG11doKPfpXRL5K3YKgoe/zYserEiRPVpYuXeH4moO5G5lfGL6c92wYIXEG3CIaC6YEDBxBZyx4gcpH7GF979uwlX/dTno2F+BZc3iI+n8uuUYaFMwCF4GwUbSWNq1evVxcvXM6mRpNTGCzOXWbSxbjBhPiXPvupqh+DkVxfN2CuxVjs2fQQs37I8UOBb+z8qX984NCRf0gf35NWX6MffOfZLZ++H9LJ7+b2RkAow57hHgzkDuggN2BYKZ1Dr1xlne38WrX7od3VGjqmm1cnmFEZ3IhFGiC64dr6mfnlouQy5LokrGoFjgIgUA8nSM0SQHJmms1l8NFbmp9hcPbH78vBKrEFjAEPdUzGylMTIlfnDC/gdUPobVzrJH8C/cIFFXFHoIbhKc9LtBBAAKpuTzqKDAAxgS8EKUg2QSu3+Rm0lp+jfD/q4ARRbZwF+HhEECRp8hfoOHy0HM0zO1LuLgk5NS/SysEIRB4+H4ChHjFo0I9gF5xeL+HWBwEYOD6t2QIXGcUgwwRE9IcwBOYV1UT6Bt0kXPMgxO7udAF1iF5uLkBLIzQuuSY5EZQFfTqsl/ppbfVwciv6S2rOuSs+jFYjSMjt+V7b23twZYGbRxQVYBVLBb3ZWXz6sMyaxh3RZjFWuDmRYCjgaawYGxtDH3idiQ8fPd7d/v37eJ6gFRhwjMisG4r1Uy9sPpNYc68y7pwEBUmlj507d1d7du8FbHdXI5StykTg0ziihV9RPy4zOFDrNG2U55079wKE+5hs8RHEDWeBlRzulXzh7OVqF+V//LGH0f/hRsV4feq7z6V+6ZC7/yBoiFl3X7779z1gdncCf/PuX2WIfLbVvce/9oMt4GvVMe/ZtULMJbsmAcMZKNbJITj7dcFdGO324vkL1YE9B1nK1Rtuz/Vgvd191TiK6WkG6sje3dVu9DNyDepVFrD6kUmIToJyWVtZeaHesHA7Wj/dV3d8/Fo1QuACy10GMAQZn1WMa4NrWUJpvQZBRKwF0OLfh/uKnFQHri8BcB6RIxIIfDwrJGwY+SQ7/5BSACkAJhdrQi5DWKkTgzH/uBZQy/N5zLNycE8g9L7/OLmdlhS2339CYy32ksRk4BeTCcRlWav4PzoZwMABFE3RneuKkF0Qq47TPJX+s5q+Cz0O2+WMAV6BTYDQsVcRTWOG0VY6mCwENC2h0XEmF0XGArY+F2s3oGltSyvQH5K/4qXgkrbzHuTyXDetcYLMMpF5TQAW7Hbs2L7OjblSw3RydpPo2ASsK1fGq4sXx6pz587z+2ryd1NyOTg/e+HcBLKykkNdXtHRWj/LsB7zc4AgYuwi3NwyHN4UurvTp8+Go9VB2q0v92Jd3rVzF9LGvhhZHH8aYK6z3cHNm5OAHzvHDe7A2juE4W0H4rpGNbhNJqZrV25giR6uBvewsRQTxxPffJJ+aX1Qnfsu3K2felvAR8//A/r/X9cPbfx+9onnqquXr1e79+3ceHnrfLMegLjoSw5PNh65WC5vuB9M8A8A4iPlqaL0rq16WmZ1VXEp2gP7HmQWNcSQYgKuCYhhujU4y8qcDbIpTMMZGy98OYI2OIw2uJFYXbG8hbAgwDiu8i0pLjBb30DxvHSY6CgQ78oyq80BO/VBAY4QqBJfAeMACBXVBYXc4Uy4J3DBCer/J8gKdrrRhHukaX6nrRCv+djQwCvtzj3qIQzY/nVQg/Br8MuzFJz+8TtAmV/NNF4jBytXXgBcpQAjcJkndeNp/4aL5lyRTGt5lvyFqyN6SUBvCCbXEFTouRT50/7CCXueta2qIMhf8U7DgkFUBwbcZLzoqJYAMEHS+si52e+2pVYJeK5+MEabJtAtwg35znRzVp86CXBcxTo6DRcnsMoV6oxsm4YBkNFRHJQ516Kr/51isGBz8eLFAN3lS1pn+Vy5Eud0l7MJTlqDdSrXsksNwxG6usdJUbHcvnbCU/ytg5ea3gmjcI8FzK6QL8Unv3HqaX2M4OyqEMXcww8+CLDuR7d3jbotImXMIp7bFvN26aGBGtYYywDpqfPV7pXt1OY6biz30e+JVW/jeFvAd+Hsqa8g7hLWoWoZmeDxr/9gK2LL2+jskqQM9qK9bhIqNxpyRxBKiNLR4ilEKHH6I1/8UfHu3zb1YNHtMbARaW9cm64+89jPMKh2VBNXJxHLDNiJiwIDvo0VFtvwNxvqh6zXAEFEo8YqrhfMnroQZHctgHB5uVgb48yKWLNKGPEG4LbYBtEgfmjpO/zgAQiVGHkQoL5/ckLqmdrQQ0kRgmjNmQWqxBrFSQ4hJ7BD+yQegSxiYJpYrhUdHBdIk94BwExLk5Pv7T7yAtc7hFZFXn40gS2gx3kNin4ruvrx3EAB9qOg4O/ssVFyCXeqoSJ6NO6B2CJ60uFxh5MyIbFwBF9FnFzDz4xt1PhguaX97j8iN9eJkj/qBMRJY9D14jOphVKxepW1qIqnJOBD27iqWNvsouYkRRQdjojJgKtg6BGOkvexRIfM8T5uXr/BIv0pJrhiXHLVjZFOXAWiEcExY2DRGxgzbl7DfWRqojp/4QKW2tOItBdjtJCLtC5D6CpH0VkmKKn155rL8ZyoVJMYkVn9o4diufUugK17TgFtLyphHNiPTngfYqv1gbvUoVm3qDOnz9D2lXB1+5A+RkeJ0txJYAw4zB1Du2gfkggqFp2gJ1lT3sUKmF6Cl66gL7nJ77nl+eroa2+mDi3/NKpbF86d+krLe3ddfFvAl2fawvH953c9n5/f+uPvbQFfq475YdegKwdQ+etZ/eFMopbi+YQL8B7/HZDqeEzQAdFNost58bmXq327Hqj27T6AyLuIPg63Bj4uO9K6ZjZDeO8PE2JK8XeRe/UCduZwAE/nZXyt0KFYiNxEu8uuKGd5vqyumGSp07lz55ihWVSOnkew9Ag8QcByHLrQuCG5BItir9yHZvV3K+kEIx8q7WpDD1ZImmuclCYXaIfiSCtgmY8fc/AozxZurRCh3FpJSyqfyW+foNxmHkVvZzo+yU+ALmWaf+H8KIf7YHeAy2gl/rZNFps9Y/HZczMhV2O0CxC4/XQAEJ0YE9rhZgQ/kAhAp+8gfLli9yYeJrCDddExfAUOrxfLeg9ckjvRscgjFl91oHJMgoVpPWx/3Fz4HTUDeSqmzhtQAE5ea+ky7h8aEeqjsdYXMXoaUdqtIvXFO3nirer48TeLawoclHm6NngbO9Yp2u4gKo/cmy4pbh2qG4qcn+tw9e1UJ5eJgvo4nhTRi9N7sQ4bCEHOfBDRdg/blboFqIYc1wRP4FeoQSdWYyZK81IfeP3GOP3aCeDuro4c+RhqmNFqmHZdGLvA+JVr3YZkoh5yGq56lajbq9XzT71YN/Pe74JR915vceXtA9/q4n/PbtP/GXmUN7Ihs0tYDp/7wcvVz/3Sz2y4unW6aQ8wcO450qvekJ/zkCqLrkdRS/BzhhWw1vClUCSTW3rrzVPVsTdOVP/Ob32BuGerhAxDMYxFVjBTcayTshzMIOtJt6GMN3+99dXV6PqiO0yttNclQgvbutjJQJbYFGNmpqbhFs5XRx5+kNl8V2Z/iVPfPkW6rMEVrAJYgItgQf1sh+lqQhZ4AnyKsIq8zXRelqDK6CqAZx7h0qinx/rAI2E4NsryvmJ0zb2JF5blb9sRQOPcyaL26ys5kbDJSdnhKZsSItpSb8FNw0+clfldOFMMMtTFNOo5FYm7Edt6IOo2QM9gDNYselJdTAAwKhP1gNxTopVQV8vzj/+sk/3bDqc4jy5QUVWfSu/72/ekeCsIOXmVpWjj4da0CMu9a51VzNTx2Dh79usELiWCnuKmnNax428g1mLhB1h1LM54AKT09RtgXAiC0fPyrEYzV3B0J1SV64WtDn9oi//sV3/HIs1k5+FfOULUiFU3OmE5PLk7+0DOT9WJ3KTLAnWjWsBw1kCAnJsl9h+T6rFjRwE67tOn+hEeOLg/S9guXRoDCJnMCZo7PcM6Y0T1TQ4GIRj1No+3DXxYe26ydvct8v1Yq7y/9dXvbgFfq46561qYnbuu+TO0UMZQuZvR5mDSDFpmfgFMQpGb6sJSOnFzqnrjlWNweweImLybJWqIpdkSUmugvl1a/FhIj5jVj/XRPVB1J0ATjdsKACe3geVsIdsLliVlcikCbAY2A9fzsnIA1wRmdS1+u3aqa7HGBRjd7WwVMQW62ABABeAkbq6W9EE3xUyfhIB8wB/5zR86x2bL5Qig+Q6xJUnJ2+fykGDKI6Tj686P17lWuEXrVN8vaXMzLDW/KS/AzMXgIGltfiYW/ibUFhPNGty1Tt3G3mvg49iJ36PuKx3oPBtwSG6gbkTrJV02mEBcZN+PPnAYvZmOvBoV7EuBSm7J99pAHTEHuE1M3oRrm8eAdCXO4jsAI8O/yy1qBdWXUvDTmDDHubq6qambOJe78bfbAfRggNiFOsP9Sbp4RzeqS2OXqjNnzlQXzl1gpcUVOC90Z4DryMgugA53GjjOsgsboMt7EXBgq+iLYmHWU0DLrhNbNyBoYFc5PEHdScC6COT6M/rS7Gvbp5V4FvRzzGiEyfpfJAjTjDO27GulA0HVzndT8rU1DC7029Vrl8KJmv/MzATvdi3GGeutK82Lz2++RI1avCVG8f22jrcNfCW3BorDti+1yvnJ7zyNVfFK9cChva1ub11b7wFJsj4K1dd6vIICXIMoQ6J8h3gzuOh5iRM1i2Z9Qz+dOHYKXch09R988fNxWJ6aw5O9qfuTeP2QAwO8GTqJ/OQgzEduryjvi++YvmCFASpcj754hpbKig65QwZ/Yw0/L2ZzfQGzIgFiCfgIaMmVnLlgneWMJKIiWgpzipjhcbhmgyhP8LE70iVe83lAR58YzmtujR85CsiZUxNIuWpbzNejlF0Ar66HXGNyI2OvlY/PNcVgnkuYK/OxHaahXnLV9EA2Ul9mEhlATbCNaCYriLgE8aqWaPsa6V2vawSaeYBJsc5zucsBgkAoRvrRSVf3EkU9y/Bb0BpHBD11+nR18uSJ6sypk1kHq9j5uZ/9XPWXf+7nspBfkVTAMXS9urJxHH2np7GIwiUJFnLkGguMU6gj8Bg6vOPH3qpOvHWiGr88nonEPEd3jmAwALBJr17WG3E/gvN2nKhqMC/9Iu0juVolAJJVXdtcT9xLIiQFxomg5xhVCgmAk0hVgm2zrq4ekfuTyzNajkYXxfc5dMROrAK1HLB9bftMY1qfWWBvDsXgm5PXAfzpai+6Qi3Dxo68fPECddjsEJve/vGOgG/s3Ol/AdenM3N/qyK+Cdf3W3/3N1vd2rrW7IEmia73xzroBQwkyA0JJUAGmgCgSHoTL/yzp8/FKfnmtanq0oXx6uOPfrJ69MijcUXJMiEGmd8lJ/VtiCxwHAJVEZtYpsQ/LYYr5B8AU1/FoBew2gHOdmbacFWUK7vkag2jLy8t4qsF13cD94NdEJKrNhR3JBJn+4CMzwgiAo56PtoV8Gt+G6FFOgtPFSMDNEQyodHDpWjJgXxyxefKlfy1LyTMtK90pvRTRFmIT464fDwXIEmZZyRMwdRvRWA+5GiKfHvdOtsmrsix6P+44B+COfThYjGya391S9ESjmYRjhmeiFUyWDvpA8U6jRRavYcUIRE5XSdrn08CVPNwQq5uUYc2h/uHaoM33jxanTuvG8l49GDjiKUJAgt4+uxjn3osgKDOVbC4hnXWlRh+nJh0N1F3Jud18sSJcHrnz19g5cUlQHAxAUfV3bl9QB+Rs0vUGTg7jiK6+27UHZbx4jW5NMcGQyNh4et3m0nK58TM5OCfvKG8e6/Gn5L+1+Jr3zs2BDHFXgqKcUYx2ZUXftyVzrbR9RF95X7Vcfrb9+z64DNnzwZ0gdT1UluczIlNLa5veqn0wqa3770xtH3HJ2hFyyVsZ0+cq37jP/n3g+D3Prl15XYPFMJ1cNUH79nRyFCSOBmIcBmZhR0FcHmXLlysnn7y2eqF516sZnRVQSlslJXDhx6ujjz0SAayFjxXFbimVF2gXvnOsP147rsZd0BK0ZmjE3CsxRmV5PMEhHQBedHvyf2VEe6GQBJXH+KRupopdH1WdRifPleAKI456zvYKSDlmn/JxzM4AwjAgR/dUBrq1fIpQCb0lMEuMHms6+Ryx7T2i6BnOj8GL2iCNUQmFyWxBdxI4HcINM+U314T3IzGDFkCskJcqYf1FwDkbBHS6EO5ORyEQenB7buqvYeOVCMs8J9EZzoJ+JMYY64gSbPpb8sW9Abh8BRvi88j4b3wV5ucmKS+WF4hdBX7586fq9588036bbn67Gc/W33xi1+sHnnk4byrqwQE0EDi7nL7WC2jWCpQC4hX0NHpfmJcPLtFgEp+Z85Wr732KsaL4wkgIBc1TBj8vTgRj47iO8fEt4LfoGKx1mq5t36s9hHXfW8c9q0gZJ961H3le/Dc9yy4O8HlPdK75bv0n/URFP2lvtH+kPMT+ORUa1FfYHVFi2NK1YFuPBpolvAoyLI2HbYxnpmHefWhoqEC1dmTR9fLs5Q7j8YfTk9NtHS3uzPd7V+l1bd//9Cz5YVt/1VX76xs3T2g6bKZb/yb725tOn6/XmSAODsWqryd0AGlW0VuMTghzxD3Evq3sfMX44LQttpZPXTwEUQio+rOs6qCyCcQq3oYdXXTiAYuSzNEkhGJGXsMZokZAlU8IXPFRQ+JQ2LKR66Fc51QHcDyexJzpl4GXZ9hqchvnnQX8f2qqgvVwQcPR4xbXp0LWAgBEkc71reixBdSLNNxu04V67+BoGB74AnCXhPo03ipp3BiXGaw13lAnIph3JVIJaz8ps+kVYsoxcjFWEwTaG1HUwwr3J4J5SJLGhMHbO0s+tKYgg0mHhUCDbY/VDwc3r2vGtq1t1qFe56Gk5pHz6X1shudmnsMu2uawKtBQM5MwpVjlnsxoKt9b5w+ucibEzert068lZUSX/i1X61+/Yu/ziqH3bG22nz3xdAAod+f+djWCVxWtHReZAmZ9wQcw49dGz+FxfZqOEYBZpV62e4ennVtbh9W2g50fkoN6np9n0621ktQivWedtvPiZJNWfzPx3nPMRDdJROe71AQzM2UYv/dPgKCpOcxxoE6ZlfllOCmef8m5bf9o8VYf0BXkQh8jlGdwocGDZPGunHuF1DUsMPOfxfPZ0zdLu2Os1Ux6Y4rb+PHOwa+8fFXZxF3nyDvL7TK/0/+8GtbwNeqY9avOTQ4GATNP57kxTozy4WpX/Iw1tlZHDfPIN5eYy1jQhsBEFMT84i9ExCaHAZhhxiQbg6kU2wZmG4liTWRwSS3ZfwzzyViuTqtfdO4RNzCYXQRsUttlgpkfaTV+yVGHwAp5hg9eXVmjplXZf4Av9eqKX53c96LNVAfsW4elHAcrFoG/fAflw8IgRPrV3MHApmE5iEGC4AeEgljnqNwTxJLCMY0fsij6J8K8QlWhePD4g3AludLxhG762cAJMX5GiTNM2ITHF3qQTqV+g1AtcH3GqC3hIi+QD+3wW3seeBgtefgQ1UDMLmIfu2aVkWQtpvfEjBwFwdmORnB2EPjRsKwA07qtgQQl235GcN5+CI+dJ/4xMerf/fXfq16gCVhcm37WFHzc5/7XPXiC8/HCrt/7z64+QfD4b3+2mvhEE1n/V2eNn7lapaoLQBi9lntRG2EHjk6dWaJYEwn6xVgZBa5KJ9XF6hl304TiFQN5PmkLW2I4QJx1DLV6wnsWp/T5/Yhbc0kSpf7brMpPDURHP0t2Pq++uAsBXBFfkVZX7KWXife2k1GHZ994zgN18nk09WtOqYDgIbTvXjebt3seEJM2uzmZtffMfCZEerKv4OUfopTh80dh64t32MZ26/+1V+64/rWjzt7oEn7uSgB9mIpNBaZOrYOiPIiou3rrx6tLpwZh5CwcuHY6SAQ/PQFm2UD8AMH9uAvtQNjA5wbg1TRS6BZwnFZI0g21ZEvp4D4seluwYDUZUJFvIONMQyAcp2AotziGqCl7g8AWJNTgpAyj8OxLEJkk4DezpEHqh07d8NZMkND+suAqTozd+CKuCjXp4+eAEim7g/RRpsiNgF85peBQ7vlaPgZPZ/fsiQBJwmL/LwtgamDlJAcclqDhS/vZwjynTx5xswUg71VOEMAvQl8pjU/Ld55njQBU9tIJGodfFao5xo6vYScGmAJFRbzHvYomaTPrgE4c7TJKNL29xrvywnDdsmtB+DkojF0LJNeNxMBRiA0jSAj6Kjr++QnP1Htw99NjkeDSD/gsJ9lXdtxWRlEzO3VOovu7/lnn6leAgxdWmZa331cWLAg2xh1kk4mqiY8t43R1wLEASbSFJBCNAZYygTA+4U7ldNSXLa/waPyvuwg8vDw3QlYAp8JVmljJgvGhX2rEcjD1+ZhX5pn9IK+d/6Zdz60P+oTMlCtoJHFt2AO6kZ1kHdTcCOIC5btSDXqAefmWN+LGmaTA2rp/Dub3Lvv5R8J+M6dO34Gru8oOX+qVe5f/YM/2wK+Vh1zn2sOPGdm18teQrR9/pmX4PbOATYMsoYL2hl0a1j28HuaCgguxvFz5849POi2j6ymYBZdgPPTwz9yJJyQA1QdnCJtO8aJwoEYFsk9KyB0CHNxjvRwcjV4gAOUKYgw87LETc7G4+Tp09UE6zAPPHi4GkJpPndrKqsUGj4L8ZkDjQhXACPEUQgqwOfP5FkIQCOGT3jcJjUIQTCiPbWxpdTJ6wId3yaQAJsfalry4V45+CZJuJg8kx+SILfJDdBrmEe4G/NVV2eQUAJmMlkQpR+/PLaxHBytujFodLAMcBYOfIY+XeaZbnRuPqvjsY6+1ktgsTXqU9WXCm4rgJ/rdO1vwUPRVfCTqLVU7gX0JH7fSyyb1MnYiF578NChcFrf+MY3qieffAru/gagWuLtRfmftheAsU3pG2vgIOI7HJj92/zYNbourQHEhWODTwVg7E/F7/Qrj/q0YbVioeVdOYm5ZIzBsZ5nOHcTbjyav+1zOTZ/Kur6cfwJhI4P25YJrAl6RTIofqP6jyqx6D6kcc566pR9bfzCxpLuPj8qFt198e38/pGAz4zb1tZ+G4/2J1oVcuLoyeqp7z1f/cKv/myr2z8512pas0V5+fWF5khISz2vr3uhPi/fkCHX0KVAAPAOcUF46YWXq5PHTzIDYjVc6IYbAHhIru5EXdHaGhFTUKJ/7GMfJ3rGfmZFZkRmX8U/B6YDXdpekdPrEiQQtRBZGNNFxKFEZ38txWuAosvlHHQOTgemyJHlcHy7IYy7iOlkOo64rTj46KMfB2iHqCsb2cCBgiYAJfollmhZB7lEv2/r5IBECQFOobGKONnkIFwfnPbTBekN/uQ5GhBOjDwCpyHodFMSUkLApnB8hfuw0UWPadu9X39M7dEEBH5FbDbEvXWlPXJ7KwCiej1F3W7C9I/s3l/1DY0i3m+LJfcWE84y9e5VKU/egoO607IXCaApMOIj6T4Uc/qx0TY5JUHNtiS6CnUcxBK7fftQ9SDrVAWcEmSiEHpxDYEjB6COvvFG9cyzz6LiuBpwUlwXyOzTcGC0R/9A2ynHaNCDwtkJwnLuxZghyGuwIVlES9O40VAACtDThcR6RDy1n3ku76fZx4q3jgvT1ZNJs0ObvZqvAFXEVLi5jEH70va3kV/z/Tm2KIqJgXHtZAxXrPO8bfLZ2iji87GSu6Z8c24vGFRKf+d/f2Tgu3DhzPfh+i5R5P5WxX7lX/zpTz7w0XBnekiJM1AlH4edBOyMy2zJS8zAat5XdyK35cvVqico1e4VN1FUP89gP370FM7I6ObaITK4rTk5B3y2+rdh4YPgiG3Olnwj+Hv9DByE4tMsYhcgAvYYjDQzuCPMvMExgcDBay1VwAtWi3jYLq6gg1pF36KOjgFuKHhF0szSpFUcksgchEZn0cjy4IHD1cH9h1kruoB4AgcBXAwAogY7MCZggZnCBYGEcEUo9nWPYaAbry9ERR+EA5Hgmv+sXLg4mpdNwK0/FxVLJRz+57dgJZAoWhbg8zLEbl6CWHwH6X+MMXaV0CnRR29JfmYTAiZ98qKNWnFJBUCoBx1GjN+DC8ho1Uu0kGUcbFfQTa2gWmiDs+3JpkuKinA36qF6BDU3/ka0RRVwiyWCErZ9oRhsvDnft752AtTANtayHnig2k4QgVgzATl1Wx04pJte15bjx4/FadlNeHyXHnJNvreANm3jtfDRiECLaLeh2dOXJHc5nOK9VngyYIUxY5HvMuHwHP2vuFmrIuzcui8F6vyW86OfLT8GMvLPOHbcysFRp27SpH4ZY5zT4Y41o0mrRpGbdJ9kx5StyBjkXVkv9ZQaaLiKhddd5vpj1LBOqggcd1P48t3nuCQG3ef+fW/9yMCXXBttf59W/X6rEo6+fLR6+vEXqp///Oda3f6JuVaG5cbm5BVnYORtcyuqkBBuASV1PoKLogTDkQHJUh/0G6+/+mZ1/uwYxIPCGguuoCXRJ7oKolMnuiXzkptI+G986TwUrSQ285GYFTkddIJrPZCXl5qDlPQOLkUwvezlUhTFLMdBnI/wRUFR2DNLm/b8+fMJEvlrn/98tXvXbqI6n08k3/17jABSxKr0BflYLhmljUb8pVYyEjkUYUJA3JcYJQbrK8FEZMtz/E7n+RfCQQQtR33V/FNE0kmGlg1G8l3uWSev1d9CoH2etBK0nC3fDd4BvFPR6fUPV0Mje6tt2+X0WOSPyCWnLPDLjblErfg9ai3HaBKdKsvGFlhjS1/6Sdgn3oU16SYg7CD+fPrbOQm6V4XnR44c4VkimZDedyHAyIn5MS7eiZMniz7MNvFOdTvpxmChWF7r3HRLEdzSn4ASjxZA58R9PLrC0RcxkmwoozlhUGfL9t0GtDIuS1/63qwPL4X3X/rP/G0nOdizebdJk560TOrNdd+d4KzDu4ESFOH9TZevf9tOM5Fb1vgSEOe5bfTRNlQ1jkG5XcfEIkEzZlmitukh9ryLwzr/yMfY+ZNfol1XNsvgj37/q5vd+gm6LnltPMpIKnMi1+vbEKL/HIBFsctAgTtbY62jQTvdCOjoG28xy2mgQvfGEjCNGep0tH45S2thC4Gh4Nbk76Fo5WDRR8/CLN3Iyc6mPuc9P662iAIZP7T8Fiy5lvW5TVRS5IheB4KKewZWWn3SXDJ1CTcWuYJdO3fGQuz+rFMEoXRfXDkoRWYHsu2tOSrBzPaGkKQAPnaHBHc7TQHkAK7X8xEczct7EBaE4kci9LuAJHklMwAgWfvNh8c6/OYaSct3ypPgBPMiCsodMpNU7ayw6OxjT1v2IunfsavajojbO7Q9gChWL8CdZJlZAAidp8AhGNhH5Ktbhu/I5XzRn6Yf4LLgoBXfNB7I0cntudTM/ty9a1felyAW4KKy9oficnmXtkNg9T1opNCiCldIuYqGKv0DGvxWFBVEtOSqi43IKLDZV7xPx1wBKifaAn6l7+2PYoxIOelr60GncdRiuuDlNYEy79KbpePzLs2rqEcQr6m/+7MI/p7H94/6Om4Tziq1YYTyX/9QNzh/4AEMZSzRc3w7Edf+ftev6TbV+uDVXhF7Wt99e1ffHcdHGXTsf0NP/H+tinuTdaTf/9bT1S//ez/f6vZP2DUhh96A6PJmm99CkeQeLohbcmCuU9TJ2EAC+j5euXSleuWl17DkXsOiyytpGBEDPcjyHINHotdXryijJS4JzcGoctjfDm4H7wp6thgytCoy8Fw+5Ec2USV1dC6I1w4uAS8zcoGiQihyelH+SwAFZATMCxfGiMd3ozqE0v3goYPkhXMvi8wNeCkQDKCDXJ43jL3tp/kQRowXiCtyOuTGM4j3EJciLhWBcBEvsfwWzsKHeMy68Gx6LHlwBcIqdwWxZE5u1DNPcM3n6GtvNUibE74CguSUS37zr0R0IX9ERvcVWWvjQ1y9LsTbXgwZA8O7WJ61nX5k4kHE7aB/td5qtRY0BRbDS7WFBZWbLpORe1xIuN1MFAYSoNHUTyuukadX4pun2CrnPgzHZ5+tYKkPEAE+9o3cju/VT1yAeOeCmYEKBBYjPfu+XPXhc1qdBS7F6FhS4Yytgwyb9TIPJwmaHu4/fproVzvxTQyQ8azSgXlrbbV834B//eZW+U6X0ho6mLdG28t5AJJ7PsDTlFkAzrW8trnm9uTeombQ0EFZ9p2Ab916EP8FVIFZ8dYVHuazQuiuOXxSNzsK5mx29+1df9fAN3bu9B+h6xujuAOtivxX//Qr/xYAnyOgHjQbe4FREYrkmojAz+K2wmJzQsKfOXMev62XCSI6hl8d5nuWR/XIQZFOfNDpVJFVvZILyhUKaw7O2dcB44DOIIeD0YrmoOdyBpuDVJCVMATGiL4qlAE96xswAugCLs36OaDdU0OfvA4+p1kV8PTTz1DOSvXTP/3p6uDBQyEYxWv37FiGq+whLHm3+TNgyTYHTVDGSZvN096RuKyzMCRYqW80gf+onH/L89SlcHwFsOzCcITeJ6fS26U/C9YJfKUdNiPEKeHq0yNBey/3uUhd1OU1OoiWgiW36sDPjC04B0f3YcklMADBCHQCF7qgWers5FJWFfQSdTniLXmqnxWU5tCvxieO4noBuk7iyynSSfD2uWKyEVJcj7sPdxUDhKZ+ghf+gubn+zG9fptyjkZ2FjicdESgAQxZhnwX9JyQvGbeAp+cn2PEQ0ON+RW9rCKy+lzKoe12Q3o6/Vzeg21TlA7wMXZMYyqSF1CkrJThBT5yd05evhuv571yTcB1og2XZ35klP7mGdPattSJNBmHlOE4FeR91rRKLOVd4r9646oV2ewYE3M2u/l2r79r4EtBbdV/QVv+vFWhp986U339K9+t/srf/EKr2x/taw4UxgRtLyee33HUF25/L7IZ0Ao+E6+9/Eb1zW98F2fWKwAADqdYTncMj0Y5bmw8xgMDxucQgSCeTlxZHEC6SKh3cuB51IPMQax/noNPaMiMzH1Fsm50g2VwSSAlT0EnMzUita4rmaFpRxfcUC/cRRc+Z+57+tJLL2WLwU998lMsq3q0OgTwrbBaQ4us20MuQKhtI0OxFM7PMcBDPcKGGCPRMfDhlkwPe4dujbpIuwHAAowkTV0E8HRpEpAD6Uv7yEeik6BK4mb+tJQHQmRgmgDODz6WzQ04N3P2fkRbAKVNbg9DAjt5kx7REHeV7n72DcZnrxPO75abLMGppv/IQoKVKOXSFCu7AakF3o/cm8EC5Pbsc91D+gn2qmiruFmq4qbccPRYv8+cPlXt2cWGP1iF5YgCjICSYnPAh3rO0N8Cn5OD4Ge9DRC6C52q4OZud+kh+sF/3iej4lpDX+sAr4+g6grfp4eW50wizb6zDy0v/oXUW99R8yBRQNNxEUDjd/qTzvQZMkx+FJv+tV+9bv84kdoHmdQot5QseAp8Pk9q3y0nAWz6PRGoGRPGfPR9qSpxTBtFZp7PpodY8x4czovv+hg7e+pr1P3sZhl9+ff+XzoISv4JPIoTJ61vHnnJ/PFFy5Vp3WO08uaZJfm3Cug99RfPVH/x+JNEs2EnqSlEGUTbTiL6ThNLb5n7K1gPFYN1JGb0ZeDaf3q8q+PrYYDvxdM/8c24rwXNwRNCoCgHoAPSw2sRcRmY0UFxTzD0sK6FKyhEJlfZB2EOo3ORbl56+RU+r8Jt9FaHDh/GjeXRAJlEoP7GDFYAWwdR9F4SGcQcTgIgloBqjqMQkwBWRCyNC9bD5+wnfffklDyX4BSFJH4tmTUhRjSjvUXH1nyO9EVn1XwHITaJSf2WedFWXFTaEG27cE1pJ0JwAxG3rcONl0arURyUt8Pt4bDHygJdL8iPMu0brY8L7EZGQ2ONVUyVo5JINVAJILqj6Fgs57sEh7YI0OUDRzzBqpaTJ9+qnnnmKSaPE4AjUbBR5NseCxAIFO2sv3qw6wQfcGIDMqg3UZEJLrCbPS/00RS87BOqlU84e860Zpuf9fXbuH3qzwSRou/TX7NwaI4Fx5GcllGOY4hhTBVDRAEm62QZdFrqKEjL7QtsApz1FMzdv0P9clGbuAbYCQIwTlnlvfsei+6ZCRU1gbrIrCiBW7VurvV2MhEgXUesD+T1qzqKtD6o0VmxpvXdd3b1PQE+i+QF/NZmRV8fv1H9q3/2b4Oh43YPOFA163e6IgAgk6tamF2MY/KTTzzDBioEipxmJ6s1Bigz4BqApytK2YdCIi6Al4HoqOaIPo/Tn/op9jd9+OEMtIAZg9kBHbCAOByzoq1chUvQFIFV0GcrQc5lkwQnCUW9lIPWwe1sLLHJtb3w4ovVk089jeV2At+z4erIw48k0GUhnqavl7M7wB43CUr0eT/qJANaApncG3X2uRAgZUoQ/OQyfzjxXvmUNluvEDrfgoK//dwBePRvQsYnrSykoOBw9hygo0/bFWkBOZR4cURuwFkvMcmsIM4O4K6yZ/9hXFf2QYBscQiOGxK+dtWwj1w4r0hrPEOjTqvnk8sV4FboT9EmYEw7bJuT3SLAdYNwUxcvjlUvv/xS9d3vfLt68cUX8n7247QcfRxg4uTkOyizokYq9pa9ei1AaLfIvW2D21PPZ0DZSVUh1E9uLj3He45+T+DgmoBT+lKALJOL9XP82Lcelll0cQKYhi3UJL6F9L+P1+/B98ID688x6Qb4NJgVx2yfdcwIdvaBE5yHY87JTeCt36HfjosS0VmfR8BTAwh1sH6Wpbg9M23YKvp1k+N+GLPJI5tefm9EXbIfO3vycXR9r3P6WKvSvvS7X66+8Nd++Sd+UyLHizDF8MtAKtGS4T5gyk4QLfk733wcx182dIa7cO9FnYMFxwxmRoCDaA2ik9AdDJ2KZgwmB5rLzAwP/ou/+EvVQw89lKgXzsQO0Cw/AyTkSFYIcJkBRU0ifpi7RNasnOfO5G0AhLH6GhCXtxVxHcxvvHmsevyJ7xM6aSyDeGSH1jeWblFXuUJ593A6cAANiJEKBoQazOKJDCPBAaa47wHstkEFOnWiAvaNAGFkFCpVPlxNfX2u7okmERZjUaaBcAY2oTxXmkMvJ7xW0QpwN9wdwAuhSXBeb7fOXJ9bRBdFsdtYdTK692A1PLonRg5DTAl4usO45aUAZ9/r6oMwF67Ed2BUFC2zGnXkegIeAIH+d0Zm8TDi9ZXLF6uz584webyQsErqNh966MFMVnJ9uh7ZBnGlBnUt7GVzHi7SJuuTyNj0sUEKJony4koRP3J5irByTcUtpXBlAo59bLv5TzaOAyZAJ58Nh+WqRmG4mLoJXOrsBCvb7our86APyUMOX2tyPZ6st+Amxyan7vVVVCCOi3b8G+XiBFmyL23lS/AzXW29dX2349Z86P0f5rf3uhizoRnv6vQ9Az5rgfDyGzD/Jzkt8H9X1b78T/6o+u/+x//yrqs/OT/VN0m4CWTJCxbE4tQLl/H6K29UX/2jP6nGzo2j7zJc0WxAx81ZFJnyJEQH6TH4yIVPYECA4HDAKOoadeOnH3ss4Y8miPThoBFYZox51jzqmdufLhcTVHxesUOClovSMuuA9pqWSMMUWd+3TpysvvOd7yKinYS4lxCzBqt9rA45ePBBgBHOqcnNRfyBKB3cVrcEKkW8Z53u6hrDiry12HrTJUhrWJwFFgoNZwq5hcCSxmFP/XJwX8K2DRKuh3Apgeaaz0tNppF4uW9A0KSAGNUhduimApHJ+XivBAyFo2OEDhBMdOfeB6vtu/ahx2SvWQxKBhM12KhrneVceAxQg0uG46OHsm62Aec3w76wgp8inhtyO+mob13D51KHYMXfSxcvVq++9kr1yqsv4QJ0KWncf+IAfehSNAHDPrdpconqBC3TjZwMYCDgCVzmrUiq6kEdLy+H90y/2vSAjlww7ec8HJ6qDe6pC+ykj9JX9I3vu6EVuswMpe9JV3SgZkseNLioIBBN7f+MR9NYhn3r3MY74rr5W75ll74qbXclhuOpBkdVGXkuInB5RpWA0oUfpRPfufuHCJwLbCV5nwO5qPM37nP/Hd96T4GvuYb3K9Tib7WqyTf/zberzxO84DM/23KJb6tHPvTXfLn3HpIpRMhgc+CdP3u++tM//rPqqSefrob79xAttx8l9yBAxiwqeGjVg8Ak8IimjlMylsvQ9K8Dq6NIscI1n6OEJXdgywXm4NwZOYOWwcS4zKCUq3OQZQYnocSmmCl0yC3o5ydxDbL8bBCAO/7WieqJJ56oXn31NQiv+OVZ5k78ztwc2thwEoKH7VLEdbWHaboFGQAOiCN/ymi6fDQAPMsrYGYdBDChy56jQrQxjeXU71xNGtJR15KmELK9mjaQSLANYXLB8kLocizqBFHQq9sL8ZGORSWAH6sosKju3n+wGtlzAEPGAFGT0eHRb0437o7WQZ+4AsLI0Wtw5MtYqV0JImeyivuJ+iy5lXB76DYL11z8764SRMB9aY8ePUoklaMs78MPjfZYL4lc/z3dWwQPAcLD+jtx+Y4u4dxsdOUYrqg/FQl3rbFBPax6Xd+Zagu5ZfP1fbfzvj0EI8dc3ovXnBTsPz66KHkv6Tjj4eZ5Ad/0HXkV6zDvgPfph55Luhr88jzPmt7JVNG7vV1jWgFc0zkJ13o9KpG0ttFn1BE6FhX37Qv34VXkXVxlA/upGylrkz9f+VHX5G6Sn/b89/YY27n9Pz5wHYUEklOrnL/0u39Yfeaf/M+tbn1Er5VB5Eu+43DgIV4RILF6lgCizz39PPvTLlYjA1j+0DUJOjp15jEHGQQWam4CQQEWBw4DCQArLihlt7Q6AKjclpyBM6eztmLl6jpRqchmQPJHgBKvHO+BFgatROQsbww3ifk8O6h973uPx4qr530xrBRxypUarjjQidbBne0kISRDthfwQ9yGm5LAmf8557riVUAPAqH+wAr3UwHu017qEM62OTnYixJTRF5Qzbqaj58QJmdySHaTl8OpkEguFfQo2Dg/ywAAQABJREFU34AdhYAZTCT2G3nTdOxKnYA2+1jgnDy65wFAbxDHZPYiZHcyQa+kt5ziW2cdXPu6xifNoL72s/otP4m+wm/TScQGG3399df4vA7HR/RjxGA5XI1Ctl0x2H1k5ZB0ZA6oNNsaeOFaWRkzkbZFF4Yb0igOvuFaeb9iWTgtuwQfQw/fOzwYZwIb1+gP8xPABNesWqF+3g94UaaTFJ3Eb/uOp/hp/zrJtmmIS+ryR0AWqK2DABwASwmOLUpmi9IYdhhLcqNxoubcvnJSML39UwOf1xyz9ptir87kpr1+7WLK3eTPgphSndvk7o94uUwDP+LDLR974QVHxP/U8h4Xj716vPrql98Tw8xmRfwYrzvYYNl5kU6o6oNcNeBaU8Ouz9ycr04ePZ9PY769OrTnMFtAPpBBJIfmhFx2CGOQ8mz84Fjo3wHRtPONGr7Se4/VUaz/d6eHNdxJDgSAFpk9FTsXANBJoiL3GvcMblCjgmKeROBglv9Sb5VlVxKQBEcPWWX3X+0jOvP5sbPVH//pV6u/+METeN7jRArBKy6ilaGsfvR7h2L0UPclsSwv8DCgouhLpRnM+JvxrcgimBalO9xfDwSmwywYKCZB9/koZnle9uRIVTmnz/jIt1BzPjxH/3gl4fA1AuGe0gMS9fLpJq1rf2MwIU0PelLXjirmdUj09GE4IzLpww9u1z42ZNp3iNAr7IHBhugTM0wIFfrVjm2UheECIwhN4Dn6R6KmTeH8eA9uICS3J3esukHAUVdnu8bGzld/8eT3CSjwND6Pp/C9m3VIBKSi46KrjDi8b88+ykD8A8AE61hlBSH60Unw4qWLWb/Kk+k/95kwYnNZfWOZhbPu4r3EGk6H2lPkECARRMLhcSWqEwoSlGyL5fnx/fisIMhrTB21wpNNANF2OTDMl0uk4X2rVyS9o6aI2AXIzM9ytEI7cWo8czLNUjQeFuRUs+hK1duHTyj1U1+rBXkW62100uTpGmeDFWx6iCViynt80Or3/hg7f/p/oe1smtn6+L//j39eXb183wXIrR/8MF51oDiKeIl+wi0wUxo5+cTxk8RSe5WNZM7herKregDik2sKR8UgMz6bLL8DS0AJEUvtDNoYALjmjOm5inbTHz6MJXKH7iZFnyIBWbRD1cGYulgVDmd3ucpEYeE8Igz3/HY297q6QZXwzxPzTc95jSP6FEoEKs73EhDzwIEDEDl5WzfKMYSQerseBjqlFK7AsgUpgZdPZnkITcJRhNQh2tUGip/e5w9ZwZ1JhKTLh+flcJNPMz/bYZmKUCFE+kTAC8cAESvSqgoQqLuw3uq2suJeH7gHdbEUrZ9AA1puh0b2YOToR7RlZzOARmgt5RYSsL0R0XifEqIip22Ta8pOZ02jhlsjqmIQCM+cOY1z91PVy/g6jhNcQDGUSjoK8u07sh/cz9goOmULR19AAT9ByDa597F7ZagjtI9dxaCjuksFpzBsaNSiWhkfvoECXI4Te4aPfUh/OfaKmMmkYR+lr2mn5ZGv4ysg2EyfDHjG54q+1z4oY89rATrfYZmlyqSZflJPV/R9Plc/77nX5eL0KbWf6uV15qH6ROuw6hvb6PK2H+K+Mi6W0MT3/JAPfl8O5o7f5KV8m8x9N3ccNvyf/8MvV3/vH/zdO65/9H4wojgUkWwkY8UfAMFa1sW6IuPll17FWnet+pnHPgMB7Kguoccpmz+7iJ29BQCXNjggN6B20Gbg0D8queWeGK1FhGXAGazyAUBIEJnC50sXCAdvRCgHHAOt5kgMxik3oUuNnIeA5jaBVlRi9NtQ5s89/yzcynPxo9JSqKispU6idbA+/PBD1UMPPVQ4BYDA5xy8tle9U63H9IaAJQerwcIeaRiVhQ8tCHFkoyE5AdqiAzNrwkKUdFm4Acg2oOzzAgI9wJPkLI6RbwiZ35YhaJID9bUc2oX7imtv5W4XKaMLP70BnJKH2XNiCOAjkF41i3i7iMuQqw86u7WE43+Gm5GTi1yq/c1UEcutYm5ZcqZVlf1cATz3gnWlxtyNWSIjX2Ins+PV2TNn4sgcUKZfBTPfiZGunVzsa7eK3EcMPttQ9GjlHShCOl50YxH4BIpMSkxI6vU8YtjgXSR4p5w8xzrw8azn6SD7mD71+Ta4q9pokvs8Y/34W/oSnZ9DVcBKffiWe5MuBUnHkwl9/wkV5QvI845TPnm/1MNrvAf7zfwd9wKdXKrBChwRps1YRFrw3IJNb1tnb02Ua9SlxUGrq99scf09ufS+Ad/Fc6e+i3vL96jlF1rV9PGvfb/6y7/yuepXfv0XWt3+SF3L++Q1+fL9Z5AAwzi5WfL1azcBiD6U2yPstLUQzkAdUKLMMhjkEhxAAoVBGLUmZnDxW45NEULDgIDkaophuD1u5brgJBfoYFJ0FvQkNod4UIHrJZQ9BMHglTtU76ToNc6mNk/hp6cxw31dFZt91swENh15JZ7DAN+u3btSZjgLsw6RKA4Xscmb/pNYIq5C4NairV3rJWf8tk4NAD7x7wS9EKmEZiUFysAeVMFv/3udpwTscML0Ad0FFHLVcuD08qGeDTi5FX6v8rEFGii62EB9YBTdJCJmJ2460+xPskRaqI7+1WBUiFmdG8WTp2WhniBKjjHgOqhHwmhRD6MpT+NjNg/wLSP2vvLKSxiAXi6iL+/HCDTWtvxRzNOA4W+X5XUSXn5/jBty3xFDbYdtIIm/x8bGmISw6PJ+uhBvR0ZG4ep35H35DlZwN3JlSCZCCgmYBPDIgXqbFyd8mu0QgKOT8x59z0dOrk6ThP6hfnmK+9bXCVJjVYCV/OXWVY10MEEJ4DWIJrG5mYaP78h34vgS0JxsHUvJh+uKt5btxCh37i5+s7MszyOQ7X2O74kh97n/rm69b8BnrXq72v4aSmRjy7Q0dPze//bPqs/+/Kdx0Rh4V434oB8WtjzkfoygfIsIycuIunWo+IGhAbb+m6guE+HEgJ6CnoPRASzRCXQecnl+MkgkDDk+vgMLjNDtKMgFPhXm0SuS0gErAGa2Jk+JQAJT3BCAw3WQj9yZSnMH8NkzZ6tvfevb1Us4KQt6cghyPDF1qXNi8HYgMuo68/CRh9DRGBZ/UfNEBruchfkWfRF1hKZcbSJDEnC03rRDTqxBIAJyt6Y2lN/cExgAHzeT1iCj7sd/ipWmM35buBfaLHDIgQRKQ7x2j0RJ3nJ65O7aEffJYGedqps6Dw5ur/qHd7AGd5Coyd3VDBGm8Q+Hy0PU5ruBSClr042/2TJ91o0usrcPlyDWHh99Q1fUFcR7dHIAqIDnRLWKrm98/BKg90qstlPTDGs6P8Yna0++pucCafnBNVFFV5ZPEGbePS/i6uEL46jB0vW+J1jVceMmkw+cvNFv9u1/wHkBSQErL+/RPtC4UMrjHQs0Zs5/D7OMKEvfJkIL7ZSLZb7hnvpU+i/jrfwuT5W/9WQmeK0sq2nWqCPQ8Q5olIYcDydGdXiRFsjTfM3TjxVxDGuAU4QVQE2naK/Oz/EUMZ60XveZqalryXeTPwtixyb33pPLThXv23Hy5MlF2vjbmxUwARj80//zX252+yNyvTkAMhQRn3BRmZ6c4VdHdZP2dUCcxlK7Agd49RomewapQAK+hEgceA5ciULQkyz8lnSQNfiG42AgOVh0KRlBbHJWdeG8S3z8KFaU6BuF05BT9CMIOvOrV1RRLvd39PWj1df+/OvV88+9gA6JdbaKZqRzYDvgBVSJhrNqcHgbovUDVgOskiDU7RXuwvqYt80QBAVeiV8isNxa16cDtoNdMTXKdZ7PbzI1vt06NweVel7HvFOJ77phCbzWO8k5houQ8AEDLbfuDbzMd4P9P7oBvCEstyP7D1V9I7u5BqcHBz3DO1kW0KnnCu1rx1q02iCwKJzMwDZ2UduOCYm2vf76q9X3v/8EnLpRZ3B4RufpsjN1fAX0XqreeOO1iLa1ztEWexQ9mO+OTqBv7BjfrcB35JFHotYoOkDmhOZ79l2rv3PvWCdJ1R5OQPaTer9rrADRoGJ/WR8nA4/0I30QEGn2T+HokOh53rSFO2y+C98HnwJSySJ/LN88vV44ddPw8V1Qpn3tuxXQEgyDF2zTbh/mwEGfOmajw0PMtQ8cT1p5DZKhc/Y0k4rjVlC8cfMK42VzewVl/LbYUTJ/f/6+r8BnlS+cPfX/0DMvb1b9b3zlWwldtdn9D/v16Dl48RKt6zUVOSXYRRa730DM3YZ/XDerI2bRx8nBuQ62HoAOLgeIXvRuoyfAAaMyS+XDAJK7izsIA3r3nt3Zj1RwKsEKyhpRGSXL3bh+1Pq4ymMA7lLQUww5evRY9Wd//rXqWUBvgUFYc5SKjM7KDnqJT1HN7507d0Xkkt5KXRV9gGLKq62LiQrMS1Jkc7WGdfn/23sTOE+Sq74z/3V2VfU53TPTM9N390gjyRhGXtmCtS1kbMRiG7yfZW0wWsAYGSRjrUG7YLQY8ILMR/DBLGALYUk+AUtg1iA0QgJLw0gjIWk0mkNz9H1WT993HV33fr+/yKyq7umq7pnt7umjojsr858ZERkRGe8X77148aLQhsALZwM3qebMQ+lSt+0dRHKGWl1dJirUJeUaETVELlgDAJTBZWTRc9F2Ghx3Up9uJi2mAMZRwUyraIhr8YpV1QrXtWKg3LK+1GnYMpFfh3sK887hERwAONvLtZ6r5ToX9Sgyt+JU9ROf+KPqAHve6hhgGCNluWHtLDVXeZzJn2efeya6vuhCybtpkwZkBDQHAKqaIBi5P642fMbNwEIcwSOcOPUWEI4fPx5xMAMWJiXuXex2ka6CMLLcVfbEDaCUQSTmJbSJIYMSbR/ujvfI/RnsZ0XcrK8DgOEVy/P8FbcKB2exy+DC18q98t3l9FyxY58o+ZX86+Qkyv8An+V1UBB8HXAjndBWgqGzv2fOnMRmb76JzaknC2ZM535NLq458KXUE6PfRNvMCfG/8Qv/jpF1Xnn/mlT+amSaDlIjlcR/+BCT2RCkRsuKmivvWBWwEngUUewMDfA1o6xAInELMHYcO1cOCEMikgjcx3Xt2rUhIIHJzm33a+JKVM3khh2vBLhEnBm4lvNJRLRPffrTuDXfnndJeBKay9DkTNS9NGKPae3s69atwWnmKp6lWBADxGVdebN18D1yaJbRNawSarywEE8gc/e2zhrUrEpxEFoAUdBTMmzAT9FK8c/62AagXmZqF2Ho3YuvvC68qHSwpraFPm8EsXYA2XUEO8ludKcr7r6XCYw7qz6WoinewjbFug0NIpyd5TU7JzFsl6Lfsy4uNSsbr09UDz30sczOPvDAA3hDuRMuRX+IZdDZuvX5aseOHeik2AWMb5jBrkY3efS8gTL7PWnE+ijfcRWiq96yTWdfkbP0W1lFfwt62vDZporDDoxOegmm7qlRNv5Gv0eC5luHe0sf8Z7fQU6xFkVJJ8imf1gm+4mAR3z7i83hdzf4DY3rudSC+3lPeZf3y1HKWoC7cJ1Fd0hdDSSTm7VuaVc6jCtOrLN91XSa1iilnDs7N+hRPnQzo99UMr22f+uSX9uX9Pf3n8TN+E/P9ZYzp85UH/xX/2muxzf0fT+qnUoicZ2mQDDATmRPAzTOBNrxnLZ3et9OZQczTbgF9TbwPoIQdJh85ACd7QsA8FTRwIXvdzHBsH7tunBUcnaO+HJyAqk92nuZlLADBqAEtgm4llMsn3qq+uyjj1Zbt23LCKz9ntygxCURxPyE67ItY+Ew5BhXI1ovJW5xnEABa2K1vJY7ZSWe7Gn2VYU7dcOhFlxVO8o0JwgySQDeyO0F6GgDDZ8DfABdaQdNUgqHJ5eHsotBAuJnUkiTlK5FS+HceqvBUdqSYwBd1ChupbpwNLB89dpqOcC3CDE3XCBFG3ZWEYW6CoPmEFS7tb2jTOoSXQHjJI8A8dSTT1Z/+AcfDYC88Y1vTFsLFpqsbGegUC1w9Jj7GgP0lNNvKGjJxQQMBLT6EFLynGd+G02BnKzIN/YhjSj4BCT5pTjr7Lp9Qxfsy9HhCny+qxfwUB/sIGSf8F7pF9ahgJP3fK6I61EADsDyVZSknGvgsowpswBFHuZJewtu9gPrk8EtacsfnzVisnGcubV+lpf/FwTbMv2ScutyX5WJ3Kid1hKNjAzwnrIa5IKE9Q8xQqy41LOrfU+t83UJB/fu/Hlmeb+Xl736Ui/8zCcfrV77dQ9Uf/M7/salHt+w99TJTCAmGk5AHB0Ywm4HYHZs38F1T3Vo7BCd+1QAzBHw/DCTBHS4xWwc1AWXJRHYGQ3FwJRRMgSrCIOYBxE7ot+/+f7szCVXp2cQua02TTK4Ljo/PIYoGtGRy8RHK0SlMv5LmKvIVahHlEgyU2zfpaPKoZQObEfmZqiy6PkUrZvNoO3jPlaUm56AAfwofERGIR12jwNCwqRE/iKeiutZ3UlNKHwd/6DO1Nf8DN4T+HPwW/FZ8GP2AhFVz9IAHeYhA0MAKlzQIjij5XB3SxBve7CRa7V381xdKAMAoOvWj+wAaNUQsQlkHNB1UPE+LexElPV2FvfjD/0Rurvnq7/+198coNINlA+3bt1WPfTxj1e79uwGNNGTApaKa9ox8tJS8pr666r4tumgYt/d1OKV2fbhcDAKmFAOB7VDLFVznw1bwYFIQBxB3+ckgQAjJ1cC15Tf14VrxMGFOZqXoO53VRRNMJLf0f+Ale2QySK+VeHKCiA2QFp0hwXMTZP+6GcyIXlFEjBPHuYZbReTF8psEET9/nLVlsF6awrkffunacbZ1Grk/Mx68iS88M82MeLCW9fuV9Oq1+4Ns3OeGPmGqr37ELdgU14c3v/eD1av/nP3V1se2PDihzfoHcFGLu80+qCIR5g8PPnEkwEhdVGnWHwu59cNd+ZmyY6Ydg7dQdk3Y95A3STIHHS2SU066CxycILaKiY0/tzrXhf/e9EHcc+0dr5J8rID66HXmxKTCnFGTtwhfQVu7+nojCSMHjgoiUmxW9FDjq1b/RfpxECJJDu/0Y0dsV2qZn+3zAbBNt5YUjz+ECS8FAawKzO1rhaAYFIfiY6JD0FGKOQ9/tOIOfpF3ifBWxdDxDLi6eUFlSf1L+Y8bv1ICZmpZb0wQLcEDqp3+Qp8ieJmijycUVZPOkFZJEE5D98TaKAcFDBWMnKxtrFuwlTE627qKfwNfvazj04PFlErMAtv+33u85/HacN2DLo7aQ/20yUITpoQySkVDkkwKJxQWqmujCd3D9u0aTOAibdn4vhO6+u3EBjU72nG4u5sLYyvncEdQGqwz5xFz2c8im6SlNuy21gCin3Dts/BfVvYEI7NEcTvUocUqU6Xbyz4mhfBWE0eAquzusYXrGjS9K0iNpdJuNKuvIf6+NwZcAcZQTLqCgZ3PYabRjMWjfU1vj97et5ZXJTjYMN1DNcV+GRj16zf9P009X+mjjNfZlaF3/fzH6j+1X98z6w71/nSUtWEOOebm5ITzw4nOB2H21uxbHn1xPanYtQqdxAOYUB/bphZwDFEvxe2BtECDqUYG9OB6Kdye2HA7MwUYJzOqU7EXnj//ffngDqztlYCmGQBvUvTJGbXgtr1FXeP4hHkueefDUHvP3Ags4aOwIrFdnaXukUPx7W/JRSnH5yE4JWUCR+BlMENYO66a1XKZDtIbALsJBycHJ8AC8NJusJp2CSW28pMyfmxvCyGyN6XO5K9g9Y8Nc3nhIPUI6HxP++VkwqXxx2BTBnZtc1LMP5evhIODx1eB207CqENMUt9nnZs43W2n8Aj8MVUBCAGgUOMZqMtpOOJZaDQafsD+w5WjzyMmzAcDKiMd/8TN1U6depE9bnPfY7JoGdT57IUsD2ir23Q6EPlyD3QzgbY+JO6+MdvpHpi0+ZNqZfLt1RByPU3kwR6Wz6JGUsCZSvgWExCnKwSOAs3ZZvxvWw44uVkoxm4aRwnEdSi++3sE344l+y5k533Ani0V5ksY5AiaeJR73BxZmWa2pDet5CsPpo8akA1P+LLKZpWuzzbvxGVBXr7h16qNQU6dXJeV/JkNfX9YgNZXrdwXYHPWvXv2/1biLxv5fJbLlVLNyN//y/+++qH/s9/cKnH1/YeH7rx/1YI1C5Wf2QvE/hOIVg7hZ8fH2znhqoTR09Xr970GmaxDzO6DcMtreBJ4T4Uk1ynaadyob4A6IYqE4hljozmZydSxLPDBAgg6HBlEP7GjRsQwe5FT+jMcNGPCVgumC+6Hbg2uDg3n26WULkaQMBxhtmR3B6sgXQAzHembJ4ACBDBedeih3L0bjEpgxHt8mVwHdiynWGDGzp2uCkIv5pC8Y8ub0wkwWSEHbgRu/WIUriCcbfG1FU+4JRm4316nZmEQCRCcDN1lDh1eOAhgYpKU4i147q1Ir/ePjYzz7IzNgPCg0x372JE2alqkLYaAaXHBGCS6f/N+XCDAJErOZAQI7PsTGKo1wv40E49rB0dO99CBfClcMR333U3ZYBTBcD6+/ejjhisHnvsS+HUbS/F+zHqVgymNT2iJQLw5slLRdyCulSMMhDXNaorWTVi3gbVDPYD2zhcJ2fFZh29yv02Oj8HSfuE3mIcjLzW1k/dWQcbI/kd/aeO1LYM2NAWOrLw5TajujXjkDHPneKxbRXwBT4nGsosq31OrjJPKXfai1gG610qZ0pjmHu5J3cdMG3iyPpRZ2fALatmLKYaAtidxdUj9Tzhk2LCPM+vyaPrDnzWon/frr8J+Dm9Izq8KDz0O5+oNr1qY/XN3/6NL3p2LW/wWf205TP7rf2RUH7kZ+kDxBEGDCht0cksZXeuM6cGWXt4GqJAl4cB8wQ7wTvCmk6Q0qavD/MG+jmMDZwJo79hAhBUTHBmt4ighSswoWYddzKzKtemaKQ9lYSjaKFRrTpARaX9+/ZXn3/0c9Xjj30ZndHJcBWK13I6irJuSi5YhjK4p92ZHVmdjwp/TrmWMAVm93lQN8XPgFYnZbfC6eNspq3R8wB5nsY7sMSq8W0H+UoQnTgUaAFeekURRCN+UWm5g4hQZCQ4uFZYcJwiL4nJwxUjnXA6PZgBLXYTI1ZdtNSFYpw8BHgg/WLGAuCRxwTEb9vqrMRvIXhEd+c1/3gMQaoKEPQhdr6HZRknP7njAwf6w/mtXHlHdfLEMdbFngb4DvCt2Bgc9YTcnPE1qdHfYDZ8AmwV3QrS0R7UqQwYpT80gOA3cmJjOSK5wckvQwY6zsZzMswNhuTGHHzKhNWimMDI7esIocyGIi4iVdhH7AcBSr8d7eD7bUsP+1OAk7wte761DUTccHPEMQ/1rb7fMvpuOVEb0qh+r3CJdRlNbT7et+M2gJi+ZArum1c4X95pOQRWXdOr4rnM6oxTYkHecZ3/vCLARx39XN9Es3+Za4WPF4Vf+7lfr9ZvWVu9+nWbX/Ts+t+wS3iUIKMnTXlLsdEZzeWsFNj6zC5G8DMwKz1ZrjYGYad6EOQIS510J57JArgfiVKRx46knU86DnlJUHZmJ00EIGf6XODuyBzuI8RYCuDvM5i6bN+2tfrUf/8U4i0zyYBj06nVsQh89MbSuetOmudUQsKx0wu/Gc05GxTRN27ckJUb6p1KAGSojlzBnbhQX7NxY3UUkBgE0M+w+xdsJUSHbod/4xgGj0vI5CrB6QFZAnP7ywwEFh8C0ftzJzZ4nRgfdzCLq9is6Q03sjxPkVJBfESuUJCn1QW8OBe1Aa1bQvNBJMLybexUgoz6Sd1TSeQtJp4cOM4w6/48XqYVcfsA2YMvHEDX1g+HtjxmK11dZbbTNndgsD3Uh2aGknyb2UpBKYbbtGMJlqcAoDOy92+5PyCmbq8ZsMzHw2/XzzsR8VI2xeml+AvUpMXvbt/Kelfa2+/lt2r0eqb1Oyh22xEFJfNU99jXtzhF0T2+ZTetkTJY0ga8OHl5Vk9p37V8yRNQND/T5LCNvWFh6EMRjev0mSQRsIlbjO+LNOFsuYPqWVa2nD49r4gbDCBzieS6h1cK+KoX9u18Yu26Te+FMH9irlr/yr94X/WL/+5n6QxFsTxXvKt1309saM7ll5263Mlfv7X/PHOMo4WnC2YUff6ZrdXRwycYnUv3h6ejE9A5zYI+FXEP9IixL52qg09vh7OTxYRFZCHvZqZWrsSVGnIOgqTpBCInVBRZvH6ayYs/Yubxq5wlQkVfgdNXRunOVRscWswWBALel9Jx3UUHlWjkNHSRr5fhVmsMm8Gl1br1GzIhY8EFoxhXwyl0c73q3jXVX/yGbvSJuFI6eRwLFgBWrsr8QoyKudrSKXIxvOFxWgJpB+i6ehXZCsA5wdMB8OVQJAfo2hHTxmiHceowRB0jypGHYKfOjwEz1wJ6qYktZpUK4PiDqOX7cC342caZoOHsDncv9B+qPvPIZ6p9+/ahH8V+0fTkpr5Nm73lAFAmMQBkAUvRzYFJ8xY5Hfc4bnama/RjdSmSE0XL5NCatX432gGuX+Ax+K0FVL+dM7q+U6BwMklDZ7+HOmPFYO9nawK+vX3OOmQCjQFSEBLkOi1/QF3wayQFBlPKYNvZLgFJd5yjLQJolKNBG9vGupV6FI7Oe353T953PG5n6aHgGs6PNpDLbYDV+Ma1rko0ToKdmddI2e8z9d4X9u96wjZ5JcIrBnxW9sD+3e9G5P1GLr/e3xeHA3v6q1/92d+ofuK9P3Lxo2v322/+onDRzfws4OfaXBg4RNxT1a4de6tTx8/SIZdHNJLY5XjsIBJgi87TiASou6I3ssfYuey0dtAQLe/X9k+KXL16dRxSxmQFgjCuHU1j2q/iKfmTn/xkHGAKeopB8DV4ICmiWPzyUdZwBpaDdDE0peN2IgJK9IvgQp2VdttLVlSSui2rNe5jvagE6kSGICDwxYkmPaavt6e6d8O66k5WSgxiJziKEnsK4h6bRAynHllLSkUKQap/I9AWliP6TggkYqmVlcB4q5oouTv3IRmlvWQmILUsTRPsoDNEZxrEOLODFMf/EDSPjZJYRAs3Cyg4ALidoiKYsvoxlg4+/dTT1TE85dyxckW4spWsgz556jhqguPRSbmyw5lyTTTM0Ta3/O5+FxMN2tB7vtfgteVI4J5cooOWQGkc27D5ziYRRI+hhxUALZ9mK+ahmzBBzxnyDr+PE1fUQRBzwsM45hNzJoDRSZmUgUz9vj5PnDoeP2gT05e6J5+6DzUWBSWNQCbYWQnrwvtoq+KT0PvKBbSD7emAZH8wT+/6rTkcnNUnHz68jzZCCpg7/Jm0P/fja//kFQU+q4eM/5cBP3nilZeq7uc//YXqP/2bD1ff84+/81KPX5F7dvUi7nIFQbZja7Zr+55qz879fHA68VIACA4mrsvrjkh3pWPQUdHZTY443haiaTrpKIQgxQqQTnA4sssFbNm8OWeJwc4m8cklfOXxr1R/+uk/jc2gKGGnkwAkCgPdP9cNN1DeyF0Lnk4dOApXYT/3neqh7LiuNnD1gms0dXQqYbpMi6mSANIA90aZOOmijktW3QX3I6Cry4TIIYxwYxIQ/ylUdHFWLnVtiA6iEvDImuIYUeLiWrFWZAgoEoeC+zTpiZN6lBu5632hyXkW207gU/Hv2fyskyKja2GlU+vpXhhHmAiyPOPo/YzoEjV3oevrwwZtEd+O+9bJ9iiiZBE5Sxp1fya7oCAUxd8F4AU9PSgLCOG8qEXKR8FMpu3enr17AoDe96bvd4BxkHPVhs5I+5jQ8fcU9XB9su1pXAc5B6aIsPQJQwAO7s1+0njqUafXBNs5ZbYA/BcoC6ybreBV+o9nv6PB15Xg1zLYs0o+hVO0XuoOAW7+HT+OIw4GkHnCCWl+nufX5dErDnzU0o1E3gBDvY1vgQb9xeF3/8N/q+6+7+7rtCl5/aUpzMUhndgOSHeRGM4P4RV5Cp0NSZ7DAFZvGh2sMHBD8G7AUO7AvScm0U9JRIqhrhbIzC1UaMexkymauhbTN+vy3IkQJzIUfTSAVXejbZ7xBcStW7fGpdTu3btzrwvOQM5TN/LGAVOmQwGi0oEjpgBfxMhzxvjo3FC+xd6qSbQcUxaXTgl8OkHoQuRTHNZnYERtxHtW9uJ9p6vqBcjNV4FfrqxZ5REs8zWUJeUJBQnGHBCctOfDzBB6np5NLPEbZXwy8HnSF4AT/ERAb9n2OQMeni0LpwCmHJ5tq5GyRseuTDl+HG4P2z3BobiDp+4AuUCnXd/KVSsYaBYHmBxErHd0YYwTfnfLL5D5Du8ocmZfY34JANbLb+oyNQcQvZukPNyXq0teRDqJ84M9u/fke/Wy/4e6PT2ryPEJ1tZfXV/RM6bGGfTkqAUvOfUMRvwOlx3wKc/sP+rtBKmAal0262P7WAbrb2FjjG7DORjSd0xjvbzlJVHIo9TNm9ZN7tVY5hcdp5wnfUFP3CePswpljkCWrLnpeINJ54hy3W7fCMCHrmXbnrUbNn0vvdtpbZv8ReFfv+f9iFYrq9d//Z9/0bPrccPOZsEkBMVUWZVJiMmVGsfwbbdrxx5EFDgGbJiGAURNHnTCqVJ+dJTF8ejP7ElyfIq0LqnSRb0cxXg7nAWdUZsnZ/MEOQ1pXacpCNm57Gl6SH7sscfQTz3CjOR+KazkRRo9rwgfs1vPzmnICE7hsx8HHdzfxdYNI2mIRMwpXJezyF0RdbX7a8Okwg7tjKZApmikbtE3TVIHTUsG4KRCHbxHcBLUBIcURKqxTGErCtEIdCJhovDUeJanBM4+TroSz1Y3l2RjNI5kJzFybdJCjD6sAwnUQblW2q0c9Q/nO7sw1nYJmpNADkLq8kb4Nk56LF3ai7caByLAILrOMomhXlaOKyYgDip1leRuZgpVA4N3aF9n4u/Bc7Ucm0GA8L5tbCnVG/b3H4xvRp8LeuvXrQ/wueuYRr8Ck/2gm0HHwUtQFGTl+Mv3nKlvaS8yqm/5Po/md0kjR5eWzGDgd7KNrFDS51GplfXyG+Y+eWqlYL1LnoK7gKkRvCoJ1DQMKO3okU8eP2h15gpUfup79+3dtmeuCNfzvn3ohggH9u7+LxTkQ/MV5r0/8cvV3p0H5oty1Z+VriKx0QPsTNzgW8dmScJaxML5/n0voK98AZ5HsUgAY1d4Oq2gohHnIG7LI3rQUezQKq0dXZ2lE+jkotT5qLfzviLu5k2bqte//sE4JrBSOg51/e+fsvWjhHsSk5XMslGgQpjqioQkR+QitpjO8tf93Z90WjoqiFFEIEQ9ONGyrtXOXuy6VuDhJIpswC0TERnhpQDylcMANPQCTUWKeQkgr787t2jU/VMO24hrj+jvKAjRKI/cG90OYrFVzROKLHnLtUnciu3kzU3iW4MSJWf+KL2peosjBOvCdXOQU7i7YbzjOAANYGMpF2q7qJt7HqPkI4cPVctcr4yu0vW7esB2Jtf9H04yWXPs2BG+y1A4HTn1wVrv5ndqQMZzc+1AllCKmsHq/lfdnxljASSiKhHkvpQa7Bs6PXBws1y2u5y8k1lya1ZZoPM7+tvJLPuF8TKpIAoZOMl9et92ElibMk4PJsRRx+zh7GtUGnVefnsBLPWw4fwOyZtE+e1PQI4+Y9xRHQ3Qhp59ZwY5ntufT586nCLN8+dDNY3PE+X6PbohOL6musj+b1uzfgus8NTXNvdmnzWI/IV3/z/Ve97/U7jzXjb70TW6rjtYOgSv4CzX0+n6UQi7Q3GWTap3797Hh2eJEZ3V0V7xYRRbryk4wnEU/nZanWsa7Lh2ZEGvnc5zFsA7hc7OTrQc0Xbd+rXV5s2bA3ivf/3royTftWtn9alPfSpGtXv27ClEolgLkGZzanppQ1R2QvMqQeKU61TMk8QACYFGiuHdbjtox5bgphB3eZrVAnczaSEHOkZnz8gPcmp47aSFA4CjvMTQDqiFQiBQ2yb2ZdRTY2Gf+Brfn1fmhu+r03CymNNNm+ghX9IKeASjGofswYzE9UnEtbwy0yEpD6XjedGnRUQfgHuObq84dNDd1X5cTukqfhmc3t2r7w7YjU+wPA4BzCoIdkM4LVWU01O1e48IFKouMjFieVIySpiCl8HCUk8HKqV+b9OmTfQH8gYo/ObNYGR7aOPmjHJAjTZ2iZq/VyIaC4rmreNYOTXfL7hFjOabtLN5k9rWeMVJGwp4ZaIl/Yy0xlUMtq/6rcyjcHgF/PzmaVo/QB281xzwlMkjaUjbIp9GIjC6VfeZYGqa0dFzuW7yevG59VT/vp1ve/H9V+7ODQV8NgMN9Pq16zcf5JOsvlSzONP7C+/+1ern/s270zEuFefq3ytd25HdTuZoN3BuoOrp7GPUHmLTGVxQAWSQT93JICL0HWMszJbd6o7IiAGsJhu1qCLxqsuxc6sPWocu77V46nUXNUdmR24B0aVTT3zlierRRx/FROBM3u2M4dSUYnG94xcEERSh0dJ5IcRZXZp7jviQC6AIbNBp645MJLlGiWPSslCmxSwJszzSBPhdsuWHgCcAyZGJ+r5HDs42sS4SgkbZbQE2vgDP5DRN2ayG4Q7XQY/yifI8d4lX/+CJ5fHuBYGfAUDLERWRxFuIVRHO2CZzMJAT16h8CI5PMbcD42vb07XLhzDBufPOlYi27Gs8Ogzn2g5QLUen6lpS61UmeSyPs5djrOt1ZYmATc0TShVKgZoZe9vB72b7uFrj3nvuDXiYwHYXzBpgGcTR6eHDh+FI2YaSNOOtssWnNpuClO8WuOS2BXHvqRJhxE3tM4gxEngWhZI3H8s6BpDrdhEIBV3bRJ2hcSlEymW8cJHEEdTCNQqglNdo/m64Sd+TrUFTe7Pg21MmJ2K6OpEaeO9cgawOH4Cm53r+St2/4YCPhphsb028Znyqo58mxk3Gi8Mzjz8T8LueZi52OUHPniFRncaV1uot9/FV92dSQ8W5Ewwqs8fpSKOITZoCQIrYuOFCqZ6BU7yxM2uU7OHsqZvRaPA6ju7nuLN9e/bEm4oA58guR6AyXAIwSEjp9JRF4MqIzzsd6dOB7bn+j2glYUh4Fp0EnAWxcGV0YNEk3B2mNgKHOkX1Uw2AakhtHH+bPGIySnrt/oKM5GeQ46QIRinB+/UPQdEXN8/qJDPxeOY//xe0JGYiWXYu+VPOZuk3EKAkUgAv8bhLEtvHPUsKWCjWOZMuF96N6cihmP1YTtv8NGY4p9nEevHibjZMX5qJh+jAbDPfAiCcZ9/YNBGcfcpH8VIXbor/ARkKYJt7LQjqRmrDxg1lnxLiKyr7TC5S9YHB76mziXDiDHx+Q+3fnKl1IBSQVH0YSJl7TmA1M/d+5wJGtYhNvIAR6QyaDHUguhsvYrIqFvqmoBxu0MGXeAK7g2++Lb8zqNsJvE4r0MLWtS5j4fIKB2lbd7NY2zXjc4fWYHtr/DU8L5nOHfG6P7kRga/au3fv6fXr72emd+op+jOU9+Kgmcuv/ty/rd75k//oxQ9f7p2G3kxPz6j5iOQmwYwj1na5hwOmJUt6mf3ru6M6dvgr1VnE3Ciu6Vh6+JUABL0pJjYEH/V4zhTaWY4dOx7D06/5mq+tHnzwweh5du/ehc+3xzI7qKic0ZZOvHPnzoBLDFXjwpvZR0ZXrfLlFswvxES5BQH/CQApOeWXgHl9Du+W5Vxh2xJHMbaNowtj4xbKaWc+l61YUq28i42scc8+BcNqvflD/AKe/Eo3nmJ1hiAl4AtClrkJFiFYlxuWyWemFMAsVTlLhIbkmavyiyh5b3Pf3yQS73L4Lh0cxB0Tyr5W9Kr64MO7CUvo9MdHDLhLAAmilatzlcTBgwcApJUQbHv13NbnGLBeqDZuWgvQsM3h8WOcFZ0pX17oOykpgBUorCvEmFPXx0EAkKJcAopgZRBkN27clO8tpx1RP/UpkyXq8pxZPsUa3abPUIFwUC499JvmvdyzbW0vAc/Z3eh067Yxje1X2roAlDpM73WguxSA5cq0Bx0aHyyqFcEXTlIws05Fx2c/5UgDpwoBZLpx+q755Zul/Qv3WCQVr+kgcwSKiQKh9QZpeY4or+jtGxL4bJF9+3Y8jyeXv0Pz/yE/C4Vc1FR/8gefyv4V/+hd33PRk5f/s6axZGCnMuQeVKeYOs7+De6lceeK1YiG3TgdpVMhWgkiIoIjfDo8Yq77yQocGnOGAKCabtacLsG1uRzjZz7z2Yg8Z9iAiN6OTkhbPN9Y3unoH1MJshbg1DNFH+erjMjRiDDav+U3j3wchOCqAb/k2OjXiBCYVBY1NoBS3ApNZZlaD84BHN0lkJIXAEc9fKU4aDbigAQfokjdBTjfNxOSuxEtBw/KUfIxFtW7MBDV2BJl4Wh5v5hJYCxJFQKwRAo3S7fQiSpNDhc+UQ0xIBSnr840q+eSk8KBKbumPQ/QuZbVAegI3J9rcwfY5etg/xQTR63qOB5E/HZWTKBx8kZgS9cjL/W20ZnF80zh8Gw4v6ttZxConMldc999ACAmRurAbNzp4JYBw2wneRSzlcH0mXwfXuOWo75TEAp3SL0EHQ+DIKYdnzrcfDvKaVvYvP4WeAU+2y8cH/3F7xdRmmee/VYtFjYH+Lj2XflgflSLWVOZeVivKXTApilcbnmX/byFaD6ORDNPINbU35GG54nzij66YYHPVunft/vja9Zt+lFa+pf5OZumphvtDz/8UJYQfd8Pf9f0vWtx4egsMUpE59gIZs3q9UwsDFdn0fUJRnUPKgRCh3fRfl9fL51ThTIdhY5nJ16G6ypXTOzds7s6ibglB6ehq2Lt2XNnWMZ0GIDDxx8dXPF3CkcXw0zqSNDq9CxDiCpEKrEVQkin5hltFeJNpw8R2dELQAkohnTsusTG095QrkxwdWc1bQ3VCxVOwFSkiNjeEDjAFL1iXkUhiuhVCLG8AzLJu/zj/aZ8RewuBGVRZweJuBSOC4kWYnRGVmIrgFBqYF4R93mvz5yQOMd30OZwGO56NLrTjiy9W4re7FkmDnZs344Yj/kKHm40BdLMyLXFp06dZHA5D+eGjjbtRxkol1jgwCMaWAbLU/6VEpc62dylTWxHShrbwHvvuzfgqdG0gJR8yco4cnR6XB5A5VG+VdFL2ofsK1mjTf8o+ljYJjlAQgZWytcd3R+THAFlv62AJEgVgFW01djdQdLBwcmVBhCNk/FRvKPtwnH6DcjXatiuhnwG25x8+ZNeM5n4vgvTnjFWFc0dTPijbAT+8bmjvPJPbmjgs3lowF9Zu37TOpr/R+dqrt/7j7+fjvbWH/pf54pyxff96JcKdgq5Kj0o29nl2tzwJ6YkdFifO1KnQ5GJ3IWEI9fRPYGODw7A2b677lodYhDEVnWsxI8fu68dKaYA2ump+7HD3QfXcCd7wyr+uMrAzmx+gpJEUQxGi3gVkKOD2kkL8dqBBTtOdWeerlN+E4/u7Bpcxd+xGFnDcZKv9cp2klIIRGTeUB0kLRfGJen1dhIS4U+YRh74z/W0BlLkyLU/xI8m+Jtgtk0o19JLuSO9FcBThOZ+iFpOQ31XOWxfq6IjBr/DeSc0FHEpt4NBIx46iCjSCnjt2FWeOH0ioOegpB+58yPn+B6AHpRg/ra93NHIZDEC9l68R9NOvs/2VXzOumvKFk4YUFC14WSE3201M8a2QAP4tmE4VNpJUdeVI35r81KEdV2yKg77UHPESBoAzyBInNiEyrWRsxMdvsvBVCcDBvuGVgW2l+Cq+G55mwkK8zU4wPnN/JVy2eb1sxKj3Ddevr2A54fhmMRCYWx00GzmDFDJL7Mc7VfmjHCDPLjhgc92OrBv97tY1raUyx+Yq90+8qH/mk7z3T/4HXNFubL76REzUSVoP7qULFEJfDqIdM/QYYhOvRB9jcel0+p9pZPZXm3D7LROdghyGgQ7mbH6nnvYavJIdebsmXhSeYFZxtOnTscLyzLcQMn9uauXeiBdFskRusWhXVUiUcCw4+ca7qZRTodgBYkgUSmLAGCHt+P6vOnYXvDIEqfTS5QaQMttLNMHH0prBvakNQ3Vg1jo+Bw8ATQhBvL1VSEe7zaZc6+mI1LNuuZ+2smyWM485Y95+M8buZ4NeqXMZu2sovkKNGVQceKgAkj08usEgrqrMvjILTtRoENMOatDL/TTjuerg0df4PsN4AWllwHJFRuIiIiu6mWB07RR9JGpgGUSVMyTF5O33JtmPDP1K2BsO9oODm5uCOXgUfoFs7MAh2DkWS5NUTf6RAbLeKahza2IA6briV225jctIIxeEM5a0XVa5KW/KUJ36ASCdHKEAqjApypmwokn7ss9NsFnCRbc9vcgTr5BGt7vxDelnrZ1PgVgnG9LmX232wiMXAb0SPpBabW87Mb+e1MAn03Yj43ffes3L+bDfOdcTfrhD/5uPtbL5vz86n72mZ5dv0qigzMCyJxUuHP56hDKMCDoVoDOjsmBFUBiGVcvur8htgdEHM1idfy9bdiwMXFOAGI7d+yodu/ZHVFZY2eB4Dwu610Yr+3YKGKv63GzqoIy9SHyShjapdmp7YjThCC3WZcyejmeW1ZdJ9nhjZeOzjvoysQ0NuDFJd0/z8YlfuomWDirKy14mE+4A86m87cP5GSSldkZEl8QaEoCeNWlMop8oOeUg/Sek4Z7nosOyecSmzfFggI6AeiAnatc5KIlQsERbg/xcIjvMYr1NPCUtNZJry+6m1KlsHvnYXaW28oSNHV6unMnLZzLIJu+n2GzcDe/sY1i4lOXurQtYMJ9wUyXWZYrwMRAlsrwRltUUHOG3HuqJtatW1ev2CgmH5ZVvZxG2QbX6GqMLtAIM9ZT7k0QG55gYgbgMy+/n1yrGw85yKXSpPeb2s4uSYsYy8DoPZKQm4Miemiv/e58p3Cd9TW3beTS3lxOf0cSZkCTqyWu+XgmAvn6vVwBg2g+T+D9Hz4Ijc4T5YZ6dNMAn61Gw37X2g1b+iCcvz1XK8r5yepfHZ2fXcAuZSiznu5/u5R9H9ShnD19FpOIswDcZAxeBbDYX9FRVXLrvkgbMd08aVaxbds2lOjH6fiHY6i6iOVIcnl2est8Rg6vF/GSDifXMg7BuxvaCnbeMo7u7Q0SpoeEY9z4sLOD8v48h6gkFp1ShpsjTjgQlNVWR77Nv8YXdEIA3CvvWhEiV0RKXrynxK+Bz5vkYRrfbRnyu0EsH3NdSsIz/pctHsu1D/I0eZRYTdIG+Aq3I5AqSsrJFNDrxNMyuVCXAozh9hBxNWFx42qDoKDH5UUsTxsDpNwnd9++PXheOQGo97IMsJPBillVFtIPYE8nfXukvmRuiWwrgSDt65nnHcjCEbNRXfjtyzdzUoG42i8COMvoF1u2bAYAe7g/YyYiGNmocu/usSHw+TvmLLw8pk7EcVuAUn59Mequq6yDtkxyaIKwHmMcYLUbtf0TbG+uy1ABOPrNzN/7RjCeCExIXt6v05Sb1FbwdjKDG03fsmFUD4wwKM8XKPMf9u/deW2V7PMV4GU8u6mAz/od2Lvz2xB7P83lm+eqrzo/Z1r//872pq/QH+gjhdA5O+r34BVYw1idEujiXWV6L140orNBV2OH3bhpPUCCQ1ImQxRt3Td4GIedbRihygWuRN8np6jo48oA36GYLHHpRrwTHdYUefUirgmiju6GiKwWzB7qIXlKmbmEG/Q3HTadl3ie7eRyRBKzIqrl1NTDvAJgPue9GvUWkJWgFZcAcoi6WV9LBqEc8/OZwJkieJvy+8eTIWJxHb/c4Un9MKckKOnMr3ko4ZtM4lW8FcQUbd2jl3GA93q4WsBlfi7zAgVJLzdOUsABQ/FMvEwiUh4F9HbHKebY2DDtzmbuEPIg3LgctrPvdSNmgJgupxcUSY59ivXTTjx04ZNPTrJsHCS3WXa3EwQVhf0CqgnuwUmrg58qjhSIMoX74rkqj/7+/jigkAtMXUnr4KQjClvTumVW2e9ve3I0BsL2K+Mpxgq4huY724J+S/P0nm2Swc5RguD9Jk4DmP62rUvb+27Sk85gH+lAHTBOu10mPCxNXibODff4pgM+WxCx968Bfn/G5RvnalFne13OdTXs/Owcmiqo41Pto7eS82wi5AzsC2wgrqdl3Qi52ZD6Itd93oF466Y723ccrHbv2svSNmYR0fPdtVqX7ktSbGcUNUyWQO5iuZJOCRR1dFYQA1b6oASmwWsBh8KZeE8wSE8mrelzQlQp3VauRS4SImBG1zIHqHieiLy9wItnQAbgnAAInXzxMK+AGueIz02m9RK3cBcQiXEkEENTvppuyENO0dcls8Qpf/xdXyWpxO1vARmCJb55SrtySoJfJlPKa5JQsBliEHEtrhy4AwhQGC5P8xXX4OrPbu/e3dX27VtpBwYr1AgCnW0+OMgSKxrFd1i8BjxsM8uRMvPA+qlvY6ogEwkT3agu+IY6JpWbLuUYCjCqE3DQ0KNOXaG6HkW35zuGGOTk9vx+DVepmOpsesR9326BCH4vwVz1gyK0zjGyHJIyCqpyj7Z5vqMjAtf5TXpzEBblOuUMzbN8B3NuPiaX1jEnzn4EjkgAnBct0vgZ8J4/fEFanD/Kjfn0pgQ+m5IG//rLcX7a+Q3ikujH/uU76VyzpxZfysdoOiKcAjNxjrh2Lc09DgN6bhZj51RMXAKgDbNRjQQ1xCysu3VlP1s6n8Co3skOKLg5S3uOSQwJQNsyRTo3HT/LpIcKbrkxRaAh7LsEQXWIcgYIXJnJFNQUlSTUdFrytSM7YtuHQ1gqvgU+Aa8GxSIsJlnuWRdr6IoMuVA9lpQaFyJseDrfoTDlLKIcR+H2JJya+NKk5GU5CMFYz6Rr8gvJhb5ylXiWPzOjlt2YnIsThQJ45Vlu+4h3yzmxHA1POOdxRDABGMupuG+IdpC9AJyctuqEnTu2sxfJXt7jigpdezlrfhTggPMGUIFWykcb1gW0rLZdOLiUg7bznXwLdat+Bzn9np7C4atOkHs3yKXde+89DGpFdVE4Xr5Xo2sF1F21ow2f7xHUtQ00D8FyhP50Dr2jQKVIa/taFrnXO1asoG5dmeHXhErOUfWKbS1nbPkdLBpwk8N0+aF9iqn5tE9al3g+s7qpq43pNXHLRfku3d1Odl0W9B6+WUHPut60wGfhbfi1Gzb/AR1kTlbbFR4/+Y8HAn4vy7FBTaMCnQplwSEdk7WybvCjXu6OlasyKWCZil89nA/gT8+R3S6lYlvCMCu5CgFLnZ4zwwKmimyNmJ3MEDz/h7/wYNwUCYQ7duyqnn3muQBgmS0sRsx0Vzo0oAJgmW8jokRpTkeWaDwSx47NoelKQ+QmMl0JxYZvOaKaIG6ZJSRVgiUeRFjnGX1dTZSJaN5cFHIyf96ddDO5T/+0QHnrrGcAQiFaRT+ImOeCmFyeAOgtadt3ifO2qTPrqgfCoPHmYgripI5AUsTiF5jJldtz74dJlPMC3LmBUww6mmMo0hWgEAAC5L6CsludtJt/6uvSUAXg/W7aDPr+RXB+Apvc3ArAacuWLcwYLyvfmHgNF2ed/OdmRpqyCFwOTOp9Tbdu3drqLBsPZaLMyS7LRHwHO4HRfBR3fbe6SEVwpQ8LK/fNakOWRdZDGm2W9qRMOkkocbXTpPzWz3+pl8BajlJvgdK2JC9sHOcLpP/ogb27vn2+ODf6s5sa+GxcPwAeXX6Tz/XdczW2a3v/rx/6vwG/f1ptYAOjlxPsLHbCe1atoeu0AXoH0PEdqXoQQ1Rq29kEPalGDkEbK7lDvXy0tU2wVeNKRnmU1eiqVCTb2eTsHPklZnekcvb2f3rLW6ofeNs/rF51//3hDL/82FeqD37wQ9Uj7BGhHze5hDjVbDo4YlJstXhvKHVW5ezYFDshZ9I0wWcGz4K6s8lLMcNQ7PKJj+UUBbFEtQFCNJxz7anJD5Ak1WzODUazBNrCDAICtajcpCtnCRGiFeTILnjAxU0AADBzSURBVNwW7ykcC++oQU+RcxjTFcVbVQFyeZaVFKRhEGHSYskS9ntABXD06JHqySefYM3zbr6Pjl81PD8d43MhRYCcGRDqulJ+QaG0Cvcsfdogf1I2b1lG3x2zE4DIPqHYqe3evbjrlwMUjEr7cXaQAMitq99ZbtVBUPD1ey9Bf7uYvTOG4STVIY504qcRsVZuzQHTdlM68DulzoCT6ccBcp9FF8u53a1Ledayf/Cu6BW5P93WVoff1t8yGfg5HWy3jg45eaWI+ULrt9DpvXW+GDfDs5se+GxkPLq8de36LWf5rG+fq9H16vLjP/BT1Y///I/M7cw0HYE/dJyZPlG4GfVEAsQSvJe43Owp9mw4gZgrt9fJpMQgynLFoU5mE+k9EACrLuhEbXgGcdLirrvu4n4r9nsSne7qlbJG0KO4X642Xhs3bqje8i1vqR78uq8FMDFhmFpWLf1rfxXCVSm+nw2ut5Ifwi6EQSFDHPZhSyvYSpR2bYM7i7XwyCJyQA95JrEldt3jJfUY5yI+6yq/B+7TzX7MUyBLbPMRfSQmcy92MKlLgb1CTHlp/faAGDcsSQiPDBO3/mM5EzinpdEvei/AGQDkNxxMQT24ZOwzzg9PoGrQvyF6PdZMq3NtR7SViDVFyQw530bubfv2bXi0eTwztyuW44WFlSlnB9SrwckAeobmr7VqbqSUKRN3UkifesM6+o/LPJpu0ICZagnBSJFV0RNISpvTWEkgIJnYWWSz1TOzgClw++gkesdTrPcuq3uKzk9OMu/mWxW7PMG0tGMZKMiQ/hZArM/tPDc/dY/a3bnMTbDMoGMleV5Ar9TeWwZVBB1tzhJfeL88nflLeX4dTyvvmLlz817RTLdGyAeZar2X2sz59fTn99PvfE/1yd9/+AoqDUnK7pSuzgjPqgAmMdoBHvU0TwJ8p9DH9cJldGK2EmeNiAgSnoSffViZBHEvXTuqCnHFWjv7OGKSu7M5Wxh9DdyMs7lu4n0Xe+jGp55gwddZurSveuCBLVlcn06tmOMzH9ZlK5WRMCEOZ2sDWfwFuTKAz7BfRC0gkzRyYKzdjOYQsasXzkOCcyXBdCNCqYKXglTRfQFQiKEe1jNF8H28txym5PARR37VYOMv7xXCrTkU8lC0bcEVVxwtuLf2TvLSCYL1IYNR9ihxWdrAWUTcIdQEbK6bUisOq8aS+4HI5RLPs2xtB2ZD/Zix6DlEGzSXWemCSpG3KRsXyVtQkN6BDEvHhe3K4be38Am+zRbgHqHUgcckFFgENn38uT9vniUS9/kRI3Key7Xt3rULO77jGQidCOmCy3Jyy/IeeuEIwM72AvQxwUyTFSUGdXsZPMyYEFWJ+r36X9pXcAP8MjljsQHiolIpeSWhDVkukn+4P+65bK+9ZTs1z+toF57oXK333iqgZ9X8yrdM6N+/85/RIX6YCkk1cwbd2LuB0aVC07lnP0snobOtYHNoZ0B3795T7aITK47YOUMwdExHbH2tKYo5outJ2edFRIVL0SQjhO6Eg53SPR2KZb7GyTt27Ki+/Pjj8fXnO7VPO378ZPWFLz4WsVoxVweVMZaG6yvgZ0e/VKcthGI9QhypUE24EI0ck+hkUtO7m5eOUCU4Z0lNJalPBy4lZDlTuc6IVdRFoiyHdSLS7KLUyVNOH806yCz2b3qF0Q6uBQjo6FSOs12VQMrHagaMk90MfSheV/RxCEDWZbbsTlrZ1nK8EwCgQLJ37144Q9y2Z+YVwGRSStE0lW0qlLI1BUp1myecfTj7mPVo+pLnRqEQDlq6ugpXzy3LkrW0RqnjyO099/zzWaerEbNeeo6xOsfDmd4zzNyPoSoxrYlsXw2bwy36GsBNlYaH1wnmXQfbQhD3WzbxGk7RKOH8TGvEOvSgHmgD9C4TGB5bPyxtXSbeTfX4lhB1Z7c4o9L71q3buAP35h/jEyN3Xjq4gdHB/Yeqd/7zH4wHj0vFSr+yM4XDKnulOjPnXrbqddTPyH0pAtvRJXCJ1A4n0Wm24mziiRPukzoQAoHe4QYdb9jesbbbc2mbrqv0xfeRj/xOlNgPPvh1dMq26nGA8Pd+7/+t9u3djz3fUvRA6Kwy4rPJDaYzdmT/NaHQgn85QnWc09kFOeMB03lMd26icN9lURpTK6qpRBelwpmRj8kihhJfQvR33ishNdlzL/laEPM3+DqupdNAaX0/zGoYK9/hUcoUEdkGKv8h4LIkTdBzWZpgqO6qLMWrvwvA59riLoybVeQfh6M6h7MHwUjbu1Hs0M6iP522q2vayoJPF9TCGmbfK+1T7lmRmVYO90clBBODXPxq7Pe04ysAQ32oByVNezlAOrBp81m2JRjOBIl8R76JfYf4OrZQz+cA43vL4Kg6ohZX8/3ySu6pjyvvN27T9rnHj3wf4if/WemMK7e+qFuu9jKTGDDbranJv7V//54/KW+9df7ecsDnp/FDrV275bXYcjzBz2I0d4lv5oyvur///affUb36dZtLDPpcOosEyZ10eTqOYKBd4EHMJLYyctsZBTXF1WKTle4XEByPCMb2ixrTcrhA3r0cBI+sDYVAoV9G9GKk6igv1zgGgD799FeZ+TsU7sH3C4ZHMJTWiLm3D1MTiGQKGza5vyakpOn5BWkaDixAkftWqq4XF5OKlqkZKSmIQKRhrp5MBDbBXFoxH2tlYv+KSa7nnKE3EmIQ7PtrRsVE5V3T4q2gR35mYEwfC3TlZwi+iIMlqbctmnq9kfNMaDiZgdmKTkUFYkEkXFDarACx7bx0WV/Abd+BfUWPynM3c9IWTnWCLVPqJtdjiVOCvK78KfdKnZvbTZxS7ovTJC4Vsu3WrlmbgUwRU/Chlfm+elmBxMhGDu/okWN1u9rGAKadwHbih9/VWWKNn9NIthnFKKKtXC5tRvwGyHxmsEzGDLbxx75oP8tLjWD2eVjudKnP6+DlOtybP2Ds2Hpw/4E9u+aPdnM+vSWBz09x4MDOXXff/efv6ewefJ6+sXauzyPw/R/f9+7qn/zk26tv/vZvnI7WdHl7lByfs4rnRs9mP9v+/n4IscSQ8xMU7eyKiBKDopegJkE6c2fvkxOx0zqLqz2gM3YxT4DC5RhXrVqJUwJML8jDSZMjbHatpb6c5FJdWbFaxK4bUZM8xlHUT3f+giZ2/7r8EmopXxEzaw6gfmpZy1MIjzKZpzoqjxC3oAKtuQG6RGjc5jAL6So5SLduQi2QcdNXyoNYT/7nd/2ncDE8LzQp8CFK81uTldA/101gHgnR1hnc2lZP0w3BKqyiZyJzUGzaCI81vaynRUTeu29P9eyzz7As0NU06AMZlAZZYypHbZIUKuXyx6wXNi+ePs9+loQz9bHk5EFmnKkHGeuuX+cEWTHSJKUh/NYGbf/cU+PQoUMRZa2HLWBbWY4W4OjkiIOb7ejsr2oT76Ut6X+lfUlD/5Dby7hHOTJIkUvKwtl07ZlUacpJ/ikz6oweuUkaN+X33XOEqerA2Ejfa44ceXp+VyxzJL8Zbt+ywGfj1x9u3eVWeRj3137u16vd7Hz39h//PrrJhUGg0KeZYsrTTz/FDNwpRNklMV+ZwAV7USwrdhb3Qpo0CH6LOLt3qyYtwyi3tdXTVEGxV87F+HZce+LEqUIG7rsQjoa7EoD6rqW4p5LANIVwmZazdiXVrB4c+iwlt6OHoELtyX6GzgUlbhWIkjgKh6DhrasSTCIRWS6BxdCAqNc+M1L9hsLJQawNgxcDaiMSEpcz+Jg8zDtiralJ4P3oDc2MYNYUh3qrK2X1CsAXX4IUxMlkyyEAKKoJHNr66WLdyaUhZtW37dhW7YJB0fPNGAPD8NBZZlKdLS3AZ52ShwVJDco7+Zv3lz9NYSxjfYf4KVuiWUgAiIIGbHjmygpXvPjdzNp3WL6oQNBhOjjK8Z1FTVIGotKwxjFuJ5xhDOD59koS9jVnZMcBvpJnief7tAEV/NTjlcb3fRZ1Jk76lGWfrpZldJb4svo8K/yF/v27vr7U/Nb9a9+75YOrPPjq+gib7gqXqvRDv/uJ6ke/5yernVv3lsfEtkPZGeWK3CDGSQ07oMcA20bKTUi8mq64Z4YgqGt4vaucw4hZ5bv6M1FEo1d30ZLTG0WnF7GEtBJDuVaMc8KEPW3hAjIzjM6nWZcaToC07n5WuEwLCPkABpY0B7ea8l1wDikCdyFYzR2IbRLuy3G5ekSx3BAiIk/T8yfn5J403GtCfgNEnskjeeZHE4GzefgO/oJTmXlVFOvgpfnNfZ8JnHKZ2bcEL9caKWswnuSWyMybiF6SWF1pZ4CvnUmCY0wC/Rnrog9HneAzIV7dafRhXNtEycfrOpR2qPNPG1pfSzwTJ+1Q/076Oh+v/b56tNEQuRmwHEx8Zl9QnFXU1s+inF8K4XvkYPnWXXzrxdhPOhGmhKBuUmnAtwt+irrR8dEHBdIc9DUHY0uZItd18RTVBe/mDQlyxL29TlPNr88jsjj8K6GVOu2tfLIr3Rahf++uf0oHdoXHvMPe9ud2Vj/yv/2z6qHf/eO0ix1IMdfOu3XrVrx9HMgIbycXxJyx7YDI7LS6OHI51NFjR7P37XPPPQ/HMcQkx/IApwRocKZXblBOwc2ktfnTELqHNaZ2XA2hC5Goo3K9JQ4gBbwa9HynRzgZ8hN4C0HTe6HahhvxOkQbdkxSbvQ/9nIIJ6AJGCGWl4kY358MI2aRKXmZjn/E9Qj48JtHCZ6bQ0AT91Ie8ol4xo3yvKSherQFB0yPHJvxzcqmGYfTG0WvJ+jJ1bq7meARNYKsIGUpAIs3nG58EnZr5AvHxLjiHhqf+/zn8Gp9MpMdruDwXZbJ9wtG1noaEby+4Eh16j+zn+W1pR3ztLS17e2hDZx+Fu+++66AVnFfT90oqKBonHOoNtTbyq3rN7CD7Qfaov9TJYIemAqoC3RgdO2xJlPep7pph/QBxHYHgqLzk9u0MKUMMckBCAXI6X7A0y4mMDrbFW0vq88blTakkVTxNvhzS4u6F3+/g/t3f2zDhg3rx6fav8Kzey5+Pvv3+9/7weq5J7ZWb/uR71PDDODtj/ty12v29UjEpdMpm3XF2LToXszD5UWuudVs4c5VmjncHZDUl9+yZUsAmaV5lVtUqnxX2pVIBFM79hhKrgAW9+3gk9jIyRHK5QkEdnDByGVXBdiEjgtDEaMBFog/IpEAU0fLvUQnl3AneF6mTC7FM47gqz2bW0Vma0XjJr3vEzDN0/zKRX0q+fuY5MFaS0m82PwRKaDqgzykbAKDWZHG92grWVxNaWzMTetOBpyIq2Jf4AYxaY829I+CWxfgd5p9T5559qvVCdZGL2IA6o5LKrhiBqJSv1JO80nIT3950YTytABKudfESP1A/KJjpFjTkSgDALVmzX3Rj3rfbzMTlBaoF4CnU1k592xeRB2sufV3rbHefcbZzsDvn4P7Shj2hYB+nWfJn3fwHr5E4qZx+O0zv4fxBXuFjAov0lcQDnW0Jl6/d9/ey+4IfgV53TRRbivg86tg4+UHvpe9PD5JT/nm+b7UZ/740eqpx75afdf3fwfLpU4zu3qEDllEl/i6I7H2b4oTo+y/Gu4E4hRAnKnUhMGOvJ49c9XPKSZLCNkMhhFfnaGjudyi8RpAs+PS5fMbuKBT04ch4uLjzVHdUhfgDbkaIXecaJDw/O0hQHoF0RoHwClpucldQUHiamdWcgW6yA65VhP4NIREOmZthZ7kw72GwOpYOU3DR52/v+XkJE9xVyD1Nz/rMgiCNRByS7p2Rvs8ui1XZpS9KmrgAxgstOkVX7PcDA5mEmDWXEVR99mt26snnnwSYBlhENL+TdDQBpA1scjP5d2CuW1DRmkLLlNXC9WEuvIpKPeaeEkj1BRwyTcpiTOju2nTRmbcmXxK1sSiEbVP9Dt6bT/QIsDcBc+Io34TwM3f6jHjAov3CYZFNeL90t7R2aWITflss8LhZSDwWf1hO6l/WwuxtgbLJJvrz9TUH7O1w1vmenwr37df3pah/uA/RuWL/DlHK5xhedr7f4m1sn/8pYgqOogUpKKTgwsp/a0QhCKjXJlE7QSHs3J2TJcoucm01yq5DwGgp9hoSH2NeRnP0bqM8JIX/dbRviY8IJB7EoGES4DABICAkD9JG24k970ucYyaIAHV/6T2xm6uzA5iloOIfedddwIiegKeiSlqNX7jfBeklncnz/odvmv6oGBUB+6VM22jA1HBKhwfQKBNcq55rtEyDCVcmcv28HwCOMRQGUNj9aY6FfCNmv8Urq2Y/5h39HqImC7rOz8yVD3+lS/Hy7Lcs4ODYKcaQp0oiSkuR86WfAY8wnleMFCkZnWcOl3ic516WmlCffLbLa+dE2h/J8iZf6N6aMyJ5PYysUF802TWHynB/mCbu/+Hzg0cMC2nfSh9gWvP0VE2oO23TiHoIzxPn+CeA3JPD1JDSy6v7id1vEuc7PM/druCnu1x23F8szsBitxfXLNm0+9DhJ+ly7pDzJxh744DWXnR24OYOqVjAW3xWD1Bh9NpgA5Ko4MBzBYtLi7cBSQnRNTpKfpKFIKcs3we8bAbEc4OXI6M5ORh5w+izBqaBBMJg/8hxwJ4Ah3cgXd4X2ivIY6IlCV+uZRrMZqAzbWzCdxQx3gHy+Usm5xrnBPYEhJ7zqYzH9No/mIuHP6vqdBTwNfC8cM5xJIYMmw4wdyivAwMgoMz4mOszNBOT/3XedvQgcN/PE8GZselgAczFODUHbvup3TWeuTwiWr71h3V0MB59Fl6J8ZuEvB03xLbMG1lVl5QYPPyipzyd+aPkZpw4XUpSxnkmu/k2W/vrnmrWLVh9mUyRhCioHkXdYTz0gpAbz3maht7kBpAc9WHkw9YAXDPyQz7hWBnQY1vHI9GV1kXvm4fq+WqG1e70F8ur8szzyNsmvVX+vt372hqezueb2vg84PXHWA1+3n8FzrF3+OW/e2SwbW6HrqUL4QkEJUOr6imDscO67IyO7erPOQ8VF47AyyouX2jrp9cg+noPwXxy6U4gSLHIoCGYEMaAlldHM4qvQtgFTArREhRiSJBB9y8IAhUltFfLdIlkuJV/U9CLTODbVkRsmrV6lTJvVQFBbmJYkIiZxGrPVKqXyPnaaNlMpkV5NAsX+F4Csj4OHBr+fhn3uLtOPlT3er8UPGtp4hrGxhsl4KoBWjB6YAeTRpurwPusRuOaZI237NrL1sSHK4WdSyGu5xEx4eLL7xdCzQCic0hsySXq82gDg0syTRi5438TFUawPVmaSmvfFag39vWoQRF1RWYsegujEbmZukPTmA4CMjdDqDXPcqMs953NEUR9P3epo2xMm1mvxiBO/U8HfJSy1NeWV7rd8+XTbSyqZLaQjnb6ZRzXZjjRxjsv2uuCLfTfb/WQqAFDtohWtW3cjn/BgNEGGUlBsvhIUY7IrIyHVaiVXQ1aJIg8Tqau37zntWrEWcWh/Nztk4OUB98juzh/gBMtx1UF9SYrJiXAOhvOQmJohCB4mTh2CTHWWSYd+cPZbJcErfQl+vEbH5zBuCiOyJTDWcX47lYUU3RsojCitdwTNEEeFb8BKkENw1kyTuco8TuO8w/nCS/ybNwlV7bFopggoGH79ZWD8eu2OqdOzfErKfcHu2HMTTKscRVR+qhCNdOOussoDqZ4Bab/nZyaOf2Hbj1P8nvCvdObMpESU6jRtBhJy2Vw/KQcY7Cvc20GjcTvJ9ozY2LzjNwwwOSC0AaKPt9nZn3t6E5c5Vrv6tOLU5QxnCCRFN0DVeXjKqA9AnMXVxTPM3tXVQYv79HRFve1YvRds8iByS/yWUDe01W35o+ftmot0eE257jm/2Zmc7/xJo1a1ZVHd2P0G/fMPvZpa7HR89V8CnomorhqZ220bk4ut+Jp5XXvPa11b333Fe1nmxF5JEooefstWtHlssrxtHa9RWCmCEe3ypBFs5tSuquCarx4iG1ejeEKzgIevyTtAsp5mnyabioFCBP5c7aA8ruI1JAydQlfRAqOYFUgKLMZ8BL4GuCbGZAcPpGXhyvvhaANNaz1IMT98YQp4cRbwcAvqFB3XIBqmF25F5EFd8j5+dvznBOvlFxEIYpYKgnaPck3rd3HythmBE1a9pvlG0kJ2QlfSeRk59PAQuxqQByfpLiSgNwWgpY2qgGOXV1qzOo9fFccdQBqQx+1td7flMBzQFMfZ5xXG7ooMIQSN00X2LQi6kL9o3U0XQF5Cxzc1hWN7UiFdt/4hLjygrfqh7DHdCbWG102c0zrizDWyPWAvBd9B3rDvIX16zb/DZ616/yeNFFUS74OYa7I4/2Dr3x4j7+vJwRwAHlOhHSyySHnV+7NLk7zWEUdRR37eTaB8alOc9MZzCtBFJ+08n57bX5CAhOrHgYXS5IObCxGUtcM5HIzavOrxCieXuU/Dybro+NktylTFAhxwCIAGEephN2IiJaL++ZSRMEPW9xpLyzniUq98WgpOAPVYBjZo/W2Otpowgnwwys7zWWaaxnB2AnR+Uh8NMchWNG2tYFlfm5Z+5RPJucZamfEx4T+C0cUqVQP7esTXHMN95jOJd6eTErGLFu/1l3uVfav65B6phJDKK7RvceHJDqbMK6+80Ea4NtG06Xe0oD/nbiyDgWXinBNLa/HnGmUH0Yx8Ny2AaW2WuDOs6eXl1INcCa2/P9cRr5nYi2H5gv0u36bAH45vjyLNv5ANzfb1bt3R8nyps46JFzh8nx89XypXjQxdWPs3PO8rn29qtffQaCXZRrO7NBsIupA51aUSizj3Zz+3jd+aeJQDDgvjq3oAZR5D5CD97ndxs/8txnyYQHlpZTKbUXPpF7kPD8XcQmjWmXLWYTcfaOjZ87xM0OiFcx2HdkIsL1uByKuO0aBoc745nvmG4VwZ7fvKMQb/2cPDoBUcHPyYyRelXGKDZ7bsA06WQKPgFLhTiBvvEpqHjMoWoAbGBg4RlcdFxXcUM1wAv9B8v6V5akdWEeNInd2ijtabyiz7OeiruWSmC1nThdFALy3KPk9ZOLz9z2u/AvxuFUph1uTxXB3QCfwJWZaDIXoBrdqd/Y76t3mLQJbR7ul/bwneECY7xMBcnP4PMyqJVGFij7FqMzxk8hLZg4l/ljDR+pJka+dYHLm7ulFoBv7rZxK0DFgzev2bD5W8CKj9CjiuXxPGm62T5yYmwQc41l1SiKe/dYUL+nAtz1nLpMkvgFFoFQ+62GuyteSwrRhXviPYVgIEpQaPrerPsSpD29AcMikjVxyQuOJd5IIvaZEILKPYkQMZ0ZwdWr72Q9MHZoZBSuj2TFGzCTKUTP/hTRv0Gw/C5MjTBh/nk7kVIo/hjqZ1x5W7x3KZr2eYNsEjSIxxW3hRyH6wOjAArLSFy5TCZQmDSniNYLrglRMG7RM59UuKAeNmw/d2Ycj9TPVQcBPyc6WkxajGQrSH3aaednwc2XXDgbBL1ybZnrUD8rv0q8i69LbMtTV5ez+bjaxm/qJIXcfOptO1MPQVsQc0bXPqDOUY1cCx1mh6YvlEvD5bJyw1U/DADkUIDP8k8BrIuqHjb+4WtwXD4Q8yyf9u+psrl87Ns7xgLwXcH3rzvSsrXrNn+YjvV3STKbQl6Ug6LskUP7AZUeZoD7sjRNzyeuG9W+z5G+4QaaCZEmE2dGBaoGDKVLCckXFsKDkOECsmrDOxCIRATd1IUqnFyZiS1EqE5PcdHgewWG2MlxXtSjL7kVmEToSFWOyP1CMLuAczFDss4fZ1CB6mqCGWLNWWYAJBHy7gAhVwXATOcbOTETPgzgDeBheHDArTM1W4HIZWDCgfouwULRG64Sjjkcm9wPRycgQi0BUDg7OTfy1ZPxzh07M2u+CF987qPspJP1Uiy33erXp32a1pkNhOUeEeuQNLT9dNz6yjROssR2k/MUbSNAOclS9tiw/Vkx4Ts5G9cgV3oGsxo3ERfIzMeBLsCXGDqeKJsLWVjraOjp66563Dx92sYwt+f745j5Owf27/rO+SItPJtpgQXgm2mLy17ZsbD7ew+Klv9G5M2XS6AfPo9xxOBFLKNyRlK9n6KwHNVsbm8mr0KIDZfifQmmBKmjEFmIs75dVmUUjqSOKPw0l5wFQwlJkxj1derVyuMOLP27eiDqNswpBD1mbkcBqhY2inJceofR/gR+KgnajaM4HN2bHBWIm/L5/qQo5EvZ9KHnJMwwLqZOnzqHTk6jYs12ADGTwekF2CmTWGH5BPxF2OgJgsSI6BtEAWzlouSuBuGevvDFL1ZPf/XpvFtQcd8S1zjbJBfWvdRz9l9LObt1yrO63WdHrK8z8ASYuUE03ye06VggW4ZS1vK9aDfqYHwB3K0iVXco7jahxENfSR9gmiftIfevvrAH57VdnZaOxsnRpJr3vAuL7f/5QP/ur84ba+HhBS2wAHwXNMflf2D3ZwfbsmbdlrfCdr2P6zkdnTa5DbOf686dz0LQmLQsgmMaKDurqSR3gkNuwdAQRXNd7kuQAkwh6QsoViJL5Jm0RYFfiLjkI+AVDiQErJyqeElKXci77GsRuqoOiG4S8XOq3QMOB12eoKcDhrFRFPQCIoR8HiCrWhCtnFl5QeFA+Z2JFoppdeQa3eTHSYyhQQ72yhg+D4DC6WUvXDkrOdsAqKjHIfpx2Bp6KLHULaepBRYON1x3Sdb+ff3Vp//04eowZiK9zEY76+tA4ky6orH5F5HfdqjbzbLWIczvTBNx1x/lhu+xXE2w2f3VNL/3nT1mFGOjqZW1KYvl5MjgYhVKm/s9nbiS8/NeBxNItqkTGhqNtxhsxscHUYV0Y4rD5MYVGCA35eJ8jnK+A5fwvznr3sLlFbbAAvBdYUNdHK3ucL+Jr79fg7Z+COq4bFueHx5INsuW9aLnamOfhbM1oBVikSAK0RTCk2AUr8pEQxGVLi5HfkOcAmNJBQVK64SZ3xKi/v/QP8JtCUxFryZvwYTMeFfFHAOemXl/F5snaZ9IeqXQUcBZK74pl55RRcsyRsYCC7HBpMKt+XbTmDeSPIegB1DqUHRQA13BkPSUQY5Jk46I7JRLsGuZPwr+Dmwc3WEtOj7eQ+1haCilQKguDVOV57dtZbOnp4r+T3tINnkK8FmmmvsqwBfotCnSJqU9uKyRr/ldIpS/1u+CQHm9gwt2wJhyBQHLCox77rkHPZymLGrvSpuUNkDcBvT8fnJ7zuqaTtHYmNpw6plHKaCPZWZ8FRJfmR6Pwjil/X5ma//JBeVc+PGSWuCyxPqScrsNI9sBV7361e9edH78o1T/TRyXoqcLWkbdjSN8b88qAIGNrs8OhgvQLkzwk1OQUDwKIZZr7+dIbsYp2Tb3/aXuL+wHxGhQxBXwIuqmaIKg3J55IYYihe3cc7J66pnjcB69ESW1FZPzURoDkyBW8mgDkNj9rAVXZc5o0UgP9Knv4nfwggtF6FF0hXJdGiSPcWiczLwG8RD34Sz1NWjdMmMMyOUMZ9fFs4i5HT6DG4brVMzWUUKHa3N7WtXRw+eyD8kRuD3VBq6AGBo8F0BMW9W6zIjHdfvYDmRUjobds/Foh4JqXs60Z4leEvvXJAKxy+GKDnQ8ICbw9fYW4Gu+1+yPL/C5gkSwjtmKIE37CHhOgKmznB0/7537j0V55HxPx7cd37bt3NzRFp5cSQssAN+VtNJl4tQd8c33btz46rbJFtu3tb6WJJft04JKzyLEnkXLiC03BZiQUJp0xldRV2JuAM5iKMppdJwgQdYELOEazEHMiw6tJvYo1skLuIPASSSRw69NTLiGeIrNt/diB/cYC+7vqLqwSVt+x/LonFasWIYeS52kSUqaKfbqVRoEn6su7iF5BjzAp2IOY9lhXsJdYqA7DvBilYdesABLZ3sfdXAWE1D3n2CJXCzX1iGXCHfUiTqgg9nxXplB6sqCFt4HGPLe/QeOVtu27wY82GCI2dFhjKDd1U4TFnMs7UEh0pK2iNeENCxnBgHzqe9y2x8c/ueBHGzJg9u0rc/lwtsBaz1py93JMepufiUzug5W4coT1zz4PvXg5UyvOj7PToK4KZJATkuRxkJdUaCoU0+xT8p3vrBnz7YrSrEQ6bItsAB8l22iK49Qd8wHmQD5GiZAfpuUr+OApC4X7Nt6ckZ11NVDZPflYINyyVNihJCkTaguhKX+qyyE95ZcIUQvyyXxksaZzQIDzm4WwgVCiAxRJ1c5OHRK7XcAMKvhYhaz4TZussbh0Eg7uutgJmCWLjkD8N0R11vuvzE2gaiOSNYhpwfi6feunbMTwB0QvJMsEyy/m6xFu0GcsJ45fa46d5L1LSxRExCd2NCURWAUkAX3EZy3juBlRUCS2+zB/GfZCh2zAq4AIFiPjeTSasXSnupLTGrs2vlCRPZWFytf2EVtgskjVzJk7pc8E8yM/+VXM3hQRh5azpxLzMSzbXPBu+TO0vTEEvA8LJxAO4KrK9tRM5RVq+7K2fZXnFXMFiQNguMQW1w+89zzcKo9VY8fN6CXx1fyxwI9i5z/92u98pWkWYhzhS2wAHxX2FAvJVrdUb9m3brNfwFG57dI+yoOae2ywVUgBrdLxM1lNQTrpslLYdQkODwPIzI5q2qW4QpZ+dCsBNCeTf1STffEkQvy1dKRQilXgE3RSzGD2r2cbSU3wcFsYFKjp0xG4HtwcHiqGh5pVcdOsHR5apDUEPfkAOkAPv9h/1f89/E+RTbyFPBG2CdjFPlZIJDwz50dqIbP1utmAUxF7nHAr4jfKQ6/1dGxvwg6NMF08ZJBwF4vJWf53aqWso54CToxpoTY8+RLbNxUXHoNnCvrmJuGtc5NKxfAK/mXv02s+lfzsz6X+AAiAOhg4sDSrBFWFPfe4NBgTJLGATo5vT70e8YT+AzGMeht+aMf+1j127/94djwlRnqPLqSP2ayHUn/u/fv3/X4lSRYiPPSW2AB+F56m11xirrjPgAA/o9gzwfo0Q+QuCG5y+TDukzWZHZ3uY8u9l5OFGD/Jj8hcAGogJsTC+Vo557gp/eYvMG38ELImJ9eeAh4cFnq4EKrrHBoX4SebCnv6CMds6Z4nump+qLLcsUJMx7hJuVmxicGIXLYNl7eBviKp+N4i3atscvEBs+cqwbPMns76PpjtnWEyxsZhos8L1A7g6zbKHZEQ7yPe3U4qIAV5bMeioI9vXiuwYJmbOwMQNNF/SfxVbcUjnKqOnX8FHZxAzj9xCkAdThz6njETIEpImuqTD0vEXyPbWGh5YLLe703E7xvsI3STrSXKocJuDzj6SNRG00HEM1VMiNft6n6vE99+uHqE5/4ZPXwww+bzUsNNudWqvk2+s3nXmrihfgvrQUWgO+ltdfLil135Ney1+/mqbapD5HJX+aQZbui0IGY2dHXweSDujHNS1wFgWjcLgEidsJ1SDXquVS+h5gLpUvF/CdejGEhWfVpcpEQcQtPvUpmThDoDFSibkfH1wrgEQewkjPTaahg1N1axm/FahLxX/MRFpmyZI6ZixZp0QW2I5q25EY74ODgErvblqCPs0Tcb8RAfk2RN8YnFo9HiJToOCdaPegE8VxDefSktaiXmdBuXE0hKo4jCp/BDtA1z66YGMNmz7oK9u2gRTHQFuQj7F+iXY3jU8EtLXSJOOVWvNQAbrZk2dGsqAx8mplo6uceJXrOfuSRz1Sf+OQnqo8/9FBMV+bMdO4HDkGPtiZb/9AtUeeOtvDkarbAAvBdzda8TF51x/5G9vvt61w09BsQ4HeQpPsyyWY9ljMCTGDEFAkFQVdbCISKvO6+JlciYUeUlMABB0N0e8RttbG0itsBAEBMbyIwXgAWXJbp0TVOMos6yXsmkLfUFeozsIVOsJ174ql7gPi+YjuHL0FE3XG4PtNreoI0Sz6uUiAP4mnx13BZ0UdSnjJpY0F4qqkKQCgXq5++wWHs3niR+s72TjYVZ0r45PGj1cEX+jGuxr18h84N3FSdumTRvhAlmPnX81xh5lkB3DqeWFgHB5AEIjSxMyOLKY2VF+zlQCd4/va3vyNbhtYpXuoJZWHrv46d7/3BW3n/2pfaKNcr/gLwXa+WnvWeuqO/lVtvXbNhy8+AUj/M9cpZUa7gsoAgqkCU7q7GQHxEJ+eGRq6YgKg4ChjkLCDxU/PgRuekyKxJSydcmobBg4hr44p1gGD4URIENsnKjXsUcwU+2cTMFMsVEUevyfoSdB9cjZwFRblKr/UlCCsHgBXdpFAavSQII7QIelkFAq5MAmLuh4trgpTHWdSOjvPoCU9W+/fvZcvOYwCiy92GWfN7hnfo7IHahfN01prgn3CARS/nrQtDATSjBdioUOEEuZHKeeZZms64lBEOrwdTH72wqIc0HDl8KOeX8ecE7/nX/Xt3/szLSLuQ5Cq1wALwXaWGfLnZ1ATwM2s23P+XMJL9JTi1vwThvsTvAghC7L2L2jj64EqwpcMi+fx5t8DEwF/QE/DgrtRdtUG8iqO6rZP621yJwSvdEnF0Ehs+4FEMEOj0ndcOqE5MUiRQpk0uEE5OQBRv9Ogyen4yqzNGhuHwRuH0NFb2IH9Vgr7byY9GPybXF84w3CjL99DRKTYSG5Ap64Tj1w7xeWJimDW+x3HucJTrQQCoqobxbzc0dJpyshsdqay7QGZoAM16XjIQgegJRewt1+UWfwVk0jbmJ/rQy7rlS2Z2hTenWuOI4l+carW9q3/vji9eYaqFaNewBV4igV3DktzmWdcEoe6vDTf4PwNf8TbIcPXLaRbNP3rYU7Wnu7daziqRMfR3isPuWStn5qyqdoMGZ2bdMU6TjXBxyJuxuggowe+AcGCWfBogo8jLGZHX4Myt7qVG3Pxbl/k4ChhnUsNDt+86C42ZjXCkDKk5jdhCfkJV8cisc9FyOEMq4MrVdaPbGx87y4TOUdb5voCfvWMAENtOYvg7MnKWAmF5DbcKFJOTmXIYSF//8aIO9TN/GZVTM5HRxFWP6GSOs7V6g2mYvzqDl3WiKIep6gcO7g93x+VCuFFaYAH4bpQvMVOOyYP7dv0UP39q3botrwM6fgli/iv8xqrtpQdxoIsVEB59rBYxGycIRsfhl1iDy+KHbMwNPxbsyHpeoEH9XLy4CIQcCpLhorg/hZ7QfN0/WFdQo65HBfgm2OR8QlEX0JtE31cjKGdnhskDkbeYsfCbHDTGRsgO8Dnrm+VvZNzZMcbeGeO4dDrOSo2d1dFDu3FwcDT3RodOIVKfIR9EYjjFABlIGvDzrwBbs3QNFpZWq8GPk5s8CXSuU+7QNAhx+yqGIcr0WWr2rv37WaC9EG7IFrD/LoSboAXQBb4Jqv7nFPUbOLRyvmph8dK7qmV3PlD1Ln9VtXjla6ueFRuqtp47ARA4uwlkTx2FsmJDDm4CZ58Vi+vBmDgSVa93HldTY3J9cH9jcpSAn5MARS9I1JaL8wE2OLoAVUrOEjCXocFxulStr4+VGPzuwoRncQ/c3NTpat/ep6t9e55i86CDgOtZRHE5y1PkfxqQZAKEzHRiqiifjAN/QqDg50uwC3R/k+xxUji5ws0VPV2KcXX+aHz5eSr6s6guHrk6WS7kci1bIN3jWr5gIe+r3wLr1m38G5OttneT8xs5mOO9+sGd2RbfsbHqW7YB7y1rcV11H86o72S97nKWlC2BxnW+qegs8J2vxnAuKten8XLEXHhEzU2EJM1lymZDhdOLDpF7nQCd61a7cBvfw+Y5zlRrstPbOcAs7k5WaHylOnxwG+A2ABPHbmznjpP/KfIahiuUgwSYmdnWk4xcXLw144nZiRTF5kziXA2Z9dLNCzpXX2ibmvyX+/fv+ZNLR1m4e6O2wALw3ahf5grLtXbtpjeAQu+Cw3kTUtzdJLsu37QLBwsdi1YCMssBtiVwXe5w1ssEhAv5mSCBy8MgECkX78jayrQ4mECZij6vOCpQn+Y+EpwAP9hYPJX09QFY48eqA3uewK38VlaCHGN1ibzbWDXA7K4u/tuwa4yTBat67YDt4i+gEH0EdvIRKvtLBw7sfuziCAu/b54WuC5EcvM0x81d0i1btnQPj0++Aw8tf5+auE74qorEN3frvKzSK8I+y7rb3+7paHvfzp07kfMXwq3QAgvAdyt8xTnqULzFtP0Aj78JTuV+GCSMQa4PRzhHkW7k205as1lKtYNCfgp7m3/LmmuvF8It2AILwHcLftS5qlRWjAz+A0w5vo0ZWl1naTTNjMNtGVAQVidoi6doi4+One/79wsrKG6ffrAAfLfPt75kTe/ZuHF9x2T7/8LswZsw/3gtDOE9KOM0nblV+gaqz5YuZg6hDnwOJeMj420Tv3doz559l2yQhZu3RQvcKp37tvhY17OSGFG/GW4IE5rqdRiIbAQ9AES8FFRTziLfaFwi3FtLG5gzdOhDmLPsAbafhZN7BJvIh69nuy286+ZogQXguzm+0w1Vyg0bNiyfmOj4q5j2vQ7/dRsp3BqOuwCbpQClekQnVZiLBSB19VzWhs02nru434Gr06FeIoJFtS5fKl2/VDr00ykgSzaqoxz9uILfwwKSZ9vbxz+zd+/e09OpFy4WWuAKWuD/A8fvtVllOzzbAAAAAElFTkSuQmCC;opacity=50;" parent="1" vertex="1">
          <mxGeometry x="937.21" y="1339.5" width="57.18" height="57" as="geometry" />
        </mxCell>
        <mxCell id="s6IaYTf70Y3r-B-4iRBA-4" style="edgeStyle=orthogonalEdgeStyle;rounded=0;orthogonalLoop=1;jettySize=auto;html=1;" edge="1" parent="1" source="s6IaYTf70Y3r-B-4iRBA-1" target="s6IaYTf70Y3r-B-4iRBA-3">
          <mxGeometry relative="1" as="geometry" />
        </mxCell>
        <mxCell id="s6IaYTf70Y3r-B-4iRBA-5" value="NO" style="edgeLabel;html=1;align=center;verticalAlign=middle;resizable=0;points=[];" vertex="1" connectable="0" parent="s6IaYTf70Y3r-B-4iRBA-4">
          <mxGeometry x="-0.2277" y="-1" relative="1" as="geometry">
            <mxPoint as="offset" />
          </mxGeometry>
        </mxCell>
        <mxCell id="s6IaYTf70Y3r-B-4iRBA-1" value="Do you have a sufficiently robust evaluation dataset?" style="rounded=0;whiteSpace=wrap;html=1;fillColor=#dae8fc;strokeColor=#6c8ebf;" vertex="1" parent="1">
          <mxGeometry x="1103" y="880" width="135" height="80" as="geometry" />
        </mxCell>
        <mxCell id="s6IaYTf70Y3r-B-4iRBA-3" value="Invest in a well-labeled and relevant dataset" style="rounded=0;whiteSpace=wrap;html=1;fillColor=#fff2cc;strokeColor=#d6b656;" vertex="1" parent="1">
          <mxGeometry x="1100.5" y="1021" width="140" height="80" as="geometry" />
        </mxCell>
      </root>
    </mxGraphModel>
  </diagram>
</mxfile>
